<?xml version="1.0" standalone="no"?>
<!DOCTYPE svg PUBLIC "-//W3C//DTD SVG 1.1//EN" "http://www.w3.org/Graphics/SVG/1.1/DTD/svg11.dtd" >
<svg>
<metadata>
Created by FontForge 20110222 at Wed Oct  8 12:33:38 2014
 By Christoph Haag,,,
Copyright (c) 2014 by Peter Wiegel, CAT-Fonts. All rights reserved.
</metadata>
<defs>
<font id="GrobeDeutschmeister" horiz-adv-x="236" >
  <font-face 
    font-family="Grobe Deutschmeister"
    font-weight="900"
    font-stretch="normal"
    units-per-em="1000"
    panose-1="0 0 0 0 0 0 0 0 0 0"
    ascent="800"
    descent="-200"
    x-height="595"
    cap-height="787.5"
    bbox="-73.9032 -264 905 1031"
    underline-thickness="50"
    underline-position="-50"
    unicode-range="U+0020-FB05"
  />
<missing-glyph horiz-adv-x="164" 
 />
    <glyph glyph-name=".notdef" horiz-adv-x="164" 
 />
    <glyph glyph-name="B" unicode="B" horiz-adv-x="539" 
d="M82 795q35 -13 65.5 -34t63.5 -35q23 2 43 12.5t39.5 22.5t39.5 22t43 10q35 -43 63 -90.5t60 -92.5q9 -10 13 -24t-3 -28q-14 -13 -31.5 -21.5t-34.5 -19.5q-11 -7 -22 -13.5t-21 -13.5l112 -24v-258q0 -30 1 -59.5t-2 -60.5q-17 -12 -36.5 -19.5t-38.5 -16.5
q-35 -14 -69.5 -30.5t-70.5 -29.5q-10 -5 -20 -2t-19 5q-41 15 -81 29.5t-81 29.5q-10 3 -20 9.5t-8 18.5q-2 138 -3.5 273.5t-1.5 272.5q-7 7 -19 13t-21.5 13t-14.5 16.5t3 22.5q16 27 31 55.5t41 46.5zM218 639q-2 -43 -1.5 -84.5t0.5 -83.5q35 19 69.5 38.5t68.5 40.5
q-22 29 -40 61.5t-44 58.5q-14 -8 -27 -15t-26 -16zM217 157q35 -14 71 -25.5t71 -25.5q4 121 0 240q-1 4 -3.5 8t-3.5 7q-33 8 -65 13.5t-63 18.5q-11 -59 -7.5 -118t0.5 -118z" />
    <glyph glyph-name="C" unicode="C" horiz-adv-x="381" 
d="M177 786q11 8 23.5 10t25 0.5t25 -5.5t24.5 -7q25 -7 49.5 -13.5t47.5 -17.5q-9 -73 -52 -131q-35 9 -68.5 20.5t-68.5 20.5l5 -494q18 2 41.5 -7.5t48.5 -17.5q23 -9 48 -17t45 -22l-32 -52t-33 -52q-5 -12 -17.5 -10.5t-21.5 4.5q-59 20 -116 41.5t-116 41.5
q-7 32 -3.5 64.5t1.5 64.5q-5 108 -2.5 215t-4.5 214q0 20 2 41t22 35q32 16 65 33.5t62 40.5z" />
    <glyph glyph-name="D" unicode="D" horiz-adv-x="516" 
d="M52 735q11 14 22.5 28t27.5 23q20 5 40.5 1t40.5 -6q75 -11 147.5 -26.5t147.5 -30.5q12 -23 11 -49q0 -144 1 -285.5t-1 -284.5q-51 -32 -102.5 -63.5t-104.5 -59.5q-34 8 -66 21.5t-66 24.5q-25 11 -50.5 18t-48.5 21q-9 17 -7.5 36.5t-0.5 37.5v204.5t-1 204.5
q-1 11 3.5 18t11.5 11.5t15.5 8t15.5 7.5q20 13 43.5 22.5t37.5 28.5q-41 6 -81.5 9.5t-80.5 16.5q7 19 20.5 33.5t24.5 29.5zM195 583q-2 -107 -1 -213.5t-1 -213.5q35 -16 72.5 -27t73.5 -27q1 120 -0.5 238.5t0.5 238.5v13t-1.5 13t-5 10.5t-11.5 5.5q-18 6 -34 2.5
t-31.5 -11t-30.5 -16.5t-30 -13z" />
    <glyph glyph-name="E" unicode="E" horiz-adv-x="424" 
d="M63 688q36 23 69 50.5t74 43.5q0 1 4.5 3.5t10.5 3.5t14 -1t16 -10q36 -13 73.5 -22t74.5 -22q-5 -32 -16 -61.5t-18 -61.5q-9 0 -19 -1.5t-19 1.5q-37 13 -74 25.5t-74 21.5q-2 -43 -1 -85.5t-1 -84.5q51 -1 102 0.5t102 -0.5q-7 -34 -14 -68.5t-25 -64.5
q-41 -2 -81.5 -0.5t-81.5 0.5q-2 -36 -2 -87t2 -96q26 -8 52.5 -19t54 -21t55.5 -18t58 -11q0 -20 -9.5 -36t-17.5 -32q-10 -17 -18.5 -34.5t-23.5 -28.5q-77 25 -153 49.5t-151 55.5q1 143 0.5 283.5t-0.5 283.5q-1 9 2.5 15.5t9.5 11t12.5 8.5t12.5 9z" />
    <glyph glyph-name="F" unicode="F" horiz-adv-x="481" 
d="M97 826q91 2 180 -8t180 -19q10 0 17 -7t14 -13q3 -11 -1 -25t-11 -30t-15 -32t-13 -30q-20 2 -40.5 5.5t-40.5 5t-40 -1t-38 -12.5q7 -52 16 -103t20 -102h74t74 1q-1 -32 -13 -62t-23 -61q-20 -7 -42.5 -4.5t-44.5 -1.5q9 -75 24.5 -149.5t26.5 -150.5
q-39 -46 -82.5 -89.5t-88.5 -84.5q-55 35 -111.5 68.5t-110.5 71.5q15 32 38 58.5t40 58.5q45 -25 85.5 -54t82.5 -56q-1 34 -8.5 67t-12.5 67q-7 48 -15.5 95t-18.5 95q-36 6 -71 3.5t-70 2.5q10 32 23 63t28 62q16 3 32 2t32 1q-5 38 -12.5 76.5t-14.5 76.5q-1 10 -3 20.5
t3 19.5q15 11 31 18.5t31 17.5q-25 4 -50 4h-50.5t-50.5 1.5t-49 9.5q10 16 18.5 33.5t18.5 35t22 32t30 24.5z" />
    <glyph glyph-name="G" unicode="G" horiz-adv-x="499" 
d="M217 805q11 7 24.5 4t26.5 -8q37 -13 74.5 -24.5t75.5 -22.5q10 -3 21 -5t18 -13q-8 -32 -22.5 -61.5t-30.5 -58.5q-57 14 -112 33t-114 32q-2 -128 -1 -254t-1 -253q35 -13 70.5 -26t70.5 -25q4 121 0 244q-25 -1 -49.5 -0.5t-49.5 2.5q2 32 9 62t9 62q8 2 15 5t15 3
q51 -2 101.5 -2.5t101.5 -0.5q5 -33 3 -66.5t-2 -67.5q-1 -64 0.5 -128.5t-0.5 -129.5q-36 -23 -73.5 -42.5t-73.5 -41.5q-8 -5 -16.5 -10.5t-17.5 -9.5t-18.5 -5t-19.5 3q-57 21 -113 43t-113 44q-2 149 -1.5 296.5t2.5 295.5l18 16l18 16q42 19 78.5 45t76.5 49z" />
    <glyph glyph-name="H" unicode="H" horiz-adv-x="493" 
d="M193 788q15 10 33 15t36 0q100 -29 206 -54q-13 -32 -34 -59t-43 -54q-50 16 -85.5 23.5t-59.5 11t-38.5 5.5t-21.5 7q-2 -6 -3.5 -14t-2.5 -13q0 -51 -1 -101.5t1 -101.5q32 23 58.5 52.5t56.5 52.5q45 -16 85 -38t82 -41q5 -135 1.5 -268t-1.5 -268
q-40 -27 -77.5 -56.5t-80.5 -49.5q-8 11 -17.5 22t-7.5 26q7 19 17.5 37t12.5 39q5 41 3 81t0 81q-2 67 0 134t-2 133q-14 8 -27 15t-27 14q-5 -2 -11 -3.5l-10 -2.5q-14 -16 -29 -29.5t-28 -30.5q-2 -54 -1 -108t0 -108q12 -5 25 -9.5t26 -10.5q-11 -32 -31 -60t-37 -57
q-35 5 -69 17t-66 27q0 154 1 306.5t1 306.5q-2 11 6 17t15 12q36 26 72 51.5t73 50.5z" />
    <glyph glyph-name="I" unicode="I" horiz-adv-x="442" 
d="M108 774q7 12 19.5 13.5t23.5 -0.5q54 -5 105.5 -12.5t103.5 -15.5q12 -2 24 -3.5t22 -8.5q-7 -20 -19 -36.5t-24.5 -32.5t-24 -33t-17.5 -36q23 -122 48.5 -242.5t47.5 -242.5q-35 -29 -72.5 -57t-73.5 -57q-10 -8 -20.5 -16.5t-24.5 -13.5q-52 11 -101 30t-100 35
q11 34 30.5 64t38.5 59q43 -15 84 -32t86 -28q-20 122 -48.5 242t-47.5 244q10 16 28.5 22.5t34.5 14.5q0 5 -1 10.5t-1 9.5h-4l1 -14q-20 7 -41.5 10t-43 3.5t-42.5 1.5t-42 5q-4 2 -8.5 6t-8.5 6q15 28 32.5 54t35.5 51z" />
    <glyph glyph-name="J" unicode="J" horiz-adv-x="470" 
d="M131 784q23 7 49 3.5t51 -4.5q49 -7 98.5 -12.5t98.5 -16.5q-3 -20 -13.5 -37t-23 -33.5t-25 -32.5t-19.5 -35q0 -28 5 -56l10 -56q17 -120 37 -238.5t38 -238.5q2 -15 5.5 -29.5t0.5 -29.5q-9 -12 -22.5 -21t-25.5 -19q-31 -24 -60.5 -49t-58.5 -49q-8 -5 -16 -11.5
t-18 -4.5q-47 14 -91 32t-91 32q-9 4 -19 7t-15 11q-2 9 3 16.5t7 15.5q14 20 25.5 41t25.5 41q10 2 19.5 -0.5t19 -6.5l19 -8t19.5 -6q34 -9 65.5 -23t66.5 -14q-29 155 -53 308.5t-49 309.5q-6 15 0 24.5t16.5 16t23.5 12t21 13.5l-92 10t-94 6q-12 -2 -15.5 11.5
t5.5 21.5q17 25 32 52t40 47z" />
    <glyph glyph-name="K" unicode="K" horiz-adv-x="523" 
d="M451 -9q-32 -2 -61.5 10t-58.5 21q-21 57 -40.5 114t-38.5 114q-17 -9 -34.5 -18t-30.5 -25q-2 -23 -1.5 -45t0.5 -45q14 -5 27 -7.5t25 -9.5q2 -11 -3.5 -19.5t-11.5 -16.5q-14 -20 -27.5 -40.5t-27.5 -40.5q-34 11 -67 19.5t-67 19.5q-2 133 -0.5 263.5t-0.5 264.5
q-2 29 0 59.5t-8 59.5q56 27 107 60t108 58q26 2 51 -6t51 -15q36 -11 72.5 -19.5t74.5 -19.5q-11 -30 -30 -56t-36 -53q-9 -9 -20.5 -7t-21.5 4q-25 8 -50 15t-51 12q-23 5 -46 13t-48 5q1 -45 0.5 -88t0.5 -88q41 24 81 49l80 50q35 -39 64 -83.5t63 -85.5q0 -5 -0.5 -13
t-0.5 -13q-20 -10 -39 -20.5t-36 -24.5q-11 -7 -8 -17.5t5 -21.5q16 -44 31 -88.5t29 -89.5q16 -6 32 -11.5t31 -12.5zM190 406q-9 -27 -7.5 -55.5t4.5 -56.5q34 20 68.5 39t66.5 42q-8 6 -13.5 13.5t-11.5 16.5t-14 19t-21 20q-18 -8 -36 -18.5t-36 -19.5z" />
    <glyph glyph-name="L" unicode="L" horiz-adv-x="435" 
d="M56 143q8 16 15.5 27.5t12 22.5t5.5 24t-2 32q2 103 0 205.5t0 205.5q0 20 5 45q73 45 150 87q13 7 26.5 7.5t27 -2t27 -6t27.5 -5.5q20 -7 43 -8.5t42 -12.5q-2 -16 -10.5 -28.5t-16.5 -26.5q-10 -16 -18 -32.5t-22 -30.5q-17 -2 -33 1t-32 7.5l-32 9t-32 6.5
q-5 -109 -3 -215.5t-2 -215.5q-6 -9 -15 -14.5t-19.5 -10t-21.5 -8.5t-20 -10q68 -18 134 -35.5t134 -33.5q0 -33 -15 -62t-25 -60q-2 -7 -6.5 -9t-10.5 -2t-12.5 1.5t-11.5 2.5q-70 17 -138.5 36t-137.5 39q-12 3 -23 8t-22 13z" />
    <glyph glyph-name="M" unicode="M" horiz-adv-x="860" 
d="M99 783q38 -19 74 -41.5t76 -40.5q32 19 60 43t64 36q41 -14 76.5 -37.5t75.5 -37.5q32 17 59.5 40t61.5 37q34 -22 71 -38.5t72 -36.5q-4 -24 -5.5 -68t-1 -98.5t1.5 -114.5t2.5 -117.5t2.5 -107t0 -81.5q12 -3 23.5 -7t22.5 -9q-2 -18 -9.5 -34t-18 -31t-22 -29
t-20.5 -28q-32 13 -65.5 22t-60.5 29q5 118 1.5 234t-1.5 234q-2 32 1.5 62.5t-1.5 62.5q-10 3 -20 8t-20.5 9t-21 5t-21.5 -6q-6 -4 -13.5 -8t-13.5 -9.5t-9.5 -12t-2.5 -15.5q4 -127 3 -252.5t-3 -252.5q0 -24 0.5 -47.5t-3.5 -47.5q-37 -1 -74 -0.5t-74 0.5
q-6 24 -4.5 47.5t1.5 47.5q0 134 -1 267.5t-1 267.5q-14 7 -28 13t-29 13q-16 -8 -30.5 -17t-30.5 -19q-5 -33 -4.5 -66.5t1.5 -67.5t1.5 -67.5t-3.5 -67.5q1 -41 0.5 -90.5t-1 -97.5t0 -90t3.5 -67q-12 -2 -34 -3.5t-45.5 -2t-45 0t-31.5 1.5q0 150 -1.5 299t0.5 299
q1 13 -6 21.5t-17 14.5t-20.5 12.5t-15.5 16.5q18 30 33 62.5t41 58.5z" />
    <glyph glyph-name="N" unicode="N" horiz-adv-x="604" 
d="M25 676q11 13 18.5 28.5t15.5 31t18 29.5t26 24q38 -17 74.5 -40t75.5 -40q15 9 28 21.5t26.5 24.5t28 21.5t31.5 13.5q41 -18 80.5 -37.5t80.5 -38.5q5 -73 5 -145.5t-1 -145l-2 -145t2 -145.5q11 -5 23.5 -10.5t23.5 -10.5q-7 -34 -27.5 -62.5t-40.5 -57.5
q-34 5 -65.5 19t-63.5 25q-5 145 -3 288t0 286q4 11 -3.5 17.5t-15.5 11.5q-15 5 -29.5 10t-29.5 11q-16 -13 -32.5 -23.5t-27.5 -27.5q-1 -152 0 -301.5t-1 -301.5q-38 -2 -77.5 -2.5t-77.5 0.5q-4 22 -4.5 69.5t0 107.5t1.5 127t2 129.5t1.5 113.5t-1.5 79q-13 7 -26 13.5
t-25 13.5q-2 3 -4 8.5t-4 10.5z" />
    <glyph glyph-name="O" unicode="O" horiz-adv-x="516" 
d="M82 710q36 19 73 35.5t73 34.5q12 6 23.5 5t23.5 -4.5t23.5 -9t22.5 -9.5q41 -19 85.5 -33t82.5 -37q2 -153 1.5 -304t-1.5 -305q-28 -15 -62.5 -32.5t-68.5 -33.5t-63 -29t-45 -19q-45 10 -84 26.5t-69 31.5t-47.5 24.5t-18.5 7.5q-5 18 -3 36.5t0 38.5q2 128 2.5 215.5
t0 144t-1 88t-1.5 48t-2 23t-1 12.5q6 20 23.5 28t33.5 17zM186 662q-3 -46 -4.5 -97t-2 -100.5t0 -94t1.5 -76.5q-1 -37 -3.5 -74t5.5 -73q38 -14 76.5 -28.5t77.5 -25.5q-2 131 0.5 260.5t-3.5 260.5q-32 10 -51.5 16t-30.5 9.5t-16.5 5t-9.5 2.5q-8 3 -20 8t-20 7z" />
    <glyph glyph-name="P" unicode="P" horiz-adv-x="559" 
d="M94 775q5 11 15.5 11t19.5 -5q32 -14 61.5 -31t61.5 -32q27 17 51.5 36t51.5 35q47 -11 89.5 -34.5t86.5 -42.5q-1 -32 -0.5 -79t1 -102t1.5 -114t1 -115t-0.5 -105.5t-2.5 -84.5q-48 -27 -92 -59t-94 -55q-27 11 -51 26.5t-50 26.5q-5 -51 -2 -101t-5 -100
q-35 -9 -71 -16t-72 -4q0 74 0.5 146.5t-4.5 146.5q-16 8 -32.5 15t-32.5 16q11 24 31 42.5t37 38.5q0 100 -1 198t1 198q-14 14 -32 21t-28 23q9 28 28 51t33 49zM241 598q0 -91 1 -180.5t-1 -180.5q2 -9 1 -21t10 -15q35 -17 67.5 -36.5t68.5 -34.5q-4 7 -5 46t-0.5 93
t1.5 115.5t2 114.5t0.5 89.5t-2.5 41.5q-20 8 -38.5 17t-38.5 16q-11 -3 -23 -8.5t-21.5 -13.5t-15.5 -19t-6 -24z" />
    <glyph glyph-name="Adieresis" unicode="&#xc4;" horiz-adv-x="518" 
d="M92 796q21 6 43 2.5t45 -5.5q11 -2 25.5 -1.5t22.5 -11.5q2 -20 -1 -38.5t-6 -36.5q-34 -2 -67.5 -0.5t-67.5 9.5q-9 19 -5 41t11 41zM299 801q29 2 58.5 -2.5t59.5 -6.5q9 0 16 -7.5t5 -16.5q-1 -18 -4 -36t-5 -36q-36 -4 -71 1t-70 11q2 23 2.5 46.5t8.5 46.5zM83 691
q43 5 85.5 -0.5t85.5 -6.5q51 -6 101 -8.5t101 -11.5q4 -130 2.5 -258.5t0.5 -257.5q-1 -11 4.5 -16.5t14 -9t17.5 -6.5t15 -8q-11 -29 -27 -55.5t-34 -51.5q-18 -9 -37 -1t-35 12q-10 5 -22 8t-22 7.5t-16.5 12.5t-5.5 23q1 48 2 97t-7 98q-29 0 -58.5 -0.5t-58.5 1.5
q-12 -16 -12 -35t-1 -37q1 -16 0.5 -31t6.5 -29q13 -7 25 -12.5t25 -11.5q-17 -26 -32.5 -53t-35.5 -50q-3 -9 -10.5 -7t-13.5 4q-26 7 -51.5 16t-50.5 18q-2 120 -1 238t0 236q36 15 70.5 30t68.5 35q-42 0 -84 -3.5t-84 1.5v8.5t2 8.5q18 27 33.5 55t38.5 51zM177 495
q1 -29 -2 -58t8 -56q33 -6 65.5 -3t66.5 3q-3 22 -3 44t0.5 44t0 44.5t-4.5 44.5q-36 -8 -67 -27.5t-64 -35.5z" />
    <glyph glyph-name="Q" unicode="Q" horiz-adv-x="520" 
d="M234 804q11 7 22.5 3t22.5 -8q48 -17 94.5 -36t94.5 -36q8 -2 15.5 -7t5.5 -15q2 -111 1 -220t-1 -220q-1 -39 0.5 -79t-3.5 -80q-14 -7 -28 -13.5t-29 -13.5q11 -29 27 -56t32 -53q5 -9 5.5 -19.5t0.5 -21.5q-26 -10 -51.5 -24t-53.5 -21q-20 35 -37.5 69.5t-33.5 70.5
q-9 -4 -18 -9.5t-19 -9t-20 -4t-21 4.5q-51 19 -101.5 37.5t-100.5 40.5q-13 5 -12 16.5t0 22.5q1 143 -0.5 285.5t0.5 285.5q0 11 9.5 16t17.5 10q45 20 90 41t91 43zM180 684q-3 -128 -2 -253.5t-1 -253.5q38 -18 78 -31.5t81 -25.5q2 120 1 239t-1 239q0 9 -1 20t-12 16
q-34 16 -69.5 27.5t-73.5 22.5z" />
    <glyph glyph-name="R" unicode="R" horiz-adv-x="622" 
d="M526 -2q-30 8 -59 18t-59 18q-24 81 -42 161.5t-39 161.5q-10 -5 -21.5 -9t-22.5 -8.5t-21.5 -10.5t-17.5 -16q-2 -46 -1.5 -92t1.5 -91q13 -5 27 -8.5t24 -12.5q-14 -32 -34.5 -60t-41.5 -55q-32 11 -63 21t-63 19q-2 147 -1.5 292.5t-1.5 292.5q-11 20 -30 29.5
t-35 23.5q20 29 38.5 59.5t41.5 57.5q37 -17 72 -40t73 -35q21 7 41 17t40 20.5t40.5 20t42.5 15.5q41 -69 79.5 -138t76.5 -139q5 -10 2 -17.5t-10 -13t-15.5 -9.5t-15.5 -7q-15 -9 -33.5 -13.5t-26.5 -20.5q7 -45 18.5 -89t21.5 -88q8 -29 13.5 -58t16.5 -56q15 -8 29 -16
t27 -19zM245 646q-2 -59 -3 -125t1 -125q43 19 84.5 41t86.5 41q-14 22 -26.5 48t-24.5 52t-24.5 51.5t-27.5 47.5q-17 -9 -33 -16.5t-33 -14.5z" />
    <glyph glyph-name="S" unicode="S" horiz-adv-x="536" 
d="M37 108q40 49 86 95q57 -23 115.5 -44t119.5 -37q0 60 1 119t-1 118q-8 8 -17 13t-17 11q-14 -5 -25 -13.5t-20 -20t-17.5 -23.5t-17.5 -23q-25 -1 -46.5 10t-44.5 20q-20 9 -40 16.5t-38 18.5q-6 9 -6 18.5v20.5q0 64 0.5 128t-0.5 128q0 11 -0.5 21.5t4.5 19.5
q32 23 68 37.5t70 34.5q10 4 20 10t20.5 10.5t21 6t22.5 -1.5q52 -12 102 -27.5t102 -27.5q2 -15 -5 -27t-14 -23q-14 -20 -26.5 -40t-32.5 -36q-48 17 -96.5 32.5t-96.5 30.5q-6 -11 -8.5 -23.5t-2.5 -24.5q2 -41 1 -81t1 -81q5 -13 20 -17t26 -9q23 16 39 39.5t32 44.5
q23 -5 44.5 -13.5t43 -18t42.5 -19t44 -16.5q2 -179 0 -359q-48 -27 -97.5 -49.5t-99.5 -47.5q-14 -8 -28 -7t-28.5 5.5t-29 11t-28.5 9.5q-44 16 -88.5 29t-85.5 36z" />
    <glyph glyph-name="T" unicode="T" horiz-adv-x="435" 
d="M25 670q18 29 35 60t40 57q90 0 179 -8t177 -22q3 -32 -6.5 -64.5t-26.5 -61.5q-68 17 -135 8q-4 -124 -4.5 -245.5t1.5 -246.5q26 -7 51.5 -14t50.5 -15q-11 -34 -25.5 -64.5t-28.5 -62.5q-52 11 -101 27.5t-99 33.5q-2 142 -1 282.5t0 283.5q18 9 36.5 18t36.5 18
q-23 5 -45.5 5.5t-45.5 0.5t-45.5 1.5t-43.5 8.5z" />
    <glyph glyph-name="U" unicode="U" horiz-adv-x="590" 
d="M64 769q4 6 9.5 11.5t13.5 3.5q27 -10 52 -23.5t51 -25.5q9 -5 20.5 -11t9.5 -21q0 -137 -1 -272t3 -272q20 -11 41 -20.5t41 -20.5q16 9 31 20t28 25q-2 124 -1.5 246.5t-1.5 247.5q0 26 -0.5 51.5t1.5 50.5q34 14 71 18.5t73 9.5q9 -27 6 -55q-3 -97 0 -191t2 -190
q1 -50 -0.5 -99t1.5 -99q11 -11 22 -18t22 -15q7 -2 10 -8t-3 -15q-14 -26 -32 -48.5t-35 -47.5q-5 0 -11.5 -0.5t-11.5 -0.5q-29 18 -56 41t-59 32q-33 -18 -61 -41.5t-62 -39.5q-41 24 -84 41t-83 40q-5 20 -3 39.5t2 38.5q0 121 -1.5 240t-0.5 239q-16 8 -30.5 16.5
t-29.5 17.5q13 27 28 53t29 52z" />
    <glyph glyph-name="V" unicode="V" horiz-adv-x="536" 
d="M219 718q32 16 59 38t56 40q45 -18 89 -38t87 -43v-582q0 -11 -1 -23t-11 -18q-47 -23 -92.5 -45t-93.5 -43q-6 -2 -13 -6t-14 0q-56 23 -110.5 44.5t-111.5 40.5q-4 136 -3.5 271t0.5 271q-14 14 -29 24.5t-30 21.5q15 27 28.5 55.5t30.5 54.5q5 8 14.5 8t16.5 -4
q33 -17 63.5 -35t64.5 -32zM213 629q-4 -114 -3 -227.5t4 -228.5q36 -14 73 -28.5t74 -26.5q-2 130 -1.5 257.5t-2.5 256.5q-18 11 -39 20.5t-42 12.5q-18 -3 -32.5 -15t-30.5 -21z" />
    <glyph glyph-name="W" unicode="W" horiz-adv-x="783" 
d="M60 783q7 14 20 10.5t24 -8.5q28 -17 56.5 -33t58.5 -29q17 4 31.5 13t28 19.5t26.5 21t28 18.5q21 -6 41 -15.5t40 -20t40 -20.5t41 -16q29 15 54 35t51 40q40 -18 80 -36.5t78 -38.5v-278t-2 -278q0 -8 0.5 -16t0.5 -15.5t-3 -14t-11 -10.5q-35 -23 -72 -42t-72 -42
q-15 -7 -30.5 -16t-32.5 0q-34 14 -66.5 32.5t-70.5 27.5q-38 -11 -70.5 -33t-70.5 -38q-48 29 -98.5 49t-99.5 46q2 136 2 270.5t1 270.5q-7 6 -18.5 11t-21 11t-15.5 14t-3 20q14 23 27.5 45.5t27.5 45.5zM213 617q-1 -111 -0.5 -220.5t-0.5 -220.5q29 -17 60 -30.5
t63 -23.5q1 77 -1.5 152t1.5 152q-3 27 -2.5 54l1 54t0.5 53.5t-4 53.5q-30 21 -64 25q-13 -14 -30 -23t-23 -26zM492 635q-4 -23 -4 -48q0 -97 -1 -191t-1 -190q2 -8 2 -19t10 -14q26 -15 54 -25.5t54 -22.5q2 130 2 259.5t-3 260.5q-16 5 -31 12.5t-32 5.5
q-14 -5 -25.5 -13t-24.5 -15z" />
    <glyph glyph-name="X" unicode="X" horiz-adv-x="472" 
d="M79 781q4 5 10 9.5t13 0.5q43 -12 84 -30.5t85 -27.5q20 8 36.5 22t32.5 30q7 2 13 5.5t13 5.5q27 -25 52 -53.5t48 -57.5q-23 -23 -47.5 -43.5t-48.5 -42.5q-14 0 -25 8.5t-20 18.5q-5 7 -10 13t-12 11q-5 -41 -3.5 -80t0.5 -80q27 -2 54.5 -1t54.5 -1q4 -7 8 -9
q-6 -27 -13.5 -53t-15.5 -52q-44 -2 -87 -9q0 -46 -2.5 -92t2.5 -91q38 -18 77.5 -30.5t78.5 -26.5q-3 -18 -12 -34t-21.5 -30.5t-25.5 -29t-23 -30.5q-48 17 -94.5 37.5t-96.5 31.5q-23 -16 -44 -36.5t-47 -31.5q-25 20 -44.5 46.5t-44.5 49.5v23q24 20 45.5 42t44.5 42
q16 -14 29.5 -30t27.5 -33q5 57 2.5 111.5t-0.5 110.5q-13 1 -27 0.5t-27.5 -0.5t-27 1.5t-25.5 8.5q2 29 7.5 58.5t18.5 55.5h79q0 35 0.5 70.5t-3.5 70.5q-32 8 -65 18.5t-64 26.5q-10 8 -5.5 19t11.5 19q14 17 27 34.5t27 34.5z" />
    <glyph glyph-name="Y" unicode="Y" horiz-adv-x="536" 
d="M5 664q11 34 30.5 64t38.5 59q38 -16 73 -36.5t73 -36.5q17 3 31.5 13.5t29 22.5t29 22.5t31.5 13.5q45 -17 86.5 -38.5t83.5 -41.5v-786q-33 -23 -65.5 -45.5t-65.5 -45.5q-9 -7 -17 -5t-14.5 8.5t-12 15.5t-8.5 17q9 18 18 37t10 39q4 171 2 340t0 340
q-20 10 -40.5 20.5t-42.5 19.5q-14 -10 -29 -19.5t-28 -23.5q-3 -124 -2 -245t-1 -243q14 -5 27 -9.5t26 -9.5q-9 -34 -30 -62t-41 -57q-34 8 -66.5 20.5t-66.5 21.5q-1 74 -1 151.5v154t-0.5 149t-1.5 136.5q-15 8 -30 17.5t-26 21.5z" />
    <glyph glyph-name="Z" unicode="Z" horiz-adv-x="484" 
d="M135 782q15 3 53 -0.5t85.5 -9.5t98.5 -12.5t93 -8.5q-20 -50 -54 -95q-31 -46 -61 -91t-62 -92q42 -16 83 -30.5t82 -30.5q3 -94 2 -187.5t1 -187.5q-2 -11 -1 -22.5t-2 -22.5q-11 -14 -25 -25.5t-28 -24.5q-34 -26 -64.5 -55.5t-62.5 -55.5h-21q-56 27 -110 53t-111 52
v26q20 23 32.5 50.5t32.5 51.5q53 -22 103 -47.5t104 -48.5q-2 85 -1 168.5t1 167.5q-36 20 -75 34.5t-78 26.5q-5 2 -12 6t-12 8q5 27 23.5 47.5t34.5 43.5q29 43 57.5 85t56.5 85q-30 6 -59.5 9.5t-59.5 6.5t-60 6.5t-59 10.5q18 28 36.5 55t38.5 54z" />
    <glyph glyph-name="a" unicode="a" horiz-adv-x="441" 
d="M32 524q45 23 88.5 45.5t90.5 40.5q44 -13 86 -30t85 -32q16 -3 19 -17.5t3 -28.5q-2 -70 -4 -139.5t-2 -141.5v-41t2 -43q0 -9 7 -13.5t15.5 -8t15.5 -7.5t7 -11q0 -4 -8.5 -20t-19.5 -33.5t-22.5 -31.5t-18.5 -14q-19 0 -38.5 4.5t-37 13t-31 20t-19.5 26.5
q-36 -32 -72 -66q-33 12 -62 22q-25 8 -48.5 16t-33.5 12q-5 27 -6.5 54t-1.5 55q0 41 1 82t1 83q0 24 -1 48.5t-1 49.5q0 52 6 106zM176 466v-47q0 -46 -1.5 -91t-1.5 -92q0 -20 1 -39.5t2 -39.5q0 -2 -0.5 -3.5t-0.5 -2.5q0 -6 5 -11t12 -8.5t13.5 -5.5t8.5 -2
q16 0 26.5 16.5t10.5 31.5v4q0 40 1 79t1 79q0 29 -1 59t-2 59q-13 7 -26 12t-25 11q-5 -2 -11.5 -5t-11.5 -4z" />
    <glyph glyph-name="b" unicode="b" horiz-adv-x="427" 
d="M24 762q35 14 73.5 18t76.5 6q2 -23 2 -46v-48v-78v-38t1 -36q9 7 19 18.5t21 21.5t21.5 17.5t19.5 7.5q20 0 39 -9.5t36 -16.5q16 -7 34 -13t31 -18q2 -25 2.5 -49.5t0.5 -48.5q0 -44 -1 -86.5t-1 -87.5v-40q-1 -9 -1 -18v-18q0 -17 0.5 -33t0.5 -32q0 -30 -3 -58
q-26 -20 -55 -32t-56 -28q-16 -7 -32.5 -16.5t-34.5 -9.5q-8 0 -18 5q-43 18 -87.5 32t-86.5 34q-2 38 -2 76.5v76.5q0 86 1 170.5t1 169.5v103.5t-2 103.5zM177 453q-1 -30 -2 -59.5t-1 -58.5q0 -25 1 -49t1 -49q0 -23 -1 -45t-1 -45q20 -9 39 -17t39 -16q0 17 1 34.5
t1 34.5q0 40 -1 78.5t-1 76.5v76q0 10 -0.5 20.5t-4.5 19.5t-13.5 14.5t-27.5 5.5q-9 0 -17 -4t-12 -17z" />
    <glyph glyph-name="c" unicode="c" horiz-adv-x="385" 
d="M232 609q19 8 39 8q16 -26 26.5 -55t21.5 -56q11 -29 23 -57t20 -57q-7 -12 -23 -24.5t-34.5 -22t-36 -15.5t-26.5 -6q-17 38 -30 77t-33 76q0 -48 -1 -84.5t-1.5 -70t-1 -69t-0.5 -82.5q5 -10 26.5 -19t48.5 -17t54 -15t42 -12q-1 -16 -11 -36t-23 -37.5t-26 -29.5
t-20 -12q-5 0 -24.5 5t-46.5 13.5t-56.5 19t-54.5 21t-41 19.5t-15 15v441q0 8 23.5 18.5t56 21.5t67 22t57.5 20z" />
    <glyph glyph-name="d" unicode="d" horiz-adv-x="430" 
d="M405 572v-472q0 -9 -18.5 -21.5t-45.5 -26t-56.5 -27t-50.5 -23.5q-7 -4 -14 -4q-8 0 -31 8t-51.5 19.5t-57 24.5t-47.5 24v150v303q32 11 63 22t61 23q-11 14 -28 26t-37.5 25.5t-41.5 30.5t-40 41q9 11 21 27.5t25 31.5t25 26t21 11q11 0 16 -6q70 -52 140 -104.5
t144 -100.5zM177 506q0 -66 2 -132.5t2 -132.5v-40t-1 -40q18 -12 37 -19.5t39 -14.5q2 30 2 59.5v60.5q0 61 -1 121t-1 120q0 20 -15 29.5t-31 14.5q-8 -7 -16.5 -13t-16.5 -13z" />
    <glyph glyph-name="e" unicode="e" horiz-adv-x="412" 
d="M25 538q47 20 92.5 45t93.5 39q43 -16 84.5 -34.5t82.5 -38.5q5 -22 7 -54t2 -66q0 -32 -1 -61.5t-2 -49.5q-4 -10 -27.5 -23.5t-54.5 -27.5t-64.5 -28t-57.5 -25q-4 -10 -4.5 -22t-0.5 -23q30 -13 56.5 -20.5t51 -13.5t49 -11.5t50.5 -14.5q-16 -32 -34.5 -60.5
t-43.5 -51.5q-17 1 -56 11t-82.5 23t-83 25.5t-57.5 19.5v462zM184 495q-2 -2 -6.5 -6t-6.5 -6v-45v-80v-37t1 -36q17 7 34 13t29 18q2 11 2 22.5v22.5q0 23 -1 45t-1 45q0 10 -5 16.5t-13 11.5t-17 8.5t-16 7.5z" />
    <glyph glyph-name="f" unicode="f" horiz-adv-x="255" 
d="M58 735q18 16 33 34t34 31q15 -1 37 -3t41.5 -5.5t33.5 -9.5t14 -15v-3v-9q0 -23 -3 -45t-4 -45q-17 -3 -33 -3t-32 3q6 -17 12.5 -33t11.5 -33q10 0 19 0.5t15.5 -2.5t10 -10.5t3.5 -23.5q0 -13 -2 -25t-5 -25q-11 -1 -20 -1t-18 -2q-1 -57 -1 -112.5v-112.5v-310
q0 -31 1 -66t-10 -62q-34 -3 -67 -9t-67 -6l-2 26t-1 27q0 17 1 34.5t1 35.5q-2 67 -2 133v133v134t2 134q-2 9 -8.5 13t-15 5.5t-17 2t-15.5 3.5q0 22 2.5 42.5t9.5 40.5q11 0 20.5 0.5t20.5 0.5q0 25 -6 49t-15 47q-3 4 -3 9q0 11 8.5 18.5t15.5 14.5z" />
    <glyph glyph-name="g" unicode="g" horiz-adv-x="439" 
d="M37 534q42 24 86 43.5t87 40.5q22 -7 54.5 -17t63 -22t52.5 -24t22 -22v-5q0 -129 0.5 -256.5t0.5 -257.5q0 -18 5.5 -36t5.5 -38q0 -10 -18.5 -24.5t-42.5 -29.5t-48 -28t-35 -21q-8 -7 -17 -9t-19 -2q-51 0 -103 6.5t-104 8.5q2 33 14 63.5t26 59.5q49 -5 96.5 -10
t95.5 -11q-5 29 -6 59.5t-3 59.5q-8 -5 -18 -15.5t-21 -21t-21.5 -18.5t-18.5 -8q-17 0 -33 8.5t-32 13.5q-18 11 -39 17t-36 21q-3 106 -2.5 211.5t-3.5 211.5v4v20q0 8 2 15.5t10 12.5zM175 489q0 -25 -0.5 -50t-0.5 -50q0 -122 3 -243q23 -12 49 -21q6 5 12.5 11t11.5 11
q2 31 2 61v61q0 48 -1 95t-1 95q-17 11 -36 18t-39 12z" />
    <glyph glyph-name="h" unicode="h" horiz-adv-x="473" 
d="M66 778q23 1 45 7t43 6h9t9 -1q3 -45 3 -89q0 -23 -0.5 -47.5t-0.5 -48.5v-27t1 -27q12 5 22.5 13t20 16.5t19.5 16.5t21 14q21 -3 46 -11t47 -18t37 -20t15 -18v-57v-155v-57q0 -14 -0.5 -29.5t-0.5 -30.5q0 -41 3 -84q11 -5 22 -8t21 -8q-8 -34 -29 -62t-37 -58
q-34 7 -66 20t-63 28v88v242v88q-11 5 -21.5 10.5t-21.5 10.5q-15 -10 -30 -16q-2 -33 -3.5 -65.5t-1.5 -65.5q0 -43 1 -86t1 -86v-32q4 -3 11.5 -5.5t14 -5t11.5 -6t5 -10.5q0 -15 -11 -33.5t-25 -34.5q-16 -19 -36 -38q-19 0 -40 6.5t-39 15.5t-29.5 19.5t-11.5 18.5v157
v281q0 66 -1 129.5t-1 129.5q0 7 4.5 11.5t10.5 6.5t13 3t13 2z" />
    <glyph glyph-name="i" unicode="i" 
d="M71 780q35 -5 68 -17.5t65 -23.5q-2 -29 -12 -57t-22 -55q-34 1 -67 14t-65 22q3 19 5.5 32.5t6 25.5t8.5 25.5t13 33.5zM60 606q33 0 63.5 -13.5t62.5 -24.5q5 -17 5 -31v-21v-11v-72q0 -72 0.5 -144.5t0.5 -144.5v-5q0 -9 6.5 -14t14.5 -8.5t14.5 -6.5t6.5 -8
q0 -10 -7.5 -24.5t-18 -30t-22.5 -29.5t-21 -23q-15 1 -29.5 5.5t-28.5 9.5l-28 10t-29 7q-8 21 -8 40v72v134q0 36 2.5 72t2.5 72q0 14 -3 29t-6 29q-13 5 -22.5 14.5t-9.5 21.5q0 9 6 21.5t15 25.5t18 25.5t15 22.5z" />
    <glyph glyph-name="j" unicode="j" horiz-adv-x="239" 
d="M79 786q67 -17 135 -39q-6 -29 -15 -58t-20 -58q-35 6 -68.5 17t-66.5 24q4 30 14 58.5t21 55.5zM65 615q33 -6 64.5 -17t61.5 -24q2 -32 2.5 -64t0.5 -65v-123v-48q-1 -39 -1 -78.5v-77.5v-171v-96q-4 -5 -23.5 -9t-43 -6.5t-46 -4t-33.5 -1.5q-1 34 -1 66.5v64.5
q0 88 1.5 169t1.5 162q0 43 -1 87t-2 89q-11 10 -23.5 17.5t-23.5 16.5q14 31 31.5 58.5t34.5 54.5z" />
    <glyph glyph-name="k" unicode="k" horiz-adv-x="453" 
d="M42 765q27 7 55.5 11t56.5 4h20q1 -18 1 -36v-36q0 -37 -0.5 -74t-0.5 -74v-23q19 6 37.5 14.5t36.5 17.5l36 18t37 16q5 -1 12.5 -11t16 -25.5t17.5 -35.5t18 -41q20 -48 44 -110q0 -8 -8 -14t-19.5 -11.5l-23 -11t-17.5 -10.5q9 -51 19.5 -102t19.5 -102
q5 -4 13.5 -6.5t17 -5.5t14.5 -7.5t6 -11.5q0 -8 -7.5 -22t-18 -29.5t-21 -30.5l-17.5 -25q-32 11 -64 19t-61 28q-8 60 -18.5 119t-23.5 118q-12 -11 -23 -15.5t-22 -19.5v-25v-39q0 -26 5 -48q12 -7 25 -12t26 -14q-5 -10 -14.5 -28t-20.5 -35t-22.5 -30t-20.5 -13
q-32 0 -62.5 13.5t-62.5 20.5q-1 68 -2 135t-1 135q0 56 1 110t1 109q0 52 -1 103.5t-1 103.5q1 6 1 12t1 12t4 10t11 5zM208 482q-11 -7 -19 -12t-13 -15t-8 -28t-3 -50q0 -23 0.5 -43t2.5 -28q27 9 56.5 27t54.5 29q-6 15 -13.5 33.5t-16 36t-19 31.5t-22.5 19z" />
    <glyph glyph-name="l" unicode="l" horiz-adv-x="228" 
d="M99 783q10 0 24 3.5t27 3.5q10 0 17 -5t7 -19q0 -53 -1 -106t-1 -107q0 -107 1 -212.5t1 -213.5q11 -3 21.5 -6.5t21.5 -8.5q-1 -17 -7.5 -32t-16 -29t-20 -27.5t-19.5 -26.5q-32 9 -63 17.5t-61 19.5q-2 20 -3.5 38.5t-1.5 38.5q0 23 1 46t1 47v103q0 219 3 440
q0 2 -1 3.5t-1 3.5q0 11 8 16t19 7.5t23 3t21 2.5z" />
    <glyph glyph-name="m" unicode="m" horiz-adv-x="724" 
d="M507 595q3 2 7 6.5t9 4.5t6 -2q29 -9 56 -20t55 -22q15 -5 15 -18.5t2 -26.5q-2 -98 -2 -195.5t-1 -195.5q11 -4 22.5 -8t22.5 -7q-2 -17 -9.5 -31.5t-17 -28.5t-20 -27t-18.5 -27q-28 5 -54.5 15t-53.5 19q-14 2 -17.5 15t-3.5 24q2 32 2 64v64l1 268q-2 10 -13 10
t-24 -6.5t-23 -16.5t-10 -18v-3q0 -72 -1.5 -143t-1.5 -142q0 -11 5 -17.5t13 -10.5t17 -6t17 -4q-16 -29 -32.5 -58.5t-39.5 -55.5q-67 13 -127 42q1 95 0.5 188.5t0.5 188.5q0 12 -0.5 24.5t-5.5 24.5q-7 8 -17 9t-19 5q-10 -11 -19 -21t-9 -26q0 -25 -0.5 -67t-0.5 -84
q-1 -48 -1 -102q0 -32 6.5 -42.5t14.5 -12.5t16.5 -3.5t12.5 -16.5q-17 -27 -33 -55.5t-39 -49.5q-63 15 -123 42q0 107 0.5 213.5t0.5 215.5q-11 9 -23 16t-25 14q4 12 13.5 29.5t20.5 34.5t21 29t16 12q12 0 27 -4t31.5 -9.5t32.5 -11.5t30 -10q2 -5 2 -15.5t1 -17.5
q26 13 45 34.5t42 37.5q31 -11 61 -22t61 -21q3 -7 6.5 -14.5t6.5 -15.5l31.5 31.5t33.5 29.5z" />
    <glyph glyph-name="n" unicode="n" horiz-adv-x="479" 
d="M51 567q4 5 8 12t8.5 14t10.5 11.5t13 4.5q10 0 25 -3.5t30.5 -8.5t30.5 -10.5t25 -10.5q5 -9 7.5 -17.5t4.5 -18.5q20 18 38 38.5t42 31.5q19 -3 43.5 -10.5t46.5 -17t37 -21t15 -21.5q0 -29 1 -56.5t1 -56.5q0 -45 -1 -90t-1 -91v-56.5t2 -56.5l20 -10t20 -11
q-11 -30 -27 -59t-36 -55l-38 9.5t-42.5 13t-34.5 18.5t-14 27q0 19 1 38t1 38q0 50 -1 98.5t-1 98.5q0 21 1 43t1 44q0 19 -5 29.5t-14 15.5t-21 5.5t-25 0.5q-5 -14 -9 -27.5t-4 -28.5q0 -23 0.5 -45t0.5 -45q0 -35 -0.5 -69.5t-0.5 -69.5v-31.5t1 -31.5q3 -1 10 -3
t14 -4.5t12 -5t5 -4.5q0 -14 -7.5 -32t-18 -34.5t-22 -30t-18.5 -18.5q-34 7 -65 18t-61 25v92v249v91q-5 3 -12.5 6t-14.5 7t-12 8t-5 9q0 19 14 34t21 31z" />
    <glyph glyph-name="o" unicode="o" horiz-adv-x="424" 
d="M169 602q11 5 22 9.5t23 4.5q4 0 8 -1t9 -2q43 -15 84.5 -31.5t83.5 -34.5v-137v-165.5t-2 -164.5l-82 -42t-86 -39q-8 -4 -16 -4q-12 0 -35 8t-49 18.5t-53.5 22t-48.5 18.5q-2 45 -2 87.5v86.5v191v106q35 20 71.5 35.5t72.5 33.5zM177 485q-2 -43 -2 -84.5v-84.5v-168
q20 -8 38.5 -15t38.5 -12v173.5t1 163.5q-14 8 -31 19t-35 11q-6 0 -10 -3z" />
    <glyph glyph-name="p" unicode="p" horiz-adv-x="455" 
d="M69 596q7 4 13 6q31 -7 60.5 -16t58.5 -18q1 -6 2 -16t2 -17q20 16 37.5 33t39.5 31q5 3 22 -2t39 -14.5t45.5 -20t40.5 -17.5l2 -126t1 -127q0 -52 -1 -103.5t-2 -103.5q-17 -18 -39 -29t-42 -24q-20 -11 -37.5 -23t-37.5 -17q-18 5 -35 13t-34 15q-2 -12 -2 -25v-26
v-54q0 -11 1 -24t-0.5 -25t-7 -21.5t-17.5 -11.5q-25 -5 -50 -7.5t-50 -7.5q-4 1 -10 4t-11 5v159v79q-13 7 -25 13.5t-25 12.5q0 15 8 25.5t17.5 20t17.5 20t8 25.5v66v117v53t-1 54q-13 5 -25 10.5t-25 10.5q13 28 29 53t33 50zM226 467q-14 -5 -16 -19.5t-6 -25.5
q1 -32 0 -70t-1.5 -76t0.5 -72t7 -56l36 -16l36 -16q5 72 3 143t-2 144v10l-13 47q-8 2 -16 6t-16 4q-3 0 -5.5 -0.5t-6.5 -2.5z" />
    <glyph glyph-name="q" unicode="q" horiz-adv-x="427" 
d="M33 534q43 23 87 43.5t88 42.5q22 -6 55 -17.5t64 -24t53 -24t22 -18.5q0 -170 -1 -337.5t-1 -336.5q0 -8 -15.5 -14t-38 -10.5t-47 -7t-41.5 -2.5q-4 25 -6 49.5t-2 49.5q0 35 2.5 70.5t3.5 71.5q-23 -12 -41.5 -33t-37.5 -39q-38 11 -74 26.5t-73 29.5q-2 8 -2.5 15.5
t-2.5 14.5q2 45 2.5 89t0.5 89v209q0 14 -0.5 33t5.5 31zM175 486q-1 -82 -1 -164v-164q0 -9 5.5 -14t13.5 -7t17 -3t15 -2q15 11 21 24.5t7.5 29t0.5 31.5t-1 31q0 32 -0.5 64t-0.5 65v39.5t1 39.5q-18 11 -37 19t-41 11z" />
    <glyph glyph-name="r" unicode="r" horiz-adv-x="402" 
d="M193 533q13 12 24.5 26t23.5 27.5t25 26t29 21.5q23 -54 40.5 -109.5t37.5 -111.5q1 -3 2 -6.5t1 -5.5q0 -7 -13 -23.5t-31.5 -34t-38.5 -30.5t-33 -14q-9 19 -15 38.5t-11 40t-11 40.5t-15 39l-9 1q-6 -21 -7.5 -60.5t-1 -83.5t1.5 -86t1 -68q41 -13 82.5 -21.5
t82.5 -22.5q-11 -35 -33.5 -64.5t-46.5 -55.5q-59 17 -120 29.5t-115 39.5q0 35 -1 70t-1 70q0 70 1 140t1 140q-3 1 -10 3.5t-14 5.5t-12 6t-5 5q0 17 6.5 31.5t16 28t20.5 26t20 26.5q31 -7 60.5 -16t58.5 -21q3 -11 5 -23.5t4 -23.5z" />
    <glyph glyph-name="s" unicode="s" horiz-adv-x="424" 
d="M32 538q41 24 83.5 43.5t83.5 42.5q51 -15 100 -29t99 -28q-1 -17 -7 -31.5t-14 -28.5t-17 -28t-16 -28q-22 1 -42.5 7.5t-40.5 14.5t-40.5 14.5t-42.5 8.5q-2 -32 -2 -63.5v-63.5l18 -8t18 -7q14 17 27 33t27 33l70 -30t67 -35q1 -28 2 -55t1 -54q0 -42 -1 -83t-1 -82
q-43 -23 -87.5 -44t-89.5 -40q-30 0 -60 10.5t-58 19.5q-27 8 -55 15t-52 24q7 13 18.5 31t23.5 34.5t22.5 28.5t16.5 15q45 -12 88 -30.5t88 -29.5q0 24 0.5 47.5t0.5 47.5q0 9 0.5 20.5t-1.5 21t-8 16t-18 6.5q-9 0 -17 -6.5t-15.5 -15.5t-14.5 -18t-16 -14
q-38 8 -71 27.5t-68 35.5q0 38 -1 76.5t-1 76.5q0 26 0.5 51t2.5 51z" />
    <glyph glyph-name="t" unicode="t" horiz-adv-x="257" 
d="M46 747q16 10 34.5 15.5t37.5 7.5t38.5 2.5t38.5 1.5q1 -18 1 -37v-37v-60v-27.5t2 -27.5q9 1 18.5 2t20.5 2q3 -8 5 -16t2 -17q0 -12 -3.5 -25t-5.5 -27q-10 -2 -19 -2.5t-20 -2.5q2 -91 2 -181.5v-181.5q0 -11 6 -14t13.5 -6t14 -9t6.5 -23q-17 -22 -30 -46.5
t-34 -42.5q-32 4 -60 16t-59 20q-2 43 -2.5 85.5t-0.5 85.5v188v105q-9 1 -18 1.5t-15.5 2.5t-10.5 8t-4 18q0 14 2 29.5t4 30.5q10 0 15 -1t8.5 1t7 7.5t10.5 19.5q-1 32 0 54.5t1 38t-1 25t-5 17.5z" />
    <glyph glyph-name="u" unicode="u" horiz-adv-x="465" 
d="M65 611q33 -5 63 -16.5t59 -24.5q2 -7 2 -38v-75t-0.5 -94.5t-0.5 -96.5t1.5 -82t4.5 -49q2 -11 10.5 -13t15.5 1q14 6 28.5 12t17.5 23q4 78 2 156t-2 156q-11 8 -25 13.5t-20 19.5q9 27 26 50.5t31 49.5q73 5 135 -34q7 -38 4 -76.5t-1 -78.5q5 -69 1.5 -138t0.5 -139
q8 -13 22.5 -16t25.5 -10q-9 -28 -26 -52.5t-34 -49.5q-5 -10 -14.5 -8t-18.5 4q-24 7 -47.5 14.5t-47.5 15.5q-1 5 -4 14t-5 14q-21 -14 -39.5 -32t-41.5 -32q-35 7 -67.5 22.5t-67.5 23.5q-9 33 -7.5 66.5t0.5 65.5q0 72 -1 144t-1 144q-9 7 -18.5 13.5t-20.5 12.5
q1 17 7 32.5t15 30.5t19 29t19 28z" />
    <glyph glyph-name="v" unicode="v" horiz-adv-x="445" 
d="M42 564q8 10 16.5 22.5t24.5 7.5q27 -7 53.5 -14t51.5 -19q2 -4 4 -9.5t3 -8.5q4 0 9.5 0.5t8.5 0.5q15 13 29 27t31 24q18 -2 35 -7.5t33.5 -12.5l33 -14t33.5 -11l12 -16q-5 -119 -3.5 -235t-3.5 -235q-36 -18 -73.5 -38t-82.5 -40q-11 -5 -21.5 -2.5t-19.5 4.5
q-43 14 -83.5 28.5t-82.5 26.5q-5 104 -3.5 208t1.5 208q-11 9 -26.5 14.5t-21.5 19.5q6 20 19 37t23 34zM230 469q-17 -5 -28.5 -19.5t-9.5 -32.5q-1 -72 -0.5 -143.5t2.5 -143.5q19 -8 38 -14.5t38 -13.5q0 89 1 177.5t-4 177.5q-20 8 -37 12z" />
    <glyph glyph-name="w" unicode="w" horiz-adv-x="658" 
d="M55 611q33 -7 66 -16t63 -23q2 -5 4 -14.5t4 -15.5q19 15 36.5 32t36.5 31q13 9 26 2.5t25 -9.5q12 -6 26 -10t26.5 -9t24 -13t19.5 -21q22 14 39.5 32t38.5 33q16 1 31 -6t29 -12q18 -8 36.5 -14.5t34.5 -18.5q8 -54 9.5 -103.5t-0.5 -103t-5 -114.5t-4 -138
q-11 -11 -24 -19t-27 -16q-31 -17 -60 -35t-62 -31q-34 14 -67 28.5t-68 25.5q-15 -2 -27.5 -10t-24.5 -17t-25 -16.5t-28 -8.5q-41 14 -79.5 31.5t-77.5 34.5q-11 17 -9 39t0 42q1 81 0.5 162.5t-0.5 162.5q-9 6 -19 11l-20 10q-3 18 2 33t13.5 29t19 27.5t17.5 27.5z
M196 466q-1 -4 -4 -10t-5 -11q0 -76 -1 -151t4 -151q18 -5 35 -11.5t34 -13.5q2 87 1 173t-1 173q-12 20 -29.5 16.5t-33.5 -14.5zM403 436q4 -59 3 -116.5t-1 -114.5q2 -14 0.5 -28.5t6.5 -27.5q15 -10 32 -16.5t34 -14.5q2 70 0 138.5t0 138.5q-1 12 -0.5 24t-0.5 24
t-4.5 23t-12.5 21q-23 -2 -35.5 -17.5t-21.5 -33.5z" />
    <glyph glyph-name="x" unicode="x" horiz-adv-x="410" 
d="M205 531q23 24 47 48t50 47q13 -14 19 -30t11 -33q9 -38 21.5 -73t26.5 -70q5 -10 5 -22.5t-9 -19.5q-26 -23 -51 -45.5t-51 -45.5q-20 37 -29.5 77.5t-21.5 81.5h-11t-12 -2q0 -73 -2 -146.5t4 -147.5q42 -9 83 -16.5t83 -17.5q-11 -34 -31.5 -64t-40.5 -59
q-22 6 -44 13.5t-44.5 13t-45.5 6.5t-46 -5q-23 -7 -31 -28.5t-5 -43.5q10 -8 22 -16t25 -12.5t26 -5t26 5.5q14 3 19.5 14t10.5 22q36 -2 71 -10.5t69 -21.5q-7 -19 -17 -37.5t-28 -31.5q-29 -21 -65.5 -28.5t-72.5 -3t-68.5 22t-53.5 47.5q-25 35 -27.5 78.5t5.5 84.5
q2 13 8 25.5l12 25t10 25.5t3 28q0 78 -1 156l-2 156q-11 5 -20.5 9.5t-20.5 9.5q0 17 5.5 32t14 28.5t17.5 26.5t16 27h22t20 -6q9 -3 18 -5l18 -4q12 -3 24.5 -7t24.5 -9q5 -11 7.5 -22t6.5 -22z" />
    <glyph glyph-name="y" unicode="y" horiz-adv-x="447" 
d="M285 616q35 -14 70.5 -27t67.5 -31q-1 -138 -0.5 -274t-0.5 -274q-36 -46 -73 -91t-73 -92q-46 -1 -91 3.5t-92 4.5q-11 2 -23 1t-20 9q8 31 21 59t27 57q28 5 56.5 1.5t57.5 -4.5q8 0 16.5 -1.5t16.5 -2t16 1.5t14 8q1 77 2 153t-1 153q-1 48 0 95t-6 95q-3 8 -8.5 11.5
t-13 5t-15.5 1.5h-15q-6 -10 -11.5 -20.5t-11.5 -21.5q-2 -34 -2.5 -72t0 -77t2 -78t2.5 -73q11 -5 23 -9.5t25 -9.5q0 -18 -12 -33q-15 -22 -28.5 -44.5t-31.5 -42.5q-31 11 -61 21t-61 21q-3 109 -2 218.5t1 219.5q-11 8 -23.5 15t-23.5 16q11 27 28 52t37 49
q16 1 31.5 -2t31 -8t31 -11t30.5 -9q5 -17 6 -32l20 8q16 17 32.5 32t34.5 29z" />
    <glyph glyph-name="z" unicode="z" horiz-adv-x="389" 
d="M104 628q63 -1 126 0.5t126 -1.5q11 -17 7 -40.5t-16 -39.5q-29 -39 -56.5 -80.5t-56.5 -82.5q31 -17 63.5 -28.5t62.5 -27.5v-276q0 -20 -1 -40.5t-8 -40.5q-38 -27 -75 -54t-75 -54q-9 2 -18.5 2.5t-18.5 5.5q-34 18 -67.5 35t-67.5 34q-5 18 -2 36.5t10 36t16.5 34
t17.5 32.5q34 -19 67 -41t69 -41q2 61 2 122t-3 122q-31 16 -64.5 26t-60.5 31q33 47 64 94t64 92q-17 2 -32.5 2.5t-34.5 1t-43.5 2t-59.5 5.5q7 32 19 63t26 60l10 5z" />
    <glyph glyph-name="adieresis" unicode="&#xe4;" horiz-adv-x="452" 
d="M203 736q-2 -30 -12.5 -57.5t-20.5 -56.5q-18 2 -36 7.5t-36 10.5q-15 6 -32.5 8t-27.5 15q2 28 11 54t17 52zM255 766q16 6 26.5 5t26.5 -8q45 -15 93 -27q-7 -29 -15 -57t-17 -57q-35 4 -68 14t-65 19q1 25 8.5 48t9.5 47q-2 2 0.5 8t0.5 8zM27 520q45 25 91.5 46
t94.5 41q47 -16 93.5 -33t94.5 -33q1 -209 0 -420q11 -3 23 -7t25 -8q-8 -32 -27 -59.5t-39 -52.5q-15 0 -30 4t-29.5 9t-28.5 10t-29 8q-4 9 -6.5 17.5t-5.5 17.5q-22 -14 -40 -32t-38 -34q-10 0 -20 2t-19 5q-27 13 -55 24t-55 21q-3 119 -1.5 237.5t1.5 236.5zM179 477
q-2 -86 -6 -171t4 -171q11 -4 21 -8t21 -7q20 15 35 30q-1 45 -1 84t1 74.5t2 68t2 65.5q-23 11 -39.5 20.5t-39.5 14.5z" />
    <glyph glyph-name="odieresis" unicode="&#xf6;" horiz-adv-x="425" 
d="M57 783q35 0 68.5 -11t66.5 -22q-8 -29 -16 -57.5t-17 -56.5q-27 5 -53 12.5t-52 14.5q-9 2 -19 8t-7 17q6 24 13.5 47.5t15.5 47.5zM253 783q35 -2 69 -11t66 -24q-5 -29 -12 -58t-25 -54q-29 11 -61.5 17t-61.5 20q-1 14 2 28t7 27.5t8.5 27t7.5 27.5zM25 537
q45 21 89.5 43.5t90.5 40.5q50 -14 97.5 -33.5t96.5 -37.5q2 -91 0 -182t0 -184q-2 -27 -1 -54.5t-7 -54.5q-42 -16 -81.5 -37t-81.5 -37q-14 -7 -28 -2l-28 10q-36 14 -72.5 27.5t-72.5 27.5q-2 119 -1 236.5t-1 236.5zM174 490q-4 -85 -3 -169t1 -170q17 -9 30.5 -14
t36.5 -17q7 5 10.5 6t2.5 10q2 82 -1.5 162.5t-0.5 163.5q-18 10 -37 17.5t-39 10.5z" />
    <glyph glyph-name="udieresis" unicode="&#xfc;" horiz-adv-x="491" 
d="M95 778q35 -1 67 -12t65 -19q1 -31 -9 -60t-21 -56q-23 2 -45 10t-45 13q-6 2 -12 3.5l-12 3t-10.5 5t-6.5 10.5q5 26 13 51.5t16 50.5zM291 780q27 0 52.5 -8t51.5 -13q8 -5 17 -9.5t17 -10.5q-7 -28 -14.5 -55t-16.5 -53q-35 6 -69.5 17t-67.5 25q7 27 14.5 54t15.5 53
zM84 609q34 -8 66 -20.5t65 -23.5q1 -107 -0.5 -212.5t0.5 -213.5q9 -5 20 -8.5t22 -3.5t20.5 4.5t15.5 16.5q2 79 0 157t0 157q-13 9 -25 17t-25 17q13 31 31 57t32 54q34 -3 66.5 -14.5t64.5 -25.5q3 -112 1.5 -222t4.5 -221q11 -3 21.5 -7t21.5 -8l-72 -115
q-54 24 -111 36q-3 8 -3 18.5t-10 15.5q-20 -17 -39 -35t-41 -32q-36 8 -69.5 23.5t-68.5 24.5q-2 35 -1.5 68.5t-4.5 67.5q-1 72 0.5 143t-0.5 142q-18 14 -39 15q0 9 -1.5 18.5t3.5 17.5q14 23 27.5 45.5t27.5 46.5z" />
    <glyph glyph-name="Odieresis" unicode="&#xd6;" horiz-adv-x="487" 
d="M72 795q35 -2 69.5 -5.5t69.5 -8.5q0 -21 -1 -43t-8 -42q-2 -2 -6.5 -4t-6.5 -4q-33 4 -65 6t-64 12q2 23 4.5 45t7.5 44zM285 793q34 4 68 -3t68 -9q0 -23 -2.5 -47t-7.5 -47q-16 -1 -32 2.5t-32.5 6.5t-32 2.5t-30.5 -9.5q45 -15 87.5 -36.5t87.5 -39.5q3 -88 2 -175.5
t-1 -175.5q-1 -44 1 -88t-4 -89q-3 -3 -18 -11t-35.5 -18.5t-44 -22.5t-45 -22.5t-38.5 -18t-23 -9.5q-57 16 -111.5 40t-111.5 38q-6 77 -3 153t-2 153q5 59 2.5 116.5t2.5 116.5q54 25 106.5 50.5t107.5 48.5q7 -2 17.5 -5.5t17.5 -5.5q-2 20 -3.5 40t0.5 40q1 11 9 25z
M175 585q-1 -108 -0.5 -214t0.5 -214q42 -18 67 -28.5t39.5 -16.5t21.5 -8.5t13 -4.5q-1 109 0.5 216t-0.5 216q-35 14 -70 28.5t-71 25.5z" />
    <glyph glyph-name="Udieresis" unicode="&#xdc;" horiz-adv-x="586" 
d="M325 798q33 1 65.5 -4t65.5 -7v-53t-17 -50q14 3 27 5.5t27 6.5q2 2 6.5 -5t5.5 -18q2 -134 0.5 -266.5t4.5 -267.5q12 -8 24.5 -15t24.5 -15q-1 -7 1 -15t-5 -13q-18 -20 -32.5 -41.5t-33.5 -41.5h-18q-29 14 -53.5 34t-53.5 34q-28 -15 -53.5 -35.5t-51.5 -38.5
q-17 0 -31 7t-29 13q-29 16 -58.5 29.5t-59.5 27.5q-2 118 -1 234.5t-1 234.5q-9 17 -25 25.5t-29 19.5q14 31 29 60t34 56q35 -14 69 -30t69 -30q0 -121 1 -241t1 -242q19 -11 39 -22.5t42 -18.5q14 5 26 15.5t25 19.5q2 128 1 254t0 254q5 11 16.5 14t24 4t23.5 4t17 14
q-32 2 -65 3t-65 9q1 11 0.5 23t0 24t3 23.5t9.5 21.5zM117 795q35 -2 69.5 -2.5t69.5 -9.5q0 -23 -1.5 -45t-7.5 -44q-35 2 -69.5 4.5t-68.5 7.5q0 22 2 44t6 45z" />
    <glyph glyph-name="longs" unicode="&#x17f;" horiz-adv-x="227" 
d="M113 788q30 -2 59.5 -7t58.5 -11q0 -29 -2 -58.5t-1 -58.5q-18 2 -35 2.5t-34 2.5q13 -18 21 -39.5t8 -44.5q0 -154 0.5 -305.5t-0.5 -305.5q-2 -32 0.5 -63.5t-8.5 -63.5l-64 -8t-65 -6q-8 20 -6 42t2 42q-2 168 -0.5 334t-5.5 334q3 29 -4.5 58t-18.5 56q2 11 11 18.5
t16 15.5q17 16 32.5 34t35.5 32z" />
    <glyph glyph-name="c_k" unicode="&#xeec4;" horiz-adv-x="703" 
d="M259 763q35 8 70.5 13.5t71.5 5.5q-1 -62 0.5 -122.5t-0.5 -121.5q38 14 72.5 31t70.5 33q7 3 12 0.5t8.5 -8t6.5 -12.5t6 -11q9 -26 21.5 -50t24.5 -48t22.5 -49t16.5 -51q-17 -9 -33.5 -16t-32.5 -17q4 -54 16 -106t17 -106q6 -3 15.5 -5t18 -5t13 -8t1.5 -15
q-26 -53 -67 -102q-25 9 -50 18.5t-52 11.5q0 -1 -2 4.5t-4 12t-4.5 12t-2.5 4.5q-9 32 -13 58t-7 50.5t-6.5 50.5t-11.5 59q-24 -8 -48 -17q-11 -30 -8.5 -62t2.5 -64q9 -12 23.5 -15t27.5 -10q-15 -29 -31.5 -58t-36.5 -55q-32 11 -64.5 20t-62.5 24q-2 104 -2 207t2 207
q-27 -2 -46.5 -9.5t-39.5 -8.5v-76v-71.5v-72v-76.5q9 -5 20.5 -7t22.5 -4.5t19.5 -7.5t12.5 -15q-11 -23 -21 -44.5t-21 -44.5q-2 -9 -11 -11.5t-16 -7.5q-36 14 -74 23.5t-76 24.5q0 73 0.5 136t0.5 122t-1 116.5t-3 120.5q38 25 82.5 36.5t87.5 27.5q18 -12 30 -31
t28 -35q3 28 3 56.5t-1 57t-0.5 57t3.5 56.5zM401 455q2 -34 0.5 -68.5t-0.5 -69.5q29 11 55 24t53 24q-14 29 -27.5 59.5t-30.5 57.5q-8 2 -14.5 -0.5t-12 -7.5t-11.5 -10.5t-12 -8.5z" />
    <glyph glyph-name="c_h" unicode="&#xf1bb;" horiz-adv-x="676" 
d="M260 733q30 8 70 13t71 10q2 -24 2.5 -60.5t0.5 -73.5t-0.5 -69t0.5 -45q23 13 41 32.5t40 33.5q35 -11 64.5 -22.5t58.5 -20.5q3 -2 6.5 -4t5.5 -7q5 -27 5.5 -54.5t0.5 -56.5v-37t-0.5 -59t-0.5 -69.5v-68t1 -54t3 -27.5q9 -1 21 -4t21 -5q-7 -35 -28 -63t-37 -57
q-29 11 -58.5 18.5t-58.5 17.5q-9 2 -9.5 10.5t-0.5 15.5v191t-3 191q-1 10 -6.5 16t-13.5 10t-17 6t-17 4q-16 -14 -17 -50t0 -89q2 -54 1 -107t2 -106q11 -4 22.5 -7t22.5 -7q-14 -32 -33 -60t-39 -54q-32 9 -62 19t-61 20q-1 106 -1.5 211.5t-2.5 211.5q-20 -6 -33 -9
t-21 -5l-14 -3.5t-13 -3.5q0 -27 -1 -68.5t-1 -85t1.5 -83t6.5 -61.5q17 -9 35 -14t35 -13q-16 -29 -30 -58.5t-30 -58.5q-38 11 -75.5 22.5t-77.5 19.5q-3 10 -5 20t-2 20q-2 106 -2 210.5t-1 209.5q0 13 -0.5 25t4.5 25q41 16 82.5 29.5t82.5 30.5q15 -15 29.5 -30
t30.5 -29q-1 45 -0.5 89t-0.5 88q1 11 0.5 20.5t5.5 18.5z" />
    <glyph glyph-name="ff" unicode="&#xfb00;" horiz-adv-x="503" 
d="M121 787q33 0 66.5 -3.5t64.5 -14.5q6 -58 -11 -117q-17 2 -33.5 5.5t-33.5 6.5q11 -17 17 -37.5t17 -37.5q22 -2 43 -1.5t44 1.5q0 24 -5 48t-16 45q-4 6 -3 11.5t4.5 10t8 8.5t7.5 8q18 16 33.5 34t35.5 32q30 5 60.5 -2t60.5 -7q7 -63 0 -125q-18 2 -36 5.5t-36 6.5
q11 -18 18.5 -36.5t13.5 -38.5q11 -1 23 -1h23v-83q-1 2 -2 -3.5t-3 -2.5q-11 -5 -21.5 -1.5t-21.5 -1.5q4 -149 2.5 -295.5t0.5 -295.5q0 -17 -2 -33.5t-5 -33.5q-35 -2 -68.5 -7.5t-68.5 -7.5q-3 89 -4 174t-1 168.5v166.5t-1 169q-21 1 -42.5 1h-42.5q-5 -91 -3 -179
t-2 -179q-1 -65 0.5 -128.5t-0.5 -129.5q0 -11 -2 -21.5t-5 -20.5q-67 -17 -132 -21q-7 73 -4.5 146t1.5 145q0 68 -1.5 134t-0.5 133v61t-7 60h-18t-18 -1q-9 21 -7 42.5t7 42.5q10 2 20 2h20q2 28 -5.5 53t-15.5 50q18 29 42.5 49.5t44.5 46.5z" />
    <glyph glyph-name="fi" unicode="&#xfb01;" horiz-adv-x="518" 
d="M25 577q7 8 18 9.5t21 2.5q2 29 -5.5 56.5t-18.5 53.5q20 27 45 48.5t50 42.5q32 -5 63.5 -8.5t62.5 -12.5q1 -28 -0.5 -56.5t-10.5 -57.5q-33 3 -69 3q9 -17 17 -34t13 -36q13 -2 25 -4t25 -4q-2 -12 -4 -24.5t-5 -26.5q3 -3 5.5 -7t6.5 -9q10 26 24.5 49.5t32.5 44.5
q32 -3 63.5 -15t63.5 -19q4 -113 1 -225.5t2 -224.5q5 -3 13.5 -4.5t15.5 -4t10.5 -7.5t-0.5 -14q-14 -26 -30.5 -49.5t-32.5 -48.5q-32 7 -61.5 18.5t-59.5 19.5q-6 30 -5.5 60.5t0.5 62.5v306q1 10 -7.5 14.5t-18 8.5t-16 9.5t-1.5 18.5q-4 -2 -8 -3.5t-6 -2.5
q-9 -4 -17 -7t-16 -7q0 -121 -1.5 -240t0.5 -240q-2 -43 -0.5 -85t-5.5 -84q-33 -9 -67 -12.5t-68 -8.5q-9 43 -5 85.5t2 85.5q1 147 0 295q-3 27 -3 53.5t0.5 52.5t0.5 52.5t-4 53.5q-8 1 -18 -0.5t-17 1.5v75zM328 772q35 2 69 -10.5t66 -23.5q0 -31 -10 -59t-23 -55
q-34 9 -68.5 19t-66.5 24q7 27 15.5 53t17.5 52z" />
    <glyph glyph-name="fl" unicode="&#xfb02;" horiz-adv-x="533" 
d="M165 796q4 2 7 1t5.5 -4t5 -6.5t4.5 -5.5q22 -3 43 -5.5t43 -7.5q1 -59 -12 -117q-18 -2 -37 1t-37 5q23 -36 35 -72q14 -2 27.5 -3.5t27.5 -2.5q-1 -20 -3 -38t-4 -37q-9 -3 -14 -5.5t-9 -3.5t-9 -1t-15 2q-2 -83 -2 -165.5v-165t-1.5 -165.5t-5.5 -165
q-34 -5 -67.5 -9.5t-67.5 -4.5q-5 31 -4.5 61t1.5 62q0 86 1 171t-4 171q5 51 3.5 102.5t-3.5 103.5q-11 3 -24 3.5t-24 8.5q0 19 3 37t5 36q11 2 22.5 4t22.5 4q1 29 -6 56.5t-15 54.5q23 28 49.5 54t58.5 46zM316 763q34 9 68.5 12.5t68.5 10.5q6 -28 7 -56.5t0.5 -57.5
t-1 -57.5t2.5 -56.5q-2 -110 -3.5 -218t1.5 -217q11 -4 23.5 -8t23.5 -9q2 -7 -2.5 -12.5t-6.5 -12.5q-26 -42 -59 -89q-18 2 -35.5 6.5t-33.5 11.5q-14 5 -27 8.5t-25 6.5q-2 11 -5 21t-3 21q2 144 1 286t1 286q1 30 -1 62t5 62z" />
    <glyph glyph-name="f_t" unicode="&#xeecb;" horiz-adv-x="505" 
d="M50 702q19 23 42 42t43 41q32 1 64 -2t64 -9q2 -15 4 -30.5t2 -31t-3.5 -30.5t-11.5 -28q-32 4 -63 6q9 -17 16 -34t11 -36q21 -7 44 -6t46 3q2 42 0 83t1 83q33 11 67 15l68 8q4 -23 4.5 -46.5t0 -47t-0.5 -46.5t2 -46q25 -5 48 -6q4 -20 1 -38.5t-8 -36.5
q-11 -4 -20.5 -8t-18.5 -12q-4 -61 -2 -122t0 -124q0 -29 1 -58.5t1 -59.5q10 -4 20.5 -7.5t21.5 -9.5q-2 -16 -9 -30t-16 -27t-18 -26.5t-16 -27.5q-32 4 -62 15t-61 21q-3 117 -2 232t-2 232q-23 5 -46 5t-46 -7v-311.5t2 -312.5q2 -16 -9 -28t-27 -12q-51 -3 -101 -12
q-10 32 -8 64t1 65q2 137 0 272.5t0 273.5q-8 1 -12.5 3t-8 4t-8 4t-12.5 4h-10q-3 40 10 75h41q2 16 -0.5 30.5t-7 29t-9.5 29t-7 29.5z" />
    <glyph glyph-name="longs_longs" unicode="&#xeba6;" horiz-adv-x="503" 
d="M360 789q30 -2 59.5 -7t58.5 -11q0 -29 -2 -58.5t-1 -58.5q-18 2 -35 2.5t-34 2.5q13 -18 21 -39.5t8 -44.5q0 -154 0.5 -305.5t-0.5 -305.5q-2 -32 0.5 -63.5t-8.5 -63.5l-64 -8t-65 -6q-8 20 -6 42t2 42q-2 168 -0.5 334t-5.5 334q3 29 -4.5 58t-18.5 56q2 11 11 18.5
t16 15.5q17 16 32.5 34t35.5 32zM109 780q18 5 35.5 5t34.5 -2.5t34.5 -6t35.5 -6.5q1 -31 -2.5 -60.5t-11.5 -58.5q-18 2 -35 4.5t-35 4.5q14 -23 24.5 -49.5t8.5 -55.5q-2 -180 0.5 -358.5t-2.5 -358.5q-34 -7 -69 -10t-70 -5q-5 185 -4 366.5t-1 365.5q-1 35 -6.5 69
t-20.5 66q20 23 42.5 44t41.5 46z" />
    <glyph glyph-name="longs_i" unicode="&#xeba2;" horiz-adv-x="505" 
d="M127 790q31 -2 60.5 -6t59.5 -8q2 -32 -2 -62t-11 -61q-17 2 -34 4.5t-35 4.5q18 -32 22.5 -66.5t5.5 -69.5q-3 -86 -3.5 -171t0.5 -170.5t1.5 -171t-2.5 -170.5q-33 -9 -66.5 -13t-67.5 -6q-5 20 -7 40.5t0 41.5v294q0 20 1 38.5t3 38.5q-4 44 -4.5 88t0 88t0.5 88.5
t-3 89.5q-2 17 -9 32.5t-11 31.5q14 20 30 35.5t32 32.5q9 8 17.5 18t22.5 9zM313 781q35 -4 68 -15.5t66 -23.5q2 -20 -5 -38.5t-12 -38.5q-3 -9 -7 -17t-8 -17q-32 1 -63 11.5t-60 22.5q-11 2 -9.5 12t3.5 18q6 23 13 43.5t14 42.5zM234 496q17 29 34.5 57.5t38.5 54.5
q29 -5 55.5 -13.5t52.5 -17.5q13 -2 12.5 -13t1.5 -20q1 -104 2.5 -207t1.5 -207q11 -4 23.5 -7t23.5 -8q-7 -34 -27.5 -62.5t-38.5 -57.5q-32 9 -61.5 21t-60.5 21q-8 41 -6 82t0 83q-1 69 -1 138t-2 138q-12 3 -24.5 8t-24.5 10z" />
    <glyph glyph-name="longs_t" unicode="&#xfb05;" horiz-adv-x="502" 
d="M115 789q5 6 13 6h15q29 -3 56 -5.5t54 -9.5q0 -29 -2.5 -58.5t-3.5 -58.5q-20 -1 -38.5 0.5t-36.5 2.5q11 -4 19 -38t12.5 -87t6.5 -120t2 -137.5t-1.5 -139t-3 -124.5t-4 -94.5t-3.5 -48.5q0 -4 0.5 -9t-0.5 -10t-3.5 -8.5t-9.5 -3.5q-32 -5 -64.5 -9.5t-64.5 -4.5
q-2 121 -0.5 242t-4.5 243q-1 73 -1 146.5t-2 148.5q2 25 -6.5 47.5t-14.5 45.5q23 20 43 42t43 42zM290 765q33 8 66.5 13t65.5 8q8 -5 8 -13.5t1 -17.5l-2 -80t1 -79q12 -2 24.5 -3.5t24.5 -2.5q-2 -20 -1 -39.5t-9 -35.5q-9 -5 -19 -7.5t-19 -6.5v-183.5t2 -183.5
q11 -4 23 -8t25 -9q-4 -19 -14.5 -35t-21.5 -31q-16 -23 -32 -48q-30 4 -59 16t-58 19q-2 12 -4 24.5t-2 26.5q0 64 -0.5 117.5t-0.5 102.5v96v99q-13 2 -25 4.5t-25 4.5q0 20 1.5 38.5t6.5 38.5q10 1 20.5 2t21.5 2q2 43 -1 85.5t2 85.5z" />
    <glyph glyph-name="space" unicode=" " horiz-adv-x="164" 
 />
    <glyph glyph-name="longs_h" unicode="&#xeba1;" horiz-adv-x="700" 
d="M113 788q30 -2 59.5 -7t58.5 -11q0 -29 -2 -58.5t-1 -58.5q-18 2 -35 2.5t-34 2.5q13 -18 21 -39.5t8 -44.5q0 -154 0.5 -305.5t-0.5 -305.5q-2 -32 0.5 -63.5t-8.5 -63.5l-64 -8t-65 -6q-8 20 -6 42t2 42q-2 168 -0.5 334t-5.5 334q3 29 -4.5 58t-18.5 56q2 11 11 18.5
t16 15.5q17 16 32.5 34t35.5 32zM310 778q23 1 45 7t43 6h9t9 -1q3 -45 3 -89q0 -23 -0.5 -47.5t-0.5 -48.5v-27t1 -27q12 5 22.5 13t20 16.5t19.5 16.5t21 14q21 -3 46 -11t47 -18t37 -20t15 -18v-57v-155v-57q0 -14 -0.5 -29.5t-0.5 -30.5q0 -41 3 -84q11 -5 22 -8t21 -8
q-8 -34 -29 -62t-37 -58q-34 7 -66 20t-63 28v88v242v88q-11 5 -21.5 10.5t-21.5 10.5q-15 -10 -30 -16q-2 -33 -3.5 -65.5t-1.5 -65.5q0 -43 1 -86t1 -86v-32q4 -3 11.5 -5.5t14 -5t11.5 -6t5 -10.5q0 -15 -11 -33.5t-25 -34.5q-16 -19 -36 -38q-19 0 -40 6.5t-39 15.5
t-29.5 19.5t-11.5 18.5v157v281q0 66 -1 129.5t-1 129.5q0 7 4.5 11.5t10.5 6.5t13 3t13 2z" />
    <glyph glyph-name="longs_l" unicode="&#xeba3;" horiz-adv-x="481" 
d="M113 788q30 -2 59.5 -7t58.5 -11q0 -29 -2 -58.5t-1 -58.5q-18 2 -35 2.5t-34 2.5q13 -18 21 -39.5t8 -44.5q0 -154 0.5 -305.5t-0.5 -305.5q-2 -32 0.5 -63.5t-8.5 -63.5l-64 -8t-65 -6q-8 20 -6 42t2 42q-2 168 -0.5 334t-5.5 334q3 29 -4.5 58t-18.5 56q2 11 11 18.5
t16 15.5q17 16 32.5 34t35.5 32zM339 783q10 0 24 3.5t27 3.5q10 0 17 -5t7 -19q0 -53 -1 -106t-1 -107q0 -107 1 -212.5t1 -213.5q11 -3 21.5 -6.5t21.5 -8.5q-1 -17 -7.5 -32t-16 -29t-20 -27.5t-19.5 -26.5q-32 9 -63 17.5t-61 19.5q-2 20 -3.5 38.5t-1.5 38.5q0 23 1 46
t1 47v103q0 219 3 440q0 2 -1 3.5t-1 3.5q0 11 8 16t19 7.5t23 3t21 2.5z" />
    <glyph glyph-name="longs_longs_i" unicode="&#xeba7;" horiz-adv-x="732" 
d="M113 788q30 -2 59.5 -7t58.5 -11q0 -29 -2 -58.5t-1 -58.5q-18 2 -35 2.5t-34 2.5q13 -18 21 -39.5t8 -44.5q0 -154 0.5 -305.5t-0.5 -305.5q-2 -32 0.5 -63.5t-8.5 -63.5l-64 -8t-65 -6q-8 20 -6 42t2 42q-2 168 -0.5 334t-5.5 334q3 29 -4.5 58t-18.5 56q2 11 11 18.5
t16 15.5q17 16 32.5 34t35.5 32zM340 788q30 -2 59.5 -7t58.5 -11q0 -29 -2 -58.5t-1 -58.5q-18 2 -35 2.5t-34 2.5q13 -18 21 -39.5t8 -44.5q0 -154 0.5 -305.5t-0.5 -305.5q-2 -32 0.5 -63.5t-8.5 -63.5l-64 -8t-65 -6q-8 20 -6 42t2 42q-2 168 -0.5 334t-5.5 334
q3 29 -4.5 58t-18.5 56q2 11 11 18.5t16 15.5q17 16 32.5 34t35.5 32zM551 780q35 -5 68 -17.5t65 -23.5q-2 -29 -12 -57t-22 -55q-34 1 -67 14t-65 22q3 19 5.5 32.5t6 25.5t8.5 25.5t13 33.5zM540 606q33 0 63.5 -13.5t62.5 -24.5q5 -17 5 -31v-21v-11v-72
q0 -72 0.5 -144.5t0.5 -144.5v-5q0 -9 6.5 -14t14.5 -8.5t14.5 -6.5t6.5 -8q0 -10 -7.5 -24.5t-18 -30t-22.5 -29.5t-21 -23q-15 1 -29.5 5.5t-28.5 9.5l-28 10t-29 7q-8 21 -8 40v72v134q0 36 2.5 72t2.5 72q0 14 -3 29t-6 29q-13 5 -22.5 14.5t-9.5 21.5q0 9 6 21.5
t15 25.5t18 25.5t15 22.5z" />
    <glyph glyph-name="longs_longs_l" unicode="&#xeba8;" horiz-adv-x="696" 
d="M113 788q30 -2 59.5 -7t58.5 -11q0 -29 -2 -58.5t-1 -58.5q-18 2 -35 2.5t-34 2.5q13 -18 21 -39.5t8 -44.5q0 -154 0.5 -305.5t-0.5 -305.5q-2 -32 0.5 -63.5t-8.5 -63.5l-64 -8t-65 -6q-8 20 -6 42t2 42q-2 168 -0.5 334t-5.5 334q3 29 -4.5 58t-18.5 56q2 11 11 18.5
t16 15.5q17 16 32.5 34t35.5 32zM340 788q30 -2 59.5 -7t58.5 -11q0 -29 -2 -58.5t-1 -58.5q-18 2 -35 2.5t-34 2.5q13 -18 21 -39.5t8 -44.5q0 -154 0.5 -305.5t-0.5 -305.5q-2 -32 0.5 -63.5t-8.5 -63.5l-64 -8t-65 -6q-8 20 -6 42t2 42q-2 168 -0.5 334t-5.5 334
q3 29 -4.5 58t-18.5 56q2 11 11 18.5t16 15.5q17 16 32.5 34t35.5 32zM553 783q10 0 24 3.5t27 3.5q10 0 17 -5t7 -19q0 -53 -1 -106t-1 -107q0 -107 1 -212.5t1 -213.5q11 -3 21.5 -6.5t21.5 -8.5q-1 -17 -7.5 -32t-16 -29t-20 -27.5t-19.5 -26.5q-32 9 -63 17.5t-61 19.5
q-2 20 -3.5 38.5t-1.5 38.5q0 23 1 46t1 47v103q0 219 3 440q0 2 -1 3.5t-1 3.5q0 11 8 16t19 7.5t23 3t21 2.5z" />
    <glyph glyph-name="f_j" unicode="&#xeec9;" horiz-adv-x="520" 
d="M58 735q18 16 33 34t34 31q15 -1 37 -3t41.5 -5.5t33.5 -9.5t14 -15v-3v-9q0 -23 -3 -45t-4 -45q-17 -3 -33 -3t-32 3q6 -17 12.5 -33t11.5 -33q10 0 19 0.5t15.5 -2.5t10 -10.5t3.5 -23.5q0 -13 -2 -25t-5 -25q-11 -1 -20 -1t-18 -2q-1 -57 -1 -112.5v-112.5v-310
q0 -31 1 -66t-10 -62q-34 -3 -67 -9t-67 -6l-2 26t-1 27q0 17 1 34.5t1 35.5q-2 67 -2 133v133v134t2 134q-2 9 -8.5 13t-15 5.5t-17 2t-15.5 3.5q0 22 2.5 42.5t9.5 40.5q11 0 20.5 0.5t20.5 0.5q0 25 -6 49t-15 47q-3 4 -3 9q0 11 8.5 18.5t15.5 14.5zM360 786
q67 -17 135 -39q-6 -29 -15 -58t-20 -58q-35 6 -68.5 17t-66.5 24q4 30 14 58.5t21 55.5zM346 615q33 -6 64.5 -17t61.5 -24q2 -32 2.5 -64t0.5 -65v-123v-48q-1 -39 -1 -78.5v-77.5v-171v-96q-4 -5 -23.5 -9t-43 -6.5t-46 -4t-33.5 -1.5q-1 34 -1 66.5v64.5q0 88 1.5 169
t1.5 162q0 43 -1 87t-2 89q-11 10 -23.5 17.5t-23.5 16.5q14 31 31.5 58.5t34.5 54.5z" />
    <glyph glyph-name="f_f_t" unicode="&#xeece;" horiz-adv-x="771" 
d="M58 735q18 16 33 34t34 31q15 -1 37 -3t41.5 -5.5t33.5 -9.5t14 -15v-3v-9q0 -23 -3 -45t-4 -45q-17 -3 -33 -3t-32 3q6 -17 12.5 -33t11.5 -33q10 0 19 0.5t15.5 -2.5t10 -10.5t3.5 -23.5q0 -13 -2 -25t-5 -25q-11 -1 -20 -1t-18 -2q-1 -57 -1 -112.5v-112.5v-310
q0 -31 1 -66t-10 -62q-34 -3 -67 -9t-67 -6l-2 26t-1 27q0 17 1 34.5t1 35.5q-2 67 -2 133v133v134t2 134q-2 9 -8.5 13t-15 5.5t-17 2t-15.5 3.5q0 22 2.5 42.5t9.5 40.5q11 0 20.5 0.5t20.5 0.5q0 25 -6 49t-15 47q-3 4 -3 9q0 11 8.5 18.5t15.5 14.5zM313 735
q18 16 33 34t34 31q15 -1 37 -3t41.5 -5.5t33.5 -9.5t14 -15v-3v-9q0 -23 -3 -45t-4 -45q-17 -3 -33 -3t-32 3q6 -17 12.5 -33t11.5 -33q10 0 19 0.5t15.5 -2.5t10 -10.5t3.5 -23.5q0 -13 -2 -25t-5 -25q-11 -1 -20 -1t-18 -2q-1 -57 -1 -112.5v-112.5v-310q0 -31 1 -66
t-10 -62q-34 -3 -67 -9t-67 -6l-2 26t-1 27q0 17 1 34.5t1 35.5q-2 67 -2 133v133v134t2 134q-2 9 -8.5 13t-15 5.5t-17 2t-15.5 3.5q0 22 2.5 42.5t9.5 40.5q11 0 20.5 0.5t20.5 0.5q0 25 -6 49t-15 47q-3 4 -3 9q0 11 8.5 18.5t15.5 14.5zM558 747q16 10 34.5 15.5
t37.5 7.5t38.5 2.5t38.5 1.5q1 -18 1 -37v-37v-60v-27.5t2 -27.5q9 1 18.5 2t20.5 2q3 -8 5 -16t2 -17q0 -12 -3.5 -25t-5.5 -27q-10 -2 -19 -2.5t-20 -2.5q2 -91 2 -181.5v-181.5q0 -11 6 -14t13.5 -6t14 -9t6.5 -23q-17 -22 -30 -46.5t-34 -42.5q-32 4 -60 16t-59 20
q-2 43 -2.5 85.5t-0.5 85.5v188v105q-9 1 -18 1.5t-15.5 2.5t-10.5 8t-4 18q0 14 2 29.5t4 30.5q10 0 15 -1t8.5 1t7 7.5t10.5 19.5q-1 32 0 54.5t1 38t-1 25t-5 17.5z" />
    <glyph glyph-name="t_t" unicode="&#xeed9;" horiz-adv-x="534" 
d="M70 747q16 10 34.5 15.5t37.5 7.5t38.5 2.5t38.5 1.5q1 -18 1 -37v-37v-60v-27.5t2 -27.5q9 1 18.5 2t20.5 2q3 -8 5 -16t2 -17q0 -12 -3.5 -25t-5.5 -27q-10 -2 -19 -2.5t-20 -2.5q2 -91 2 -181.5v-181.5q0 -11 6 -14t13.5 -6t14 -9t6.5 -23q-17 -22 -30 -46.5
t-34 -42.5q-32 4 -60 16t-59 20q-2 43 -2.5 85.5t-0.5 85.5v188v105q-9 1 -18 1.5t-15.5 2.5t-10.5 8t-4 18q0 14 2 29.5t4 30.5q10 0 15 -1t8.5 1t7 7.5t10.5 19.5q-1 32 0 54.5t1 38t-1 25t-5 17.5zM319 747q16 10 34.5 15.5t37.5 7.5t38.5 2.5t38.5 1.5q1 -18 1 -37v-37
v-60v-27.5t2 -27.5q9 1 18.5 2t20.5 2q3 -8 5 -16t2 -17q0 -12 -3.5 -25t-5.5 -27q-10 -2 -19 -2.5t-20 -2.5q2 -91 2 -181.5v-181.5q0 -11 6 -14t13.5 -6t14 -9t6.5 -23q-17 -22 -30 -46.5t-34 -42.5q-32 4 -60 16t-59 20q-2 43 -2.5 85.5t-0.5 85.5v188v105q-9 1 -18 1.5
t-15.5 2.5t-10.5 8t-4 18q0 14 2 29.5t4 30.5q10 0 15 -1t8.5 1t7 7.5t10.5 19.5q-1 32 0 54.5t1 38t-1 25t-5 17.5z" />
    <glyph glyph-name="t_z" unicode="&#xe23a;" horiz-adv-x="616" 
d="M70 747q16 10 34.5 15.5t37.5 7.5t38.5 2.5t38.5 1.5q1 -18 1 -37v-37v-60v-27.5t2 -27.5q9 1 18.5 2t20.5 2q3 -8 5 -16t2 -17q0 -12 -3.5 -25t-5.5 -27q-10 -2 -19 -2.5t-20 -2.5q2 -91 2 -181.5v-181.5q0 -11 6 -14t13.5 -6t14 -9t6.5 -23q-17 -22 -30 -46.5
t-34 -42.5q-32 4 -60 16t-59 20q-2 43 -2.5 85.5t-0.5 85.5v188v105q-9 1 -18 1.5t-15.5 2.5t-10.5 8t-4 18q0 14 2 29.5t4 30.5q10 0 15 -1t8.5 1t7 7.5t10.5 19.5q-1 32 0 54.5t1 38t-1 25t-5 17.5zM332 628q63 -1 126 0.5t126 -1.5q11 -17 7 -40.5t-16 -39.5
q-29 -39 -56.5 -80.5t-56.5 -82.5q31 -17 63.5 -28.5t62.5 -27.5v-276q0 -20 -1 -40.5t-8 -40.5q-38 -27 -75 -54t-75 -54q-9 2 -18.5 2.5t-18.5 5.5q-34 18 -67.5 35t-67.5 34q-5 18 -2 36.5t10 36t16.5 34t17.5 32.5q34 -19 67 -41t69 -41q2 61 2 122t-3 122
q-31 16 -64.5 26t-60.5 31q33 47 64 94t64 92q-17 2 -32.5 2.5t-34.5 1t-43.5 2t-59.5 5.5q7 32 19 63t26 60l10 5z" />
    <glyph glyph-name="t_z" unicode="&#xeedc;" horiz-adv-x="616" 
d="M70 747q16 10 34.5 15.5t37.5 7.5t38.5 2.5t38.5 1.5q1 -18 1 -37v-37v-60v-27.5t2 -27.5q9 1 18.5 2t20.5 2q3 -8 5 -16t2 -17q0 -12 -3.5 -25t-5.5 -27q-10 -2 -19 -2.5t-20 -2.5q2 -91 2 -181.5v-181.5q0 -11 6 -14t13.5 -6t14 -9t6.5 -23q-17 -22 -30 -46.5
t-34 -42.5q-32 4 -60 16t-59 20q-2 43 -2.5 85.5t-0.5 85.5v188v105q-9 1 -18 1.5t-15.5 2.5t-10.5 8t-4 18q0 14 2 29.5t4 30.5q10 0 15 -1t8.5 1t7 7.5t10.5 19.5q-1 32 0 54.5t1 38t-1 25t-5 17.5zM332 628q63 -1 126 0.5t126 -1.5q11 -17 7 -40.5t-16 -39.5
q-29 -39 -56.5 -80.5t-56.5 -82.5q31 -17 63.5 -28.5t62.5 -27.5v-276q0 -20 -1 -40.5t-8 -40.5q-38 -27 -75 -54t-75 -54q-9 2 -18.5 2.5t-18.5 5.5q-34 18 -67.5 35t-67.5 34q-5 18 -2 36.5t10 36t16.5 34t17.5 32.5q34 -19 67 -41t69 -41q2 61 2 122t-3 122
q-31 16 -64.5 26t-60.5 31q33 47 64 94t64 92q-17 2 -32.5 2.5t-34.5 1t-43.5 2t-59.5 5.5q7 32 19 63t26 60l10 5z" />
    <glyph glyph-name="l_l" unicode="&#xf4f9;" horiz-adv-x="484" 
d="M99 783q10 0 24 3.5t27 3.5q10 0 17 -5t7 -19q0 -53 -1 -106t-1 -107q0 -107 1 -212.5t1 -213.5q11 -3 21.5 -6.5t21.5 -8.5q-1 -17 -7.5 -32t-16 -29t-20 -27.5t-19.5 -26.5q-32 9 -63 17.5t-61 19.5q-2 20 -3.5 38.5t-1.5 38.5q0 23 1 46t1 47v103q0 219 3 440
q0 2 -1 3.5t-1 3.5q0 11 8 16t19 7.5t23 3t21 2.5zM341 783q10 0 24 3.5t27 3.5q10 0 17 -5t7 -19q0 -53 -1 -106t-1 -107q0 -107 1 -212.5t1 -213.5q11 -3 21.5 -6.5t21.5 -8.5q-1 -17 -7.5 -32t-16 -29t-20 -27.5t-19.5 -26.5q-32 9 -63 17.5t-61 19.5q-2 20 -3.5 38.5
t-1.5 38.5q0 23 1 46t1 47v103q0 219 3 440q0 2 -1 3.5t-1 3.5q0 11 8 16t19 7.5t23 3t21 2.5z" />
    <glyph glyph-name="l_l" unicode="&#xf6c0;" horiz-adv-x="484" 
d="M99 783q10 0 24 3.5t27 3.5q10 0 17 -5t7 -19q0 -53 -1 -106t-1 -107q0 -107 1 -212.5t1 -213.5q11 -3 21.5 -6.5t21.5 -8.5q-1 -17 -7.5 -32t-16 -29t-20 -27.5t-19.5 -26.5q-32 9 -63 17.5t-61 19.5q-2 20 -3.5 38.5t-1.5 38.5q0 23 1 46t1 47v103q0 219 3 440
q0 2 -1 3.5t-1 3.5q0 11 8 16t19 7.5t23 3t21 2.5zM341 783q10 0 24 3.5t27 3.5q10 0 17 -5t7 -19q0 -53 -1 -106t-1 -107q0 -107 1 -212.5t1 -213.5q11 -3 21.5 -6.5t21.5 -8.5q-1 -17 -7.5 -32t-16 -29t-20 -27.5t-19.5 -26.5q-32 9 -63 17.5t-61 19.5q-2 20 -3.5 38.5
t-1.5 38.5q0 23 1 46t1 47v103q0 219 3 440q0 2 -1 3.5t-1 3.5q0 11 8 16t19 7.5t23 3t21 2.5z" />
    <glyph glyph-name="longs_c_h" unicode="&#xf4fa;" horiz-adv-x="907" 
d="M481 733q30 8 70 13t71 10q2 -24 2.5 -60.5t0.5 -73.5t-0.5 -69t0.5 -45q23 13 41 32.5t40 33.5q35 -11 64.5 -22.5t58.5 -20.5q3 -2 6.5 -4t5.5 -7q5 -27 5.5 -54.5t0.5 -56.5v-37t-0.5 -59t-0.5 -69.5v-68t1 -54t3 -27.5q9 -1 21 -4t21 -5q-7 -35 -28 -63t-37 -57
q-29 11 -58.5 18.5t-58.5 17.5q-9 2 -9.5 10.5t-0.5 15.5v191t-3 191q-1 10 -6.5 16t-13.5 10t-17 6t-17 4q-16 -14 -17 -50t0 -89q2 -54 1 -107t2 -106q11 -4 22.5 -7t22.5 -7q-14 -32 -33 -60t-39 -54q-32 9 -62 19t-61 20q-1 106 -1.5 211.5t-2.5 211.5q-20 -6 -33 -9
t-21 -5l-14 -3.5t-13 -3.5q0 -27 -1 -68.5t-1 -85t1.5 -83t6.5 -61.5q17 -9 35 -14t35 -13q-16 -29 -30 -58.5t-30 -58.5q-38 11 -75.5 22.5t-77.5 19.5q-3 10 -5 20t-2 20q-2 106 -2 210.5t-1 209.5q0 13 -0.5 25t4.5 25q41 16 82.5 29.5t82.5 30.5q15 -15 29.5 -30
t30.5 -29q-1 45 -0.5 89t-0.5 88q1 11 0.5 20.5t5.5 18.5zM113 788q30 -2 59.5 -7t58.5 -11q0 -29 -2 -58.5t-1 -58.5q-18 2 -35 2.5t-34 2.5q13 -18 21 -39.5t8 -44.5q0 -154 0.5 -305.5t-0.5 -305.5q-2 -32 0.5 -63.5t-8.5 -63.5l-64 -8t-65 -6q-8 20 -6 42t2 42
q-2 168 -0.5 334t-5.5 334q3 29 -4.5 58t-18.5 56q2 11 11 18.5t16 15.5q17 16 32.5 34t35.5 32z" />
    <glyph glyph-name="longs_j" unicode="&#xf4fb;" horiz-adv-x="492" 
d="M113 788q30 -2 59.5 -7t58.5 -11q0 -29 -2 -58.5t-1 -58.5q-18 2 -35 2.5t-34 2.5q13 -18 21 -39.5t8 -44.5q0 -154 0.5 -305.5t-0.5 -305.5q-2 -32 0.5 -63.5t-8.5 -63.5l-64 -8t-65 -6q-8 20 -6 42t2 42q-2 168 -0.5 334t-5.5 334q3 29 -4.5 58t-18.5 56q2 11 11 18.5
t16 15.5q17 16 32.5 34t35.5 32zM332 786q67 -17 135 -39q-6 -29 -15 -58t-20 -58q-35 6 -68.5 17t-66.5 24q4 30 14 58.5t21 55.5zM318 615q33 -6 64.5 -17t61.5 -24q2 -32 2.5 -64t0.5 -65v-123v-48q-1 -39 -1 -78.5v-77.5v-171v-96q-4 -5 -23.5 -9t-43 -6.5t-46 -4
t-33.5 -1.5q-1 34 -1 66.5v64.5q0 88 1.5 169t1.5 162q0 43 -1 87t-2 89q-11 10 -23.5 17.5t-23.5 16.5q14 31 31.5 58.5t34.5 54.5z" />
    <glyph glyph-name="longs_k" unicode="&#xf4fc;" horiz-adv-x="703" 
d="M113 788q30 -2 59.5 -7t58.5 -11q0 -29 -2 -58.5t-1 -58.5q-18 2 -35 2.5t-34 2.5q13 -18 21 -39.5t8 -44.5q0 -154 0.5 -305.5t-0.5 -305.5q-2 -32 0.5 -63.5t-8.5 -63.5l-64 -8t-65 -6q-8 20 -6 42t2 42q-2 168 -0.5 334t-5.5 334q3 29 -4.5 58t-18.5 56q2 11 11 18.5
t16 15.5q17 16 32.5 34t35.5 32zM269 765q27 7 55.5 11t56.5 4h20q1 -18 1 -36v-36q0 -37 -0.5 -74t-0.5 -74v-23q19 6 37.5 14.5t36.5 17.5l36 18t37 16q5 -1 12.5 -11t16 -25.5t17.5 -35.5t18 -41q20 -48 44 -110q0 -8 -8 -14t-19.5 -11.5l-23 -11t-17.5 -10.5
q9 -51 19.5 -102t19.5 -102q5 -4 13.5 -6.5t17 -5.5t14.5 -7.5t6 -11.5q0 -8 -7.5 -22t-18 -29.5t-21 -30.5l-17.5 -25q-32 11 -64 19t-61 28q-8 60 -18.5 119t-23.5 118q-12 -11 -23 -15.5t-22 -19.5v-25v-39q0 -26 5 -48q12 -7 25 -12t26 -14q-5 -10 -14.5 -28t-20.5 -35
t-22.5 -30t-20.5 -13q-32 0 -62.5 13.5t-62.5 20.5q-1 68 -2 135t-1 135q0 56 1 110t1 109q0 52 -1 103.5t-1 103.5q1 6 1 12t1 12t4 10t11 5zM435 482q-11 -7 -19 -12t-13 -15t-8 -28t-3 -50q0 -23 0.5 -43t2.5 -28q27 9 56.5 27t54.5 29q-6 15 -13.5 33.5t-16 36t-19 31.5
t-22.5 19z" />
    <glyph glyph-name="longs_s" unicode="&#xf4fd;" horiz-adv-x="681" 
d="M113 788q30 -2 59.5 -7t58.5 -11q0 -29 -2 -58.5t-1 -58.5q-18 2 -35 2.5t-34 2.5q13 -18 21 -39.5t8 -44.5q0 -154 0.5 -305.5t-0.5 -305.5q-2 -32 0.5 -63.5t-8.5 -63.5l-64 -8t-65 -6q-8 20 -6 42t2 42q-2 168 -0.5 334t-5.5 334q3 29 -4.5 58t-18.5 56q2 11 11 18.5
t16 15.5q17 16 32.5 34t35.5 32zM278 538q41 24 83.5 43.5t83.5 42.5q51 -15 100 -29t99 -28q-1 -17 -7 -31.5t-14 -28.5t-17 -28t-16 -28q-22 1 -42.5 7.5t-40.5 14.5t-40.5 14.5t-42.5 8.5q-2 -32 -2 -63.5v-63.5l18 -8t18 -7q14 17 27 33t27 33l70 -30t67 -35
q1 -28 2 -55t1 -54q0 -42 -1 -83t-1 -82q-43 -23 -87.5 -44t-89.5 -40q-30 0 -60 10.5t-58 19.5q-27 8 -55 15t-52 24q7 13 18.5 31t23.5 34.5t22.5 28.5t16.5 15q45 -12 88 -30.5t88 -29.5q0 24 0.5 47.5t0.5 47.5q0 9 0.5 20.5t-1.5 21t-8 16t-18 6.5q-9 0 -17 -6.5
t-15.5 -15.5t-14.5 -18t-16 -14q-38 8 -71 27.5t-68 35.5q0 38 -1 76.5t-1 76.5q0 26 0.5 51t2.5 51z" />
    <glyph glyph-name="longs_longs_k" unicode="&#xf4fe;" horiz-adv-x="930" 
d="M113 788q30 -2 59.5 -7t58.5 -11q0 -29 -2 -58.5t-1 -58.5q-18 2 -35 2.5t-34 2.5q13 -18 21 -39.5t8 -44.5q0 -154 0.5 -305.5t-0.5 -305.5q-2 -32 0.5 -63.5t-8.5 -63.5l-64 -8t-65 -6q-8 20 -6 42t2 42q-2 168 -0.5 334t-5.5 334q3 29 -4.5 58t-18.5 56q2 11 11 18.5
t16 15.5q17 16 32.5 34t35.5 32zM340 788q30 -2 59.5 -7t58.5 -11q0 -29 -2 -58.5t-1 -58.5q-18 2 -35 2.5t-34 2.5q13 -18 21 -39.5t8 -44.5q0 -154 0.5 -305.5t-0.5 -305.5q-2 -32 0.5 -63.5t-8.5 -63.5l-64 -8t-65 -6q-8 20 -6 42t2 42q-2 168 -0.5 334t-5.5 334
q3 29 -4.5 58t-18.5 56q2 11 11 18.5t16 15.5q17 16 32.5 34t35.5 32zM496 765q27 7 55.5 11t56.5 4h20q1 -18 1 -36v-36q0 -37 -0.5 -74t-0.5 -74v-23q19 6 37.5 14.5t36.5 17.5l36 18t37 16q5 -1 12.5 -11t16 -25.5t17.5 -35.5t18 -41q20 -48 44 -110q0 -8 -8 -14
t-19.5 -11.5l-23 -11t-17.5 -10.5q9 -51 19.5 -102t19.5 -102q5 -4 13.5 -6.5t17 -5.5t14.5 -7.5t6 -11.5q0 -8 -7.5 -22t-18 -29.5t-21 -30.5l-17.5 -25q-32 11 -64 19t-61 28q-8 60 -18.5 119t-23.5 118q-12 -11 -23 -15.5t-22 -19.5v-25v-39q0 -26 5 -48q12 -7 25 -12
t26 -14q-5 -10 -14.5 -28t-20.5 -35t-22.5 -30t-20.5 -13q-32 0 -62.5 13.5t-62.5 20.5q-1 68 -2 135t-1 135q0 56 1 110t1 109q0 52 -1 103.5t-1 103.5q1 6 1 12t1 12t4 10t11 5zM662 482q-11 -7 -19 -12t-13 -15t-8 -28t-3 -50q0 -23 0.5 -43t2.5 -28q27 9 56.5 27
t54.5 29q-6 15 -13.5 33.5t-16 36t-19 31.5t-22.5 19z" />
    <glyph glyph-name="longs_longs_t" unicode="&#xf4ff;" horiz-adv-x="744" 
d="M113 788q30 -2 59.5 -7t58.5 -11q0 -29 -2 -58.5t-1 -58.5q-18 2 -35 2.5t-34 2.5q13 -18 21 -39.5t8 -44.5q0 -154 0.5 -305.5t-0.5 -305.5q-2 -32 0.5 -63.5t-8.5 -63.5l-64 -8t-65 -6q-8 20 -6 42t2 42q-2 168 -0.5 334t-5.5 334q3 29 -4.5 58t-18.5 56q2 11 11 18.5
t16 15.5q17 16 32.5 34t35.5 32zM340 788q30 -2 59.5 -7t58.5 -11q0 -29 -2 -58.5t-1 -58.5q-18 2 -35 2.5t-34 2.5q13 -18 21 -39.5t8 -44.5q0 -154 0.5 -305.5t-0.5 -305.5q-2 -32 0.5 -63.5t-8.5 -63.5l-64 -8t-65 -6q-8 20 -6 42t2 42q-2 168 -0.5 334t-5.5 334
q3 29 -4.5 58t-18.5 56q2 11 11 18.5t16 15.5q17 16 32.5 34t35.5 32zM524 747q16 10 34.5 15.5t37.5 7.5t38.5 2.5t38.5 1.5q1 -18 1 -37v-37v-60v-27.5t2 -27.5q9 1 18.5 2t20.5 2q3 -8 5 -16t2 -17q0 -12 -3.5 -25t-5.5 -27q-10 -2 -19 -2.5t-20 -2.5q2 -91 2 -181.5
v-181.5q0 -11 6 -14t13.5 -6t14 -9t6.5 -23q-17 -22 -30 -46.5t-34 -42.5q-32 4 -60 16t-59 20q-2 43 -2.5 85.5t-0.5 85.5v188v105q-9 1 -18 1.5t-15.5 2.5t-10.5 8t-4 18q0 14 2 29.5t4 30.5q10 0 15 -1t8.5 1t7 7.5t10.5 19.5q-1 32 0 54.5t1 38t-1 25t-5 17.5z" />
    <glyph glyph-name="ffi" unicode="&#xfb03;" horiz-adv-x="750" 
d="M58 735q18 16 33 34t34 31q15 -1 37 -3t41.5 -5.5t33.5 -9.5t14 -15v-3v-9q0 -23 -3 -45t-4 -45q-17 -3 -33 -3t-32 3q6 -17 12.5 -33t11.5 -33q10 0 19 0.5t15.5 -2.5t10 -10.5t3.5 -23.5q0 -13 -2 -25t-5 -25q-11 -1 -20 -1t-18 -2q-1 -57 -1 -112.5v-112.5v-310
q0 -31 1 -66t-10 -62q-34 -3 -67 -9t-67 -6l-2 26t-1 27q0 17 1 34.5t1 35.5q-2 67 -2 133v133v134t2 134q-2 9 -8.5 13t-15 5.5t-17 2t-15.5 3.5q0 22 2.5 42.5t9.5 40.5q11 0 20.5 0.5t20.5 0.5q0 25 -6 49t-15 47q-3 4 -3 9q0 11 8.5 18.5t15.5 14.5zM313 735
q18 16 33 34t34 31q15 -1 37 -3t41.5 -5.5t33.5 -9.5t14 -15v-3v-9q0 -23 -3 -45t-4 -45q-17 -3 -33 -3t-32 3q6 -17 12.5 -33t11.5 -33q10 0 19 0.5t15.5 -2.5t10 -10.5t3.5 -23.5q0 -13 -2 -25t-5 -25q-11 -1 -20 -1t-18 -2q-1 -57 -1 -112.5v-112.5v-310q0 -31 1 -66
t-10 -62q-34 -3 -67 -9t-67 -6l-2 26t-1 27q0 17 1 34.5t1 35.5q-2 67 -2 133v133v134t2 134q-2 9 -8.5 13t-15 5.5t-17 2t-15.5 3.5q0 22 2.5 42.5t9.5 40.5q11 0 20.5 0.5t20.5 0.5q0 25 -6 49t-15 47q-3 4 -3 9q0 11 8.5 18.5t15.5 14.5zM571 780q35 -5 68 -17.5
t65 -23.5q-2 -29 -12 -57t-22 -55q-34 1 -67 14t-65 22q3 19 5.5 32.5t6 25.5t8.5 25.5t13 33.5zM560 606q33 0 63.5 -13.5t62.5 -24.5q5 -17 5 -31v-21v-11v-72q0 -72 0.5 -144.5t0.5 -144.5v-5q0 -9 6.5 -14t14.5 -8.5t14.5 -6.5t6.5 -8q0 -10 -7.5 -24.5t-18 -30
t-22.5 -29.5t-21 -23q-15 1 -29.5 5.5t-28.5 9.5l-28 10t-29 7q-8 21 -8 40v72v134q0 36 2.5 72t2.5 72q0 14 -3 29t-6 29q-13 5 -22.5 14.5t-9.5 21.5q0 9 6 21.5t15 25.5t18 25.5t15 22.5z" />
    <glyph glyph-name="ffl" unicode="&#xfb04;" horiz-adv-x="752" 
d="M58 735q18 16 33 34t34 31q15 -1 37 -3t41.5 -5.5t33.5 -9.5t14 -15v-3v-9q0 -23 -3 -45t-4 -45q-17 -3 -33 -3t-32 3q6 -17 12.5 -33t11.5 -33q10 0 19 0.5t15.5 -2.5t10 -10.5t3.5 -23.5q0 -13 -2 -25t-5 -25q-11 -1 -20 -1t-18 -2q-1 -57 -1 -112.5v-112.5v-310
q0 -31 1 -66t-10 -62q-34 -3 -67 -9t-67 -6l-2 26t-1 27q0 17 1 34.5t1 35.5q-2 67 -2 133v133v134t2 134q-2 9 -8.5 13t-15 5.5t-17 2t-15.5 3.5q0 22 2.5 42.5t9.5 40.5q11 0 20.5 0.5t20.5 0.5q0 25 -6 49t-15 47q-3 4 -3 9q0 11 8.5 18.5t15.5 14.5zM313 735
q18 16 33 34t34 31q15 -1 37 -3t41.5 -5.5t33.5 -9.5t14 -15v-3v-9q0 -23 -3 -45t-4 -45q-17 -3 -33 -3t-32 3q6 -17 12.5 -33t11.5 -33q10 0 19 0.5t15.5 -2.5t10 -10.5t3.5 -23.5q0 -13 -2 -25t-5 -25q-11 -1 -20 -1t-18 -2q-1 -57 -1 -112.5v-112.5v-310q0 -31 1 -66
t-10 -62q-34 -3 -67 -9t-67 -6l-2 26t-1 27q0 17 1 34.5t1 35.5q-2 67 -2 133v133v134t2 134q-2 9 -8.5 13t-15 5.5t-17 2t-15.5 3.5q0 22 2.5 42.5t9.5 40.5q11 0 20.5 0.5t20.5 0.5q0 25 -6 49t-15 47q-3 4 -3 9q0 11 8.5 18.5t15.5 14.5zM609 783q10 0 24 3.5t27 3.5
q10 0 17 -5t7 -19q0 -53 -1 -106t-1 -107q0 -107 1 -212.5t1 -213.5q11 -3 21.5 -6.5t21.5 -8.5q-1 -17 -7.5 -32t-16 -29t-20 -27.5t-19.5 -26.5q-32 9 -63 17.5t-61 19.5q-2 20 -3.5 38.5t-1.5 38.5q0 23 1 46t1 47v103q0 219 3 440q0 2 -1 3.5t-1 3.5q0 11 8 16t19 7.5
t23 3t21 2.5z" />
    <glyph glyph-name="zero" unicode="0" horiz-adv-x="451" 
d="M160 718q1 11 7.5 18.5t16 12.5t20 8t19.5 6q46 -17 91 -36t90 -37q9 -2 13.5 -7.5t6 -12.5t1.5 -14.5v-13.5q-1 -135 -0.5 -267.5t0.5 -266.5q0 -11 -1 -24t-14 -17q-45 -21 -88.5 -45.5t-88.5 -44.5q-45 9 -86.5 27.5t-84.5 32.5q-5 3 -11 5t-11.5 4.5t-9 6t-2.5 10.5
q-2 134 -2 265.5v265.5q2 17 0 34.5t3 34.5q32 20 65 36t66 34v-15zM179 630l-2 -28l-2 -28q5 -62 3 -123.5t0 -123.5q1 -45 -3 -91t4 -91q23 -14 47 -22.5t49 -17.5q2 113 0.5 225t-0.5 225q-1 10 0.5 23t-9.5 19q-21 9 -42.5 18.5t-44.5 14.5z" />
    <glyph glyph-name="one" unicode="1" horiz-adv-x="288" 
d="M126 738q7 8 13 18t19 12q25 1 50 0.5t50 -2.5q4 -19 4.5 -38.5t0 -39t-2 -39t-0.5 -39.5l-8 -2t-6 -1q2 -2 7.5 -4.5t7.5 -4.5q-2 -146 -1.5 -290t-1.5 -290q-35 -11 -71.5 -17t-73.5 -6q1 9 -0.5 19.5t-2 21t2.5 19t13 14.5l-15 -5q2 136 3 270t-1 270q-5 -5 -10 -11
t-10 -11q-19 -22 -40 -36q-4 7 -10.5 14t-11 15t-6 16t4.5 16q24 33 49.5 64.5t46.5 66.5z" />
    <glyph glyph-name="two" unicode="2" horiz-adv-x="483" 
d="M198 780q15 3 29 -2t27 -12.5t26 -16t27 -13.5q14 -7 31 -14t31.5 -16.5t24.5 -22.5t11 -32q3 -60 1.5 -119.5t-0.5 -119.5q2 -18 -3.5 -35t-20.5 -28q-50 -46 -95.5 -95.5t-93.5 -97.5q-1 -2 -3.5 -7.5t-3.5 -9.5q3 2 8 5t8 4q42 2 83.5 1t83.5 1q7 17 14.5 33.5
t18.5 30.5q14 -5 28.5 -9t26.5 -15q2 -20 -7 -38.5t-18 -36.5q-16 -27 -30 -54t-33 -52q-86 3 -172 1.5t-172 -1.5q2 10 0.5 21.5t5.5 20.5q45 68 89.5 134t90.5 133q11 19 24 39.5t11 45.5v162q1 12 -4 21.5t-13.5 17t-19 13t-19.5 11.5q-12 9 -26 9.5t-28 -1.5
q-10 -11 -19.5 -20t-20.5 -19q-5 0 -12.5 -1t-13.5 -1q-9 11 -17.5 23.5t-16.5 23.5q38 37 79 71t83 67z" />
    <glyph glyph-name="three" unicode="3" horiz-adv-x="462" 
d="M118 747q6 14 20 16.5t28 4.5q66 -2 130 -1t128 1q13 -7 12 -23t-3 -28q-17 -36 -39 -69t-42 -68q-5 -7 -9.5 -14.5t-9.5 -15.5q-8 -11 -16 -23t-16 -25q15 -11 31.5 -18l33 -14t32 -15t29.5 -20q11 -24 10 -49t-1 -50q-2 -35 -0.5 -70.5t-6.5 -69.5q10 -23 8 -47t-7 -47
q-51 -27 -98.5 -59.5t-99.5 -56.5q-50 20 -98 43.5t-97 45.5q-7 1 -9.5 5.5t-2.5 10t2 11t4 10.5q15 25 29.5 49.5t30.5 49.5q45 -23 87 -46.5t87 -44.5q7 -2 11 1t5.5 9t1.5 12.5v11.5q-1 45 0.5 87.5t-0.5 86.5q-5 14 -15.5 21.5t-24 13t-27 10.5t-23.5 14q-2 0 -6 -1
t-7 -1l-2 12q-3 -1 -8.5 -2t-10.5 -1q1 11 0 21t6 18q30 49 62.5 95.5t61.5 96.5q-17 8 -35.5 10t-38 1.5t-39 -2t-38.5 -0.5q-8 -16 -17.5 -31.5t-20.5 -29.5q-9 -5 -18 -3t-17 7t-15 12t-14 12q19 38 40.5 74t41.5 72z" />
    <glyph glyph-name="four" unicode="4" horiz-adv-x="510" 
d="M275 769q13 6 27.5 7.5t29.5 0t29.5 -3.5t28.5 -2q4 -119 3.5 -236t-1.5 -235q23 1 45 1.5t45 -1.5q3 -16 1.5 -31.5t-5.5 -31t-9.5 -30.5t-10.5 -30h-29.5t-30.5 1q-9 -41 -5.5 -83.5t-2.5 -85.5q-34 -4 -66.5 -11.5t-66.5 -9.5q0 26 -6 50.5t1 49.5q4 20 3 41.5t0 41.5
q-16 3 -31.5 4.5t-29.5 -0.5q-42 2 -83.5 1t-83.5 2q0 22 -1 43t4 43q61 128 121.5 254t123.5 251zM203 465q-2 0 -7.5 -1t-9.5 -1l15 -1q-20 -41 -38.5 -81t-37.5 -81h63t63 1q5 69 2 137.5t4 137.5q-16 -26 -28 -54.5t-26 -56.5z" />
    <glyph glyph-name="five" unicode="5" horiz-adv-x="449" 
d="M76 753q23 7 45.5 6.5t45.5 -0.5q61 1 122.5 3t122.5 -3q-9 -33 -18 -66.5t-20 -65.5q-55 -4 -109 -2.5t-108 -2.5q-4 0 -8 -1.5t-6 -2.5q-8 -25 -9 -51.5t0 -52.5q54 -1 105.5 1.5t104.5 -2.5q20 -15 39 -31t36 -35q6 -20 4.5 -40.5t-1.5 -40.5q-2 -69 0.5 -137.5
t-3.5 -137.5q-44 -32 -92.5 -57.5t-93.5 -57.5q-53 21 -103 50t-104 50q-2 12 2.5 22t10.5 19.5t13 18.5t12 18q9 13 15.5 27t20.5 21q21 -9 40.5 -20t38.5 -22q0 -5 1 -11t1 -10l3.5 7l3.5 7q23 -11 43.5 -24t42.5 -24q2 66 1.5 131t-1.5 131q-26 5 -52 5.5t-51.5 -0.5
t-51.5 -2.5t-52 0.5q-11 5 -10 15t1 18q3 88 8.5 175t9.5 175z" />
    <glyph glyph-name="six" unicode="6" horiz-adv-x="444" 
d="M223 768q51 -16 98.5 -37.5t96.5 -40.5q-11 -31 -31.5 -57t-42.5 -51q-1 -2 -4.5 -2h-5.5q-41 13 -79 32.5t-80 30.5q1 -53 -0.5 -106t1.5 -107q22 24 45 45.5t47 43.5q38 -16 75 -33t75 -35v-70q-2 0 -7 -1t-7 -1q7 -2 10.5 -6.5t4 -11t0 -13t-0.5 -12.5v-110t1 -109
v-13.5t-1.5 -14.5t-5 -12t-11.5 -8q-42 -20 -81 -44.5t-82 -44.5q-50 11 -95.5 33.5t-93.5 38.5q-10 2 -14.5 8t-6.5 14t-2 17v17q0 52 -1 104t3 104q-2 81 -2.5 162t0.5 162q11 16 27 24.5t30 17.5q35 22 68.5 45.5t71.5 40.5zM221 382q-14 -5 -24.5 -16.5t-21.5 -22.5
q0 -48 -1 -95.5t2 -96.5q23 -14 47 -22.5t48 -19.5q2 60 1.5 118.5t-0.5 118.5q1 10 -4 16.5t-13 10.5t-17.5 6t-16.5 3z" />
    <glyph glyph-name="seven" unicode="7" horiz-adv-x="454" 
d="M78 750q88 1 175.5 1.5t175.5 -1.5q-11 -60 -29 -117t-33 -117q-14 -63 -32 -123.5t-35 -122.5q-18 -66 -35 -131.5t-39 -129.5q-37 -11 -76 -14.5t-77 -8.5q-3 29 7.5 56.5t18.5 54.5q18 60 36.5 119.5t38.5 119.5q1 13 13 21q-3 3 -9 3q22 64 43 127t38 129h-76.5
t-77.5 -1q-6 -16 -11.5 -32t-12.5 -33q-14 0 -28 3t-26 8q-3 13 -1.5 25.5t5.5 25l8 25t7 24.5q9 22 13 45.5t19 43.5z" />
    <glyph glyph-name="eight" unicode="8" horiz-adv-x="449" 
d="M215 762q9 5 18.5 0.5t17.5 -6.5q42 -18 82.5 -37t81.5 -38q3 -54 1 -107.5t0 -107.5q-21 -16 -44.5 -27t-45.5 -25q23 -15 46.5 -26.5t45.5 -26.5q7 -9 5.5 -20.5t0.5 -22.5q-2 -36 -1.5 -72t-1.5 -72q-1 -12 0 -25l2 -26t0 -26t-5 -25q-15 -11 -32.5 -19t-33.5 -17
q-31 -15 -60 -33t-62 -29q-38 13 -73 32.5t-72 32.5q-9 4 -19.5 7.5t-20 8.5t-15.5 12.5t-4 19.5q0 59 -1 117t3 117q17 16 38.5 23t40.5 17q2 -3 2.5 -8t2.5 -8q0 5 0.5 14.5t0.5 15.5q-10 5 -20.5 11t-21.5 11l3 12q-5 -1 -12 -3.5t-10 -3.5v13q-4 0 -10 1t-10 1
q-2 64 -3 128t5 128q46 22 90.5 44.5t90.5 44.5zM178 643q-2 -37 -3 -74t4 -74q20 -11 41.5 -21t41.5 -21q8 11 9 24t0.5 26.5t0 27t8.5 24.5l3 3q0 2 -1.5 5t-3.5 5q0 4 -0.5 8.5t-0.5 6.5q1 4 4 8.5t5 6.5l-3 12q-4 -1 -8 -2.5t-7 -1.5q-24 5 -45.5 17t-44.5 20zM173 318
q-1 -43 -2.5 -85.5t5.5 -84.5q24 -14 49 -26t50 -25q2 42 2 82.5t-2 81.5q2 10 -2.5 17t-11.5 12t-15.5 8.5t-15.5 8.5q-6 3 -13.5 8t-15 8t-15 2.5t-13.5 -7.5z" />
    <glyph glyph-name="nine" unicode="9" horiz-adv-x="447" 
d="M163 739q15 8 31.5 17t34.5 1q45 -17 88 -34.5t88 -34.5q14 -2 14.5 -14.5t1.5 -22.5v-438q-1 -33 0.5 -65.5t-3.5 -65.5q-19 -17 -42 -28.5t-46 -25.5q-24 -12 -48 -26t-50 -25q-52 18 -104 38.5t-103 44.5q5 30 24.5 54.5t35.5 50.5q5 9 14.5 9t17.5 -5
q39 -18 78.5 -35.5t78.5 -33.5q0 50 0.5 100t-1.5 101q-20 -16 -39.5 -33.5t-37.5 -35.5q-12 0 -24 1t-22 8q-29 15 -59.5 28t-60.5 28q-2 91 -1 182t1 184q32 21 66.5 38t66.5 38zM175 631v-88q-2 0 -7.5 -1t-8.5 -2l16 1v-28l-16 1q3 -1 8 -1t8 -2q-1 -30 -0.5 -60.5
t0.5 -62.5q14 -9 28.5 -17t31.5 -13q13 7 22.5 18.5t16.5 23.5q2 45 1 88t-1 88q2 10 -6 14.5t-15 7.5q-19 9 -37.5 19.5t-40.5 13.5z" />
    <glyph glyph-name="exclam" unicode="!" 
d="M169 -5q-35 5 -68 17.5t-65 23.5q2 29 12 57t22 55q34 -1 67 -14t65 -22q-3 -19 -5.5 -32.5t-6 -25.5t-8.5 -25.5t-13 -33.5zM146 180q-17 0 -27.5 2t-19.5 6t-19 9t-26 10q-5 17 -5 31v21v11v72q0 72 -0.5 144.5t-0.5 144.5v5q0 9 -6.5 14t-14.5 8.5t-14.5 6.5t-6.5 8
q0 10 7.5 24.5t18 30t22.5 29.5t21 23q15 -1 29.5 -5.5t28.5 -9.5l28 -10t29 -7q8 -21 8 -40v-72v-134q0 -11 0.5 -31t0.5 -44t0.5 -50t0.5 -47.5v-36.5v-18q0 -9 -6 -21.5t-15 -25.5t-18 -25.5t-15 -22.5z" />
    <glyph glyph-name="period" unicode="." 
d="M169 -5q-35 5 -68 17.5t-65 23.5q2 29 12 57t22 55q34 -1 67 -14t65 -22q-3 -19 -5.5 -32.5t-6 -25.5t-8.5 -25.5t-13 -33.5z" />
    <glyph glyph-name="colon" unicode=":" 
d="M177 340q-35 5 -68 17.5t-65 23.5q2 29 12 57t22 55q34 -1 67 -14t65 -22q-3 -19 -5.5 -32.5t-6 -25.5t-8.5 -25.5t-13 -33.5zM169 -5q-35 5 -68 17.5t-65 23.5q2 29 12 57t22 55q34 -1 67 -14t65 -22q-3 -19 -5.5 -32.5t-6 -25.5t-8.5 -25.5t-13 -33.5z" />
    <glyph glyph-name="comma" unicode="," horiz-adv-x="216" 
d="M84 127q29 -6 57 -16.5t54 -22.5q6 -38 2.5 -76t-12 -70.5t-19 -58.5t-17.5 -40q-4 -5 -13.5 -7.5t-21.5 -3.5t-25 -1.5t-22 -0.5q-1 41 -1 61.5t0.5 28.5t1.5 9t1.5 5t0.5 15t-2 39q-10 10 -21 17t-21 15q12 29 28 55t30 52z" />
    <glyph glyph-name="semicolon" unicode=";" horiz-adv-x="216" 
d="M84 127q29 -6 57 -16.5t54 -22.5q6 -38 2.5 -76t-12 -70.5t-19 -58.5t-17.5 -40q-4 -5 -13.5 -7.5t-21.5 -3.5t-25 -1.5t-22 -0.5q-1 41 -1 61.5t0.5 28.5t1.5 9t1.5 5t0.5 15t-2 39q-10 10 -21 17t-21 15q12 29 28 55t30 52zM177 218q-35 5 -68 17.5t-65 23.5
q2 29 12 57t22 55q34 -1 67 -14t65 -22q-3 -19 -5.5 -32.5t-6 -25.5t-8.5 -25.5t-13 -33.5z" />
    <glyph glyph-name="grave" unicode="`" 
d="M180 609q-17 2 -46 15.5t-60.5 29.5t-60 30.5t-44.5 20.5q1 15 4 25.5t7.5 20t10 19.5t11.5 24q17 0 46 -13t60 -28.5t59.5 -30.5t44.5 -19q-3 -19 -5 -28.5t-5.5 -17.5t-8.5 -18t-13 -30z" />
    <glyph glyph-name="agrave" unicode="&#xe0;" horiz-adv-x="441" 
d="M32 524q45 23 88.5 45.5t90.5 40.5q44 -13 86 -30t85 -32q16 -3 19 -17.5t3 -28.5q-2 -70 -4 -139.5t-2 -141.5v-41t2 -43q0 -9 7 -13.5t15.5 -8t15.5 -7.5t7 -11q0 -4 -8.5 -20t-19.5 -33.5t-22.5 -31.5t-18.5 -14q-19 0 -38.5 4.5t-37 13t-31 20t-19.5 26.5
q-36 -32 -72 -66q-33 12 -62 22q-25 8 -48.5 16t-33.5 12q-5 27 -6.5 54t-1.5 55q0 41 1 82t1 83q0 24 -1 48.5t-1 49.5q0 52 6 106zM176 466v-47q0 -46 -1.5 -91t-1.5 -92q0 -20 1 -39.5t2 -39.5q0 -2 -0.5 -3.5t-0.5 -2.5q0 -6 5 -11t12 -8.5t13.5 -5.5t8.5 -2
q16 0 26.5 16.5t10.5 31.5v4q0 40 1 79t1 79q0 29 -1 59t-2 59q-13 7 -26 12t-25 11q-5 -2 -11.5 -5t-11.5 -4zM314 609q-17 2 -46 15.5t-60.5 29.5t-60 30.5t-44.5 20.5q1 15 4 25.5t7.5 20t10 19.5t11.5 24q17 0 46 -13t60 -28.5t59.5 -30.5t44.5 -19q-3 -19 -5 -28.5
t-5.5 -17.5t-8.5 -18t-13 -30z" />
    <glyph glyph-name="acute" unicode="&#xb4;" 
d="M41 609q-8 20 -13 30t-8.5 18t-5.5 17.5t-5 28.5q16 4 44.5 19t59.5 30.5t60 28.5t46 13q6 -14 11.5 -24t10 -19.5t7.5 -20t4 -25.5q-16 -6 -44.5 -20.5t-60 -30.5t-60.5 -29.5t-46 -15.5z" />
    <glyph glyph-name="aacute" unicode="&#xe1;" horiz-adv-x="441" 
d="M32 524q45 23 88.5 45.5t90.5 40.5q44 -13 86 -30t85 -32q16 -3 19 -17.5t3 -28.5q-2 -70 -4 -139.5t-2 -141.5v-41t2 -43q0 -9 7 -13.5t15.5 -8t15.5 -7.5t7 -11q0 -4 -8.5 -20t-19.5 -33.5t-22.5 -31.5t-18.5 -14q-19 0 -38.5 4.5t-37 13t-31 20t-19.5 26.5
q-36 -32 -72 -66q-33 12 -62 22q-25 8 -48.5 16t-33.5 12q-5 27 -6.5 54t-1.5 55q0 41 1 82t1 83q0 24 -1 48.5t-1 49.5q0 52 6 106zM176 466v-47q0 -46 -1.5 -91t-1.5 -92q0 -20 1 -39.5t2 -39.5q0 -2 -0.5 -3.5t-0.5 -2.5q0 -6 5 -11t12 -8.5t13.5 -5.5t8.5 -2
q16 0 26.5 16.5t10.5 31.5v4q0 40 1 79t1 79q0 29 -1 59t-2 59q-13 7 -26 12t-25 11q-5 -2 -11.5 -5t-11.5 -4zM131 609q-8 20 -13 30t-8.5 18t-5.5 17.5t-5 28.5q16 4 44.5 19t59.5 30.5t60 28.5t46 13q6 -14 11.5 -24t10 -19.5t7.5 -20t4 -25.5q-16 -6 -44.5 -20.5
t-60 -30.5t-60.5 -29.5t-46 -15.5z" />
    <glyph glyph-name="egrave" unicode="&#xe8;" horiz-adv-x="412" 
d="M25 538q47 20 92.5 45t93.5 39q43 -16 84.5 -34.5t82.5 -38.5q5 -22 7 -54t2 -66q0 -32 -1 -61.5t-2 -49.5q-4 -10 -27.5 -23.5t-54.5 -27.5t-64.5 -28t-57.5 -25q-4 -10 -4.5 -22t-0.5 -23q30 -13 56.5 -20.5t51 -13.5t49 -11.5t50.5 -14.5q-16 -32 -34.5 -60.5
t-43.5 -51.5q-17 1 -56 11t-82.5 23t-83 25.5t-57.5 19.5v462zM184 495q-2 -2 -6.5 -6t-6.5 -6v-45v-80v-37t1 -36q17 7 34 13t29 18q2 11 2 22.5v22.5q0 23 -1 45t-1 45q0 10 -5 16.5t-13 11.5t-17 8.5t-16 7.5zM295 609q-17 2 -46 15.5t-60.5 29.5t-60 30.5t-44.5 20.5
q1 15 4 25.5t7.5 20t10 19.5t11.5 24q17 0 46 -13t60 -28.5t59.5 -30.5t44.5 -19q-3 -19 -5 -28.5t-5.5 -17.5t-8.5 -18t-13 -30z" />
    <glyph glyph-name="eacute" unicode="&#xe9;" horiz-adv-x="412" 
d="M25 538q47 20 92.5 45t93.5 39q43 -16 84.5 -34.5t82.5 -38.5q5 -22 7 -54t2 -66q0 -32 -1 -61.5t-2 -49.5q-4 -10 -27.5 -23.5t-54.5 -27.5t-64.5 -28t-57.5 -25q-4 -10 -4.5 -22t-0.5 -23q30 -13 56.5 -20.5t51 -13.5t49 -11.5t50.5 -14.5q-16 -32 -34.5 -60.5
t-43.5 -51.5q-17 1 -56 11t-82.5 23t-83 25.5t-57.5 19.5v462zM184 495q-2 -2 -6.5 -6t-6.5 -6v-45v-80v-37t1 -36q17 7 34 13t29 18q2 11 2 22.5v22.5q0 23 -1 45t-1 45q0 10 -5 16.5t-13 11.5t-17 8.5t-16 7.5zM116 609q-8 20 -13 30t-8.5 18t-5.5 17.5t-5 28.5
q16 4 44.5 19t59.5 30.5t60 28.5t46 13q6 -14 11.5 -24t10 -19.5t7.5 -20t4 -25.5q-16 -6 -44.5 -20.5t-60 -30.5t-60.5 -29.5t-46 -15.5z" />
    <glyph glyph-name="dotlessi" unicode="&#x131;" 
d="M60 606q33 0 63.5 -13.5t62.5 -24.5q5 -17 5 -31v-21v-11v-72q0 -72 0.5 -144.5t0.5 -144.5v-5q0 -9 6.5 -14t14.5 -8.5t14.5 -6.5t6.5 -8q0 -10 -7.5 -24.5t-18 -30t-22.5 -29.5t-21 -23q-15 1 -29.5 5.5t-28.5 9.5l-28 10t-29 7q-8 21 -8 40v72v134q0 36 2.5 72t2.5 72
q0 14 -3 29t-6 29q-13 5 -22.5 14.5t-9.5 21.5q0 9 6 21.5t15 25.5t18 25.5t15 22.5z" />
    <glyph glyph-name="igrave" unicode="&#xec;" 
d="M60 606q33 0 63.5 -13.5t62.5 -24.5q5 -17 5 -31v-21v-11v-72q0 -72 0.5 -144.5t0.5 -144.5v-5q0 -9 6.5 -14t14.5 -8.5t14.5 -6.5t6.5 -8q0 -10 -7.5 -24.5t-18 -30t-22.5 -29.5t-21 -23q-15 1 -29.5 5.5t-28.5 9.5l-28 10t-29 7q-8 21 -8 40v72v134q0 36 2.5 72t2.5 72
q0 14 -3 29t-6 29q-13 5 -22.5 14.5t-9.5 21.5q0 9 6 21.5t15 25.5t18 25.5t15 22.5zM207 609q-17 2 -46 15.5t-60.5 29.5t-60 30.5t-44.5 20.5q1 15 4 25.5t7.5 20t10 19.5t11.5 24q17 0 46 -13t60 -28.5t59.5 -30.5t44.5 -19q-3 -19 -5 -28.5t-5.5 -17.5t-8.5 -18t-13 -30
z" />
    <glyph glyph-name="iacute" unicode="&#xed;" 
d="M60 606q33 0 63.5 -13.5t62.5 -24.5q5 -17 5 -31v-21v-11v-72q0 -72 0.5 -144.5t0.5 -144.5v-5q0 -9 6.5 -14t14.5 -8.5t14.5 -6.5t6.5 -8q0 -10 -7.5 -24.5t-18 -30t-22.5 -29.5t-21 -23q-15 1 -29.5 5.5t-28.5 9.5l-28 10t-29 7q-8 21 -8 40v72v134q0 36 2.5 72t2.5 72
q0 14 -3 29t-6 29q-13 5 -22.5 14.5t-9.5 21.5q0 9 6 21.5t15 25.5t18 25.5t15 22.5zM29 609q-8 20 -13 30t-8.5 18t-5.5 17.5t-5 28.5q16 4 44.5 19t59.5 30.5t60 28.5t46 13q6 -14 11.5 -24t10 -19.5t7.5 -20t4 -25.5q-16 -6 -44.5 -20.5t-60 -30.5t-60.5 -29.5t-46 -15.5
z" />
    <glyph glyph-name="yacute" unicode="&#xfd;" horiz-adv-x="447" 
d="M285 616q35 -14 70.5 -27t67.5 -31q-1 -138 -0.5 -274t-0.5 -274q-36 -46 -73 -91t-73 -92q-46 -1 -91 3.5t-92 4.5q-11 2 -23 1t-20 9q8 31 21 59t27 57q28 5 56.5 1.5t57.5 -4.5q8 0 16.5 -1.5t16.5 -2t16 1.5t14 8q1 77 2 153t-1 153q-1 48 0 95t-6 95q-3 8 -8.5 11.5
t-13 5t-15.5 1.5h-15q-6 -10 -11.5 -20.5t-11.5 -21.5q-2 -34 -2.5 -72t0 -77t2 -78t2.5 -73q11 -5 23 -9.5t25 -9.5q0 -18 -12 -33q-15 -22 -28.5 -44.5t-31.5 -42.5q-31 11 -61 21t-61 21q-3 109 -2 218.5t1 219.5q-11 8 -23.5 15t-23.5 16q11 27 28 52t37 49
q16 1 31.5 -2t31 -8t31 -11t30.5 -9q5 -17 6 -32l20 8q16 17 32.5 32t34.5 29zM134 609q-8 20 -13 30t-8.5 18t-5.5 17.5t-5 28.5q16 4 44.5 19t59.5 30.5t60 28.5t46 13q6 -14 11.5 -24t10 -19.5t7.5 -20t4 -25.5q-16 -6 -44.5 -20.5t-60 -30.5t-60.5 -29.5t-46 -15.5z" />
    <glyph glyph-name="ugrave" unicode="&#xf9;" horiz-adv-x="465" 
d="M65 611q33 -5 63 -16.5t59 -24.5q2 -7 2 -38v-75t-0.5 -94.5t-0.5 -96.5t1.5 -82t4.5 -49q2 -11 10.5 -13t15.5 1q14 6 28.5 12t17.5 23q4 78 2 156t-2 156q-11 8 -25 13.5t-20 19.5q9 27 26 50.5t31 49.5q73 5 135 -34q7 -38 4 -76.5t-1 -78.5q5 -69 1.5 -138t0.5 -139
q8 -13 22.5 -16t25.5 -10q-9 -28 -26 -52.5t-34 -49.5q-5 -10 -14.5 -8t-18.5 4q-24 7 -47.5 14.5t-47.5 15.5q-1 5 -4 14t-5 14q-21 -14 -39.5 -32t-41.5 -32q-35 7 -67.5 22.5t-67.5 23.5q-9 33 -7.5 66.5t0.5 65.5q0 72 -1 144t-1 144q-9 7 -18.5 13.5t-20.5 12.5
q1 17 7 32.5t15 30.5t19 29t19 28zM322 609q-17 2 -46 15.5t-60.5 29.5t-60 30.5t-44.5 20.5q1 15 4 25.5t7.5 20t10 19.5t11.5 24q17 0 46 -13t60 -28.5t59.5 -30.5t44.5 -19q-3 -19 -5 -28.5t-5.5 -17.5t-8.5 -18t-13 -30z" />
    <glyph glyph-name="uacute" unicode="&#xfa;" horiz-adv-x="465" 
d="M65 611q33 -5 63 -16.5t59 -24.5q2 -7 2 -38v-75t-0.5 -94.5t-0.5 -96.5t1.5 -82t4.5 -49q2 -11 10.5 -13t15.5 1q14 6 28.5 12t17.5 23q4 78 2 156t-2 156q-11 8 -25 13.5t-20 19.5q9 27 26 50.5t31 49.5q73 5 135 -34q7 -38 4 -76.5t-1 -78.5q5 -69 1.5 -138t0.5 -139
q8 -13 22.5 -16t25.5 -10q-9 -28 -26 -52.5t-34 -49.5q-5 -10 -14.5 -8t-18.5 4q-24 7 -47.5 14.5t-47.5 15.5q-1 5 -4 14t-5 14q-21 -14 -39.5 -32t-41.5 -32q-35 7 -67.5 22.5t-67.5 23.5q-9 33 -7.5 66.5t0.5 65.5q0 72 -1 144t-1 144q-9 7 -18.5 13.5t-20.5 12.5
q1 17 7 32.5t15 30.5t19 29t19 28zM143 609q-8 20 -13 30t-8.5 18t-5.5 17.5t-5 28.5q16 4 44.5 19t59.5 30.5t60 28.5t46 13q6 -14 11.5 -24t10 -19.5t7.5 -20t4 -25.5q-16 -6 -44.5 -20.5t-60 -30.5t-60.5 -29.5t-46 -15.5z" />
    <glyph glyph-name="ograve" unicode="&#xf2;" horiz-adv-x="424" 
d="M169 602q11 5 22 9.5t23 4.5q4 0 8 -1t9 -2q43 -15 84.5 -31.5t83.5 -34.5v-137v-165.5t-2 -164.5l-82 -42t-86 -39q-8 -4 -16 -4q-12 0 -35 8t-49 18.5t-53.5 22t-48.5 18.5q-2 45 -2 87.5v86.5v191v106q35 20 71.5 35.5t72.5 33.5zM177 485q-2 -43 -2 -84.5v-84.5v-168
q20 -8 38.5 -15t38.5 -12v173.5t1 163.5q-14 8 -31 19t-35 11q-6 0 -10 -3zM301 609q-17 2 -46 15.5t-60.5 29.5t-60 30.5t-44.5 20.5q1 15 4 25.5t7.5 20t10 19.5t11.5 24q17 0 46 -13t60 -28.5t59.5 -30.5t44.5 -19q-3 -19 -5 -28.5t-5.5 -17.5t-8.5 -18t-13 -30z" />
    <glyph glyph-name="oacute" unicode="&#xf3;" horiz-adv-x="424" 
d="M169 602q11 5 22 9.5t23 4.5q4 0 8 -1t9 -2q43 -15 84.5 -31.5t83.5 -34.5v-137v-165.5t-2 -164.5l-82 -42t-86 -39q-8 -4 -16 -4q-12 0 -35 8t-49 18.5t-53.5 22t-48.5 18.5q-2 45 -2 87.5v86.5v191v106q35 20 71.5 35.5t72.5 33.5zM177 485q-2 -43 -2 -84.5v-84.5v-168
q20 -8 38.5 -15t38.5 -12v173.5t1 163.5q-14 8 -31 19t-35 11q-6 0 -10 -3zM122 609q-8 20 -13 30t-8.5 18t-5.5 17.5t-5 28.5q16 4 44.5 19t59.5 30.5t60 28.5t46 13q6 -14 11.5 -24t10 -19.5t7.5 -20t4 -25.5q-16 -6 -44.5 -20.5t-60 -30.5t-60.5 -29.5t-46 -15.5z" />
    <glyph glyph-name="ae" unicode="&#xe6;" horiz-adv-x="623" 
d="M191 -3q-43 16 -84.5 34.5t-82.5 38.5q-5 22 -7 54t-2 66q0 32 1 61.5t2 49.5q4 10 27.5 23.5t54.5 27.5t64.5 28t57.5 25q4 10 4.5 22t0.5 23q-30 13 -56.5 20.5t-51 13.5t-49 11.5t-50.5 14.5q16 32 34.5 60.5t43.5 51.5q12 -1 34.5 -6t50 -12.5t58 -16.5t58.5 -18
q29 15 59 29t62 24q43 -16 84.5 -34.5t82.5 -38.5q5 -22 7 -54t2 -66q0 -32 -1 -61.5t-2 -49.5q-4 -10 -27.5 -23.5t-54.5 -27.5t-64.5 -28t-57.5 -25q-4 -10 -4.5 -22t-0.5 -23q30 -13 56.5 -20.5t51 -13.5t49 -11.5t50.5 -14.5q-16 -32 -34.5 -60.5t-43.5 -51.5
q-12 1 -34.5 6t-50.5 12.5t-58.5 16.5t-57.5 18q-30 -15 -60 -29.5t-61 -23.5zM218 124l13 12v125v37t-1 36q-17 -7 -34 -13t-29 -18q-2 -11 -2 -22.5v-22.5q0 -23 1 -45t1 -45q0 -10 5 -16.5t13 -11.5t16.5 -8.5t16.5 -7.5zM393 495l-13 -12v-125v-37t1 -36q17 7 34 13
t29 18q2 11 2 22.5v22.5q0 23 -1 45t-1 45q0 10 -5 16.5t-13 11.5t-17 8.5t-16 7.5z" />
    <glyph glyph-name="hyphen" unicode="-" horiz-adv-x="405" 
d="M367 333q-76 -6 -155.5 -4t-157.5 4q-15 29 -12 59t10 60q74 9 147.5 8t161.5 -3q7 -20 11 -33.5t4 -26.5t-2.5 -27.5t-6.5 -36.5z" />
    <glyph glyph-name="quotesinglbase" unicode="&#x201a;" horiz-adv-x="216" 
d="M84 127q29 -6 57 -16.5t54 -22.5q6 -38 2.5 -76t-12 -70.5t-19 -58.5t-17.5 -40q-4 -5 -13.5 -7.5t-21.5 -3.5t-25 -1.5t-22 -0.5q-1 41 -1 61.5t0.5 28.5t1.5 9t1.5 5t0.5 15t-2 39q-10 10 -21 17t-21 15q12 29 28 55t30 52z" />
    <glyph glyph-name="quotedblbase" unicode="&#x201e;" horiz-adv-x="409" 
d="M278 127q29 -6 57 -16.5t54 -22.5q6 -38 2.5 -76t-12 -70.5t-19 -58.5t-17.5 -40q-4 -5 -13.5 -7.5t-21.5 -3.5t-25 -1.5t-22 -0.5q-1 41 -1 61.5t0.5 28.5t1.5 9t1.5 5t0.5 15t-2 39q-10 10 -21 17t-21 15q12 29 28 55t30 52zM84 127q29 -6 57 -16.5t54 -22.5
q6 -38 2.5 -76t-12 -70.5t-19 -58.5t-17.5 -40q-4 -5 -13.5 -7.5t-21.5 -3.5t-25 -1.5t-22 -0.5q-1 41 -1 61.5t0.5 28.5t1.5 9t1.5 5t0.5 15t-2 39q-10 10 -21 17t-21 15q12 29 28 55t30 52z" />
    <glyph glyph-name="quotedblright" unicode="&#x201d;" horiz-adv-x="409" 
d="M278 790q29 -6 57 -16.5t54 -22.5q6 -38 2.5 -76t-12 -70.5t-19 -58.5t-17.5 -40q-4 -5 -13.5 -7.5t-21.5 -3.5t-25 -1.5t-22 -0.5q-1 41 -1 61.5t0.5 28.5t1.5 9t1.5 5t0.5 15t-2 39q-10 10 -21 17t-21 15q12 29 28 55t30 52zM84 790q29 -6 57 -16.5t54 -22.5
q6 -38 2.5 -76t-12 -70.5t-19 -58.5t-17.5 -40q-4 -5 -13.5 -7.5t-21.5 -3.5t-25 -1.5t-22 -0.5q-1 41 -1 61.5t0.5 28.5t1.5 9t1.5 5t0.5 15t-2 39q-10 10 -21 17t-21 15q12 29 28 55t30 52z" />
    <glyph glyph-name="quoteright" unicode="&#x2019;" horiz-adv-x="214" 
d="M84 790q29 -6 57 -16.5t54 -22.5q6 -38 2.5 -76t-12 -70.5t-19 -58.5t-17.5 -40q-4 -5 -13.5 -7.5t-21.5 -3.5t-25 -1.5t-22 -0.5q-1 41 -1 61.5t0.5 28.5t1.5 9t1.5 5t0.5 15t-2 39q-10 10 -21 17t-21 15q12 29 28 55t30 52z" />
    <glyph glyph-name="quoteleft" unicode="&#x2018;" horiz-adv-x="214" 
d="M141 493q-29 6 -57 16.5t-54 22.5q-6 38 -2.5 76t12 70.5t19 58.5t17.5 40q4 4 13.5 7t21.5 4t25 1.5t22 0.5q1 -42 1 -62t-0.5 -28t-1.5 -9t-1.5 -5t-0.5 -15t2 -39q10 -10 21 -17t21 -15q-12 -29 -28 -55t-30 -52z" />
    <glyph glyph-name="quotedblleft" unicode="&#x201c;" horiz-adv-x="409" 
d="M141 493q-29 6 -57 16.5t-54 22.5q-6 38 -2.5 76t12 70.5t19 58.5t17.5 40q4 4 13.5 7t21.5 4t25 1.5t22 0.5q1 -42 1 -62t-0.5 -28t-1.5 -9t-1.5 -5t-0.5 -15t2 -39q10 -10 21 -17t21 -15q-12 -29 -28 -55t-30 -52zM335 493q-29 6 -57 16.5t-54 22.5q-6 38 -2.5 76
t12 70.5t19 58.5t17.5 40q4 4 13.5 7t21.5 4t25 1.5t22 0.5q1 -42 1 -62t-0.5 -28t-1.5 -9t-1.5 -5t-0.5 -15t2 -39q10 -10 21 -17t21 -15q-12 -29 -28 -55t-30 -52z" />
    <glyph glyph-name="Agrave" unicode="&#xc0;" horiz-adv-x="548" 
d="M103 786q7 8 17 9t19 0q84 -9 166.5 -20t166.5 -24q12 0 16.5 -6.5t5.5 -15t0.5 -18.5t0.5 -18q0 -140 -1 -280t2 -281q13 -4 25 -7.5t25 -9.5q-11 -32 -30.5 -59.5t-37.5 -54.5q-17 0 -33.5 5t-30.5 12q-16 5 -31 9t-29 12q-9 27 -6 55.5t1 56.5q-3 38 -1.5 77.5
t-4.5 78.5q-35 -2 -72.5 0t-69.5 -7q-4 -41 -3 -83t3 -84q4 -6 11 -8t14.5 -4t14 -5.5t9.5 -12.5q-14 -26 -30 -51.5t-34 -50.5q-36 -1 -71 13t-67 28q3 138 1.5 273.5t-1.5 273.5q2 11 13 15t20 9q25 11 52 20t50 25q-15 2 -38 4.5t-46.5 5t-43.5 5.5t-30 8q16 29 35.5 55
t42.5 50zM244 609q-11 -6 -21.5 -11t-21.5 -10q-5 -40 -3 -79t0 -79q37 2 74.5 2t75.5 1q-5 52 -1.5 104t-4.5 103q-27 2 -50.5 -10t-47.5 -21zM363 809q-17 2 -46 15.5t-60.5 29.5t-60 30.5t-44.5 20.5q1 15 4 25.5t7.5 20t10 19.5t11.5 24q17 0 46 -13t60 -28.5
t59.5 -30.5t44.5 -19q-3 -19 -5 -28.5t-5.5 -17.5t-8.5 -18t-13 -30z" />
    <glyph glyph-name="Aacute" unicode="&#xc1;" horiz-adv-x="548" 
d="M103 786q7 8 17 9t19 0q84 -9 166.5 -20t166.5 -24q12 0 16.5 -6.5t5.5 -15t0.5 -18.5t0.5 -18q0 -140 -1 -280t2 -281q13 -4 25 -7.5t25 -9.5q-11 -32 -30.5 -59.5t-37.5 -54.5q-17 0 -33.5 5t-30.5 12q-16 5 -31 9t-29 12q-9 27 -6 55.5t1 56.5q-3 38 -1.5 77.5
t-4.5 78.5q-35 -2 -72.5 0t-69.5 -7q-4 -41 -3 -83t3 -84q4 -6 11 -8t14.5 -4t14 -5.5t9.5 -12.5q-14 -26 -30 -51.5t-34 -50.5q-36 -1 -71 13t-67 28q3 138 1.5 273.5t-1.5 273.5q2 11 13 15t20 9q25 11 52 20t50 25q-15 2 -38 4.5t-46.5 5t-43.5 5.5t-30 8q16 29 35.5 55
t42.5 50zM244 609q-11 -6 -21.5 -11t-21.5 -10q-5 -40 -3 -79t0 -79q37 2 74.5 2t75.5 1q-5 52 -1.5 104t-4.5 103q-27 2 -50.5 -10t-47.5 -21zM184 809q-8 20 -13 30t-8.5 18t-5.5 17.5t-5 28.5q16 4 44.5 19t59.5 30.5t60 28.5t46 13q6 -14 11.5 -24t10 -19.5t7.5 -20
t4 -25.5q-16 -6 -44.5 -20.5t-60 -30.5t-60.5 -29.5t-46 -15.5z" />
    <glyph glyph-name="AE" unicode="&#xc6;" horiz-adv-x="742" 
d="M103 786q7 8 17 9t19 0q84 -9 166.5 -20t166.5 -24h1q25 16 53 28q0 1 4.5 3.5t10.5 3.5t14 -1t16 -10q36 -13 73.5 -22t74.5 -22q-5 -32 -16 -61.5t-18 -61.5q-9 0 -19 -1.5t-19 1.5q-37 13 -74 25.5t-74 21.5q-2 -43 -1 -85.5t-1 -84.5q51 -1 102 0.5t102 -0.5
q-7 -34 -14 -68.5t-25 -64.5q-41 -2 -81.5 -0.5t-81.5 0.5q0 -20 -0.5 -46.5t-0.5 -52.5t0.5 -48.5t0.5 -35.5q26 -8 52.5 -19t54 -21t55.5 -18t58 -11q0 -20 -9.5 -36t-17.5 -32q-10 -17 -18.5 -34.5t-23.5 -28.5q-77 25 -153 49.5t-151 55.5v216l-3 17q-35 -2 -72.5 0
t-69.5 -7q-4 -41 -3 -83t3 -84q4 -6 11 -8t14.5 -4t14 -5.5t9.5 -12.5q-14 -26 -30 -51.5t-34 -50.5q-36 -1 -71 13t-67 28q3 138 1.5 273.5t-1.5 273.5q2 11 13 15t20 9q25 11 52 20t50 25q-15 2 -38 4.5t-46.5 5t-43.5 5.5t-30 8q16 29 35.5 55t42.5 50zM244 609
q-11 -6 -21.5 -11t-21.5 -10q-5 -40 -3 -79t0 -79q37 2 74.5 2t75.5 1q-5 52 -1.5 104t-4.5 103q-27 2 -50.5 -10t-47.5 -21z" />
    <glyph glyph-name="bar" unicode="|" horiz-adv-x="239" 
d="M65 867q33 -6 64.5 -17t61.5 -24q2 -32 2.5 -64t0.5 -65v-123v-48q0 -13 -0.5 -44.5t-0.5 -73v-87v-86.5v-72.5v-44.5v-171v-96q-4 -5 -23.5 -9t-43 -6.5t-46 -4t-33.5 -1.5q-1 34 -1 66.5v64.5q0 29 0.5 91.5t1 141.5t1.5 165.5t1 164.5t-1 139t-3 88q-4 54 -3 84t22 32
z" />
    <glyph glyph-name="ellipsis" unicode="&#x2026;" horiz-adv-x="808" 
d="M217 -5q-35 5 -68 17.5t-65 23.5q2 29 12 57t22 55q34 -1 67 -14t65 -22q-3 -19 -5.5 -32.5t-6 -25.5t-8.5 -25.5t-13 -33.5zM453 -5q-35 5 -68 17.5t-65 23.5q2 29 12 57t22 55q34 -1 67 -14t65 -22q-3 -19 -5.5 -32.5t-6 -25.5t-8.5 -25.5t-13 -33.5zM689 -5
q-35 5 -68 17.5t-65 23.5q2 29 12 57t22 55q34 -1 67 -14t65 -22q-3 -19 -5.5 -32.5t-6 -25.5t-8.5 -25.5t-13 -33.5z" />
    <glyph glyph-name="equal" unicode="=" horiz-adv-x="405" 
d="M369 203q-77 -4 -156.5 -2.5t-158.5 2.5q-15 21 -12 42.5t10 42.5q75 7 148.5 6.5t162.5 -2.5q7 -14 11 -23.5t4 -19t-2.5 -20t-6.5 -26.5zM369 370q-77 -4 -156.5 -2.5t-158.5 2.5q-15 21 -12 42.5t10 42.5q75 7 148.5 6.5t162.5 -2.5q7 -14 11 -23.5t4 -19t-2.5 -20
t-6.5 -26.5z" />
    <glyph glyph-name="question" unicode="?" horiz-adv-x="379" 
d="M101 356q4 9 14.5 15t23.5 12t27 13t26 18q3 22 4 37.5t1 34t-1 45.5t-1 74q-5 10 -26.5 19t-48.5 17t-54 15t-42 12q1 16 11 36t23 37.5t26 29.5t20 12q5 0 24.5 -5t46.5 -13.5t56.5 -19t54.5 -21t41 -19.5t15 -15v-329q0 -5 -9 -10.5t-22.5 -12t-29.5 -13t-31 -11.5
q0 -18 2 -27.5t2 -11.5q0 -9 -6 -21.5t-15 -25.5t-18 -25.5t-15 -22.5q-17 0 -27.5 2t-19.5 6t-19 9t-26 10q-5 17 -5 31q-4 31 -4.5 51.5t0.5 33.5t2 20t0 13zM223 -5q-35 5 -68 17.5t-65 23.5q2 29 12 57t22 55q34 -1 67 -14t65 -22q-3 -19 -5.5 -32.5t-6 -25.5
t-8.5 -25.5t-13 -33.5z" />
    <glyph glyph-name="slash" unicode="/" horiz-adv-x="342" 
d="M292 867q32 -6 60 -17t54 -24q-5 -21 -18.5 -67t-31.5 -107t-39.5 -133t-43.5 -145.5t-43.5 -144t-39 -128.5t-30 -99t-16.5 -55q-7 -23 -14 -47.5t-15 -48.5q-6 -5 -26 -9t-44 -6.5t-47 -4t-34 -1.5q10 34 19.5 66.5t18.5 64.5q9 29 28 91.5t43.5 141.5t51 165.5
t49.5 164.5t40.5 139t23.5 88q13 54 22.5 84t31.5 32z" />
    <glyph glyph-name="backslash" unicode="\" horiz-adv-x="429" 
d="M-61 867q35 -6 71 -17t71 -24q15 -32 28 -64t27 -65q12 -30 25 -61t25 -62q5 -12 10 -23.5t10 -24.5t18 -44.5t29.5 -73t35 -87t35 -86.5t29.5 -72.5t18 -44.5q18 -43 35.5 -85.5t34.5 -85.5q10 -23 19.5 -47.5t19.5 -48.5q-2 -5 -19.5 -9t-40 -6.5t-44.5 -4t-33 -1.5
q-15 34 -28 66.5t-27 64.5q-12 29 -36.5 91.5t-56 141.5t-66 165.5t-66.5 164.5t-57.5 139t-38.5 88q-26 54 -37 84t9 32z" />
    <glyph glyph-name="bracketleft" unicode="[" horiz-adv-x="239" 
d="M289 -172q-58 -4 -119 -2.5t-121 2.5l-1 2h-1v2v104.5t0.5 137t0.5 157t0.5 164t0.5 158v139.5v108.5t-1 65.5q57 7 113 6.5t124 -2.5q6 -14 8.5 -23.5t2.5 -19t-2 -20t-5 -26.5q-47 -3 -96 -3q1 -20 1 -40.5v-40.5v-171q0 -13 -0.5 -44.5t-0.5 -73v-87v-86.5v-72.5
v-44.5v-199q22 0 44.5 -0.5t47.5 -1.5q6 -14 8.5 -23.5t2.5 -19t-2 -20t-5 -26.5z" />
    <glyph glyph-name="bracketright" unicode="]" horiz-adv-x="239" 
d="M54 -172q-3 16 -5 26.5t-2 20t2.5 19t8.5 23.5q25 1 47.5 1.5t44.5 0.5v199v44.5v72.5v86.5v87t-0.5 73t-0.5 44.5v171v40.5t1 40.5q-50 0 -96 3q-3 16 -5 26.5t-2 20t2.5 19t8.5 23.5q68 2 124 2.5t113 -6.5q-1 -20 -1 -65.5v-108.5v-139.5t0.5 -158t0.5 -164t0.5 -157
t0.5 -137v-104.5v-2h-1q0 -1 -1 -2q-60 -1 -121 -2.5t-119 2.5z" />
    <glyph glyph-name="OE" unicode="&#x152;" horiz-adv-x="734" 
d="M82 705q36 19 73 35.5t73 34.5q12 6 23.5 5t23.5 -4.5t23.5 -9t22.5 -9.5q23 -11 48.5 -20t50.5 -18q24 18 48 35t52 28q0 1 4.5 3.5t10.5 3.5t14 -1t16 -10q36 -13 73.5 -22t74.5 -22q-5 -32 -16 -61.5t-18 -61.5q-9 0 -19 -1.5t-19 1.5q-37 13 -74 25.5t-74 21.5
q-2 -43 -1 -85.5t-1 -84.5q51 -1 102 0.5t102 -0.5q-7 -34 -14 -68.5t-25 -64.5q-41 -2 -81.5 -0.5t-81.5 0.5q-2 -36 -2 -87t2 -96q26 -8 52.5 -19t54 -21t55.5 -18t58 -11q0 -20 -9.5 -36t-17.5 -32q-10 -17 -18.5 -34.5t-23.5 -28.5q-55 18 -110 35t-109 37
q-25 -13 -51 -25.5t-49.5 -23t-43 -19t-31.5 -12.5q-45 10 -84 26.5t-69 31.5t-47.5 24.5t-18.5 7.5q-5 18 -3 36.5t0 38.5q2 128 2.5 215.5t0 144t-1 88t-1.5 48t-2 22.5t-1 13q6 20 23.5 28t33.5 17zM186 657q-3 -46 -4.5 -97t-2 -100.5t0 -94t1.5 -76.5q-1 -37 -3.5 -74
t5.5 -73q38 -14 76.5 -28.5t77.5 -25.5q-2 131 0.5 260.5t-3.5 260.5q-32 10 -51.5 16t-30.5 9.5t-16.5 5t-9.5 2.5q-8 3 -20 8t-20 7z" />
    <glyph glyph-name="oe" unicode="&#x153;" horiz-adv-x="647" 
d="M169 602q11 5 22 9.5t23 4.5q4 0 8 -1t9 -2q51 -18 102 -39q27 14 54.5 26.5t56.5 21.5q43 -16 84.5 -34.5t82.5 -38.5q5 -22 7 -54t2 -66q0 -32 -1 -61.5t-2 -49.5q-4 -10 -27.5 -23.5t-54.5 -27.5t-64.5 -28t-57.5 -25q-4 -10 -4.5 -22t-0.5 -23q30 -13 56.5 -20.5
t51 -13.5t49 -11.5t50.5 -14.5q-16 -32 -34.5 -60.5t-43.5 -51.5q-12 1 -34 6t-49.5 12.5t-58 16t-57.5 17.5q-53 -27 -109 -50q-8 -4 -16 -4q-12 0 -35 8t-49 18.5t-53.5 22t-48.5 18.5q-2 45 -2 87.5v86.5v297q35 20 71.5 35.5t72.5 33.5zM177 485q-2 -43 -2 -84.5v-84.5
v-168q20 -8 38.5 -15t38.5 -12v173.5t1 163.5q-14 8 -31 19t-35 11q-6 0 -10 -3zM417 495l-13 -12v-125v-37t1 -36q17 7 34 13t29 18q2 11 2 22.5v22.5q0 23 -1 45t-1 45q0 10 -5 16.5t-13 11.5t-17 8.5t-16 7.5z" />
    <glyph glyph-name="Ograve" unicode="&#xd2;" horiz-adv-x="516" 
d="M82 710q36 19 73 35.5t73 34.5q12 6 23.5 5t23.5 -4.5t23.5 -9t22.5 -9.5q41 -19 85.5 -33t82.5 -37q2 -153 1.5 -304t-1.5 -305q-28 -15 -62.5 -32.5t-68.5 -33.5t-63 -29t-45 -19q-45 10 -84 26.5t-69 31.5t-47.5 24.5t-18.5 7.5q-5 18 -3 36.5t0 38.5q2 128 2.5 215.5
t0 144t-1 88t-1.5 48t-2 23t-1 12.5q6 20 23.5 28t33.5 17zM186 662q-3 -46 -4.5 -97t-2 -100.5t0 -94t1.5 -76.5q-1 -37 -3.5 -74t5.5 -73q38 -14 76.5 -28.5t77.5 -25.5q-2 131 0.5 260.5t-3.5 260.5q-32 10 -51.5 16t-30.5 9.5t-16.5 5t-9.5 2.5q-8 3 -20 8t-20 7z
M347 809q-17 2 -46 15.5t-60.5 29.5t-60 30.5t-44.5 20.5q1 15 4 25.5t7.5 20t10 19.5t11.5 24q17 0 46 -13t60 -28.5t59.5 -30.5t44.5 -19q-3 -19 -5 -28.5t-5.5 -17.5t-8.5 -18t-13 -30z" />
    <glyph glyph-name="Oacute" unicode="&#xd3;" horiz-adv-x="516" 
d="M82 710q36 19 73 35.5t73 34.5q12 6 23.5 5t23.5 -4.5t23.5 -9t22.5 -9.5q41 -19 85.5 -33t82.5 -37q2 -153 1.5 -304t-1.5 -305q-28 -15 -62.5 -32.5t-68.5 -33.5t-63 -29t-45 -19q-45 10 -84 26.5t-69 31.5t-47.5 24.5t-18.5 7.5q-5 18 -3 36.5t0 38.5q2 128 2.5 215.5
t0 144t-1 88t-1.5 48t-2 23t-1 12.5q6 20 23.5 28t33.5 17zM186 662q-3 -46 -4.5 -97t-2 -100.5t0 -94t1.5 -76.5q-1 -37 -3.5 -74t5.5 -73q38 -14 76.5 -28.5t77.5 -25.5q-2 131 0.5 260.5t-3.5 260.5q-32 10 -51.5 16t-30.5 9.5t-16.5 5t-9.5 2.5q-8 3 -20 8t-20 7z
M168 809q-8 20 -13 30t-8.5 18t-5.5 17.5t-5 28.5q16 4 44.5 19t59.5 30.5t60 28.5t46 13q6 -14 11.5 -24t10 -19.5t7.5 -20t4 -25.5q-16 -6 -44.5 -20.5t-60 -30.5t-60.5 -29.5t-46 -15.5z" />
    <glyph glyph-name="Ugrave" unicode="&#xd9;" horiz-adv-x="590" 
d="M64 769q4 6 9.5 11.5t13.5 3.5q27 -10 52 -23.5t51 -25.5q9 -5 20.5 -11t9.5 -21q0 -137 -1 -272t3 -272q20 -11 41 -20.5t41 -20.5q16 9 31 20t28 25q-2 124 -1.5 246.5t-1.5 247.5q0 26 -0.5 51.5t1.5 50.5q34 14 71 18.5t73 9.5q9 -27 6 -55q-3 -97 0 -191t2 -190
q1 -50 -0.5 -99t1.5 -99q11 -11 22 -18t22 -15q7 -2 10 -8t-3 -15q-14 -26 -32 -48.5t-35 -47.5q-5 0 -11.5 -0.5t-11.5 -0.5q-29 18 -56 41t-59 32q-33 -18 -61 -41.5t-62 -39.5q-41 24 -84 41t-83 40q-5 20 -3 39.5t2 38.5q0 121 -1.5 240t-0.5 239q-16 8 -30.5 16.5
t-29.5 17.5q13 27 28 53t29 52zM384 809q-17 2 -46 15.5t-60.5 29.5t-60 30.5t-44.5 20.5q1 15 4 25.5t7.5 20t10 19.5t11.5 24q17 0 46 -13t60 -28.5t59.5 -30.5t44.5 -19q-3 -19 -5 -28.5t-5.5 -17.5t-8.5 -18t-13 -30z" />
    <glyph glyph-name="Uacute" unicode="&#xda;" horiz-adv-x="590" 
d="M64 769q4 6 9.5 11.5t13.5 3.5q27 -10 52 -23.5t51 -25.5q9 -5 20.5 -11t9.5 -21q0 -137 -1 -272t3 -272q20 -11 41 -20.5t41 -20.5q16 9 31 20t28 25q-2 124 -1.5 246.5t-1.5 247.5q0 26 -0.5 51.5t1.5 50.5q34 14 71 18.5t73 9.5q9 -27 6 -55q-3 -97 0 -191t2 -190
q1 -50 -0.5 -99t1.5 -99q11 -11 22 -18t22 -15q7 -2 10 -8t-3 -15q-14 -26 -32 -48.5t-35 -47.5q-5 0 -11.5 -0.5t-11.5 -0.5q-29 18 -56 41t-59 32q-33 -18 -61 -41.5t-62 -39.5q-41 24 -84 41t-83 40q-5 20 -3 39.5t2 38.5q0 121 -1.5 240t-0.5 239q-16 8 -30.5 16.5
t-29.5 17.5q13 27 28 53t29 52zM205 809q-8 20 -13 30t-8.5 18t-5.5 17.5t-5 28.5q16 4 44.5 19t59.5 30.5t60 28.5t46 13q6 -14 11.5 -24t10 -19.5t7.5 -20t4 -25.5q-16 -6 -44.5 -20.5t-60 -30.5t-60.5 -29.5t-46 -15.5z" />
    <glyph glyph-name="Egrave" unicode="&#xc8;" horiz-adv-x="424" 
d="M63 688q36 23 69 50.5t74 43.5q0 1 4.5 3.5t10.5 3.5t14 -1t16 -10q36 -13 73.5 -22t74.5 -22q-5 -32 -16 -61.5t-18 -61.5q-9 0 -19 -1.5t-19 1.5q-37 13 -74 25.5t-74 21.5q-2 -43 -1 -85.5t-1 -84.5q51 -1 102 0.5t102 -0.5q-7 -34 -14 -68.5t-25 -64.5
q-41 -2 -81.5 -0.5t-81.5 0.5q-2 -36 -2 -87t2 -96q26 -8 52.5 -19t54 -21t55.5 -18t58 -11q0 -20 -9.5 -36t-17.5 -32q-10 -17 -18.5 -34.5t-23.5 -28.5q-77 25 -153 49.5t-151 55.5q1 143 0.5 283.5t-0.5 283.5q-1 9 2.5 15.5t9.5 11t12.5 8.5t12.5 9zM301 809
q-17 2 -46 15.5t-60.5 29.5t-60 30.5t-44.5 20.5q1 15 4 25.5t7.5 20t10 19.5t11.5 24q17 0 46 -13t60 -28.5t59.5 -30.5t44.5 -19q-3 -19 -5 -28.5t-5.5 -17.5t-8.5 -18t-13 -30z" />
    <glyph glyph-name="Eacute" unicode="&#xc9;" horiz-adv-x="424" 
d="M63 688q36 23 69 50.5t74 43.5q0 1 4.5 3.5t10.5 3.5t14 -1t16 -10q36 -13 73.5 -22t74.5 -22q-5 -32 -16 -61.5t-18 -61.5q-9 0 -19 -1.5t-19 1.5q-37 13 -74 25.5t-74 21.5q-2 -43 -1 -85.5t-1 -84.5q51 -1 102 0.5t102 -0.5q-7 -34 -14 -68.5t-25 -64.5
q-41 -2 -81.5 -0.5t-81.5 0.5q-2 -36 -2 -87t2 -96q26 -8 52.5 -19t54 -21t55.5 -18t58 -11q0 -20 -9.5 -36t-17.5 -32q-10 -17 -18.5 -34.5t-23.5 -28.5q-77 25 -153 49.5t-151 55.5q1 143 0.5 283.5t-0.5 283.5q-1 9 2.5 15.5t9.5 11t12.5 8.5t12.5 9zM122 809
q-8 20 -13 30t-8.5 18t-5.5 17.5t-5 28.5q16 4 44.5 19t59.5 30.5t60 28.5t46 13q6 -14 11.5 -24t10 -19.5t7.5 -20t4 -25.5q-16 -6 -44.5 -20.5t-60 -30.5t-60.5 -29.5t-46 -15.5z" />
    <glyph glyph-name="Igrave" unicode="&#xcc;" horiz-adv-x="442" 
d="M108 774q7 12 19.5 13.5t23.5 -0.5q54 -5 105.5 -12.5t103.5 -15.5q12 -2 24 -3.5t22 -8.5q-7 -20 -19 -36.5t-24.5 -32.5t-24 -33t-17.5 -36q23 -122 48.5 -242.5t47.5 -242.5q-35 -29 -72.5 -57t-73.5 -57q-10 -8 -20.5 -16.5t-24.5 -13.5q-52 11 -101 30t-100 35
q11 34 30.5 64t38.5 59q43 -15 84 -32t86 -28q-20 122 -48.5 242t-47.5 244q10 16 28.5 22.5t34.5 14.5q0 5 -1 10.5t-1 9.5h-4l1 -14q-20 7 -41.5 10t-43 3.5t-42.5 1.5t-42 5q-4 2 -8.5 6t-8.5 6q15 28 32.5 54t35.5 51zM310 809q-17 2 -46 15.5t-60.5 29.5t-60 30.5
t-44.5 20.5q1 15 4 25.5t7.5 20t10 19.5t11.5 24q17 0 46 -13t60 -28.5t59.5 -30.5t44.5 -19q-3 -19 -5 -28.5t-5.5 -17.5t-8.5 -18t-13 -30z" />
    <glyph glyph-name="Iacute" unicode="&#xcd;" horiz-adv-x="442" 
d="M108 774q7 12 19.5 13.5t23.5 -0.5q54 -5 105.5 -12.5t103.5 -15.5q12 -2 24 -3.5t22 -8.5q-7 -20 -19 -36.5t-24.5 -32.5t-24 -33t-17.5 -36q23 -122 48.5 -242.5t47.5 -242.5q-35 -29 -72.5 -57t-73.5 -57q-10 -8 -20.5 -16.5t-24.5 -13.5q-52 11 -101 30t-100 35
q11 34 30.5 64t38.5 59q43 -15 84 -32t86 -28q-20 122 -48.5 242t-47.5 244q10 16 28.5 22.5t34.5 14.5q0 5 -1 10.5t-1 9.5h-4l1 -14q-20 7 -41.5 10t-43 3.5t-42.5 1.5t-42 5q-4 2 -8.5 6t-8.5 6q15 28 32.5 54t35.5 51zM131 809q-8 20 -13 30t-8.5 18t-5.5 17.5t-5 28.5
q16 4 44.5 19t59.5 30.5t60 28.5t46 13q6 -14 11.5 -24t10 -19.5t7.5 -20t4 -25.5q-16 -6 -44.5 -20.5t-60 -30.5t-60.5 -29.5t-46 -15.5z" />
    <glyph glyph-name="dieresis" unicode="&#xa8;" horiz-adv-x="452" 
d="M203 736q-2 -30 -12.5 -57.5t-20.5 -56.5q-18 2 -36 7.5t-36 10.5q-15 6 -32.5 8t-27.5 15q2 28 11 54t17 52zM255 766q16 6 26.5 5t26.5 -8q45 -15 93 -27q-7 -29 -15 -57t-17 -57q-35 4 -68 14t-65 19q1 25 8.5 48t9.5 47q-2 2 0.5 8t0.5 8z" />
    <glyph glyph-name="ydieresis" unicode="&#xff;" horiz-adv-x="447" 
d="M285 616q35 -14 70.5 -27t67.5 -31q-1 -138 -0.5 -274t-0.5 -274q-36 -46 -73 -91t-73 -92q-46 -1 -91 3.5t-92 4.5q-11 2 -23 1t-20 9q8 31 21 59t27 57q28 5 56.5 1.5t57.5 -4.5q8 0 16.5 -1.5t16.5 -2t16 1.5t14 8q1 77 2 153t-1 153q-1 48 0 95t-6 95q-3 8 -8.5 11.5
t-13 5t-15.5 1.5h-15q-6 -10 -11.5 -20.5t-11.5 -21.5q-2 -34 -2.5 -72t0 -77t2 -78t2.5 -73q11 -5 23 -9.5t25 -9.5q0 -18 -12 -33q-15 -22 -28.5 -44.5t-31.5 -42.5q-31 11 -61 21t-61 21q-3 109 -2 218.5t1 219.5q-11 8 -23.5 15t-23.5 16q11 27 28 52t37 49
q16 1 31.5 -2t31 -8t31 -11t30.5 -9q5 -17 6 -32l20 8q16 17 32.5 32t34.5 29zM207 736q-2 -30 -12.5 -57.5t-20.5 -56.5q-18 2 -36 7.5t-36 10.5q-15 6 -32.5 8t-27.5 15q2 28 11 54t17 52zM259 766q16 6 26.5 5t26.5 -8q45 -15 93 -27q-7 -29 -15 -57t-17 -57
q-35 4 -68 14t-65 19q1 25 8.5 48t9.5 47q-2 2 0.5 8t0.5 8z" />
    <glyph glyph-name="idieresis" unicode="&#xef;" 
d="M60 606q33 0 63.5 -13.5t62.5 -24.5q5 -17 5 -31v-21v-11v-72q0 -72 0.5 -144.5t0.5 -144.5v-5q0 -9 6.5 -14t14.5 -8.5t14.5 -6.5t6.5 -8q0 -10 -7.5 -24.5t-18 -30t-22.5 -29.5t-21 -23q-15 1 -29.5 5.5t-28.5 9.5l-28 10t-29 7q-8 21 -8 40v72v134q0 36 2.5 72t2.5 72
q0 14 -3 29t-6 29q-13 5 -22.5 14.5t-9.5 21.5q0 9 6 21.5t15 25.5t18 25.5t15 22.5zM102 736q-2 -30 -12.5 -57.5t-20.5 -56.5q-18 2 -36 7.5t-36 10.5q-15 6 -32.5 8t-27.5 15q2 28 11 54t17 52zM154 766q16 6 26.5 5t26.5 -8q45 -15 93 -27q-7 -29 -15 -57t-17 -57
q-35 4 -68 14t-65 19q1 25 8.5 48t9.5 47q-2 2 0.5 8t0.5 8z" />
    <glyph glyph-name="edieresis" unicode="&#xeb;" horiz-adv-x="412" 
d="M25 538q47 20 92.5 45t93.5 39q43 -16 84.5 -34.5t82.5 -38.5q5 -22 7 -54t2 -66q0 -32 -1 -61.5t-2 -49.5q-4 -10 -27.5 -23.5t-54.5 -27.5t-64.5 -28t-57.5 -25q-4 -10 -4.5 -22t-0.5 -23q30 -13 56.5 -20.5t51 -13.5t49 -11.5t50.5 -14.5q-16 -32 -34.5 -60.5
t-43.5 -51.5q-17 1 -56 11t-82.5 23t-83 25.5t-57.5 19.5v462zM184 495q-2 -2 -6.5 -6t-6.5 -6v-45v-80v-37t1 -36q17 7 34 13t29 18q2 11 2 22.5v22.5q0 23 -1 45t-1 45q0 10 -5 16.5t-13 11.5t-17 8.5t-16 7.5zM190 736q-2 -30 -12.5 -57.5t-20.5 -56.5q-18 2 -36 7.5
t-36 10.5q-15 6 -32.5 8t-27.5 15q2 28 11 54t17 52zM242 766q16 6 26.5 5t26.5 -8q45 -15 93 -27q-7 -29 -15 -57t-17 -57q-35 4 -68 14t-65 19q1 25 8.5 48t9.5 47q-2 2 0.5 8t0.5 8z" />
    <glyph glyph-name="circumflex" unicode="&#x2c6;" 
d="M8 609q-11 15 -17 22t-10.5 12.5t-8.5 13t-10 22.5q12 7 31 23.5t40 35.5t41 35.5t35 22.5l2 2q1 -1 2 -1q1 1 2 1q14 -7 34.5 -23.5t42 -35.5t41 -36t31.5 -24q-6 -15 -10 -22.5t-8.5 -13t-11 -12.5t-16.5 -22q-10 0 -23 7.5t-27 19.5t-29 26.5t-28 28.5
q-27 -25 -56 -50t-47 -32z" />
    <glyph glyph-name="Acircumflex" unicode="&#xc2;" horiz-adv-x="548" 
d="M103 786q7 8 17 9t19 0q84 -9 166.5 -20t166.5 -24q12 0 16.5 -6.5t5.5 -15t0.5 -18.5t0.5 -18q0 -140 -1 -280t2 -281q13 -4 25 -7.5t25 -9.5q-11 -32 -30.5 -59.5t-37.5 -54.5q-17 0 -33.5 5t-30.5 12q-16 5 -31 9t-29 12q-9 27 -6 55.5t1 56.5q-3 38 -1.5 77.5
t-4.5 78.5q-35 -2 -72.5 0t-69.5 -7q-4 -41 -3 -83t3 -84q4 -6 11 -8t14.5 -4t14 -5.5t9.5 -12.5q-14 -26 -30 -51.5t-34 -50.5q-36 -1 -71 13t-67 28q3 138 1.5 273.5t-1.5 273.5q2 11 13 15t20 9q25 11 52 20t50 25q-15 2 -38 4.5t-46.5 5t-43.5 5.5t-30 8q16 29 35.5 55
t42.5 50zM244 609q-11 -6 -21.5 -11t-21.5 -10q-5 -40 -3 -79t0 -79q37 2 74.5 2t75.5 1q-5 52 -1.5 104t-4.5 103q-27 2 -50.5 -10t-47.5 -21zM169 809q-11 15 -17 22t-10.5 12.5t-8.5 13t-10 22.5q12 7 31 23.5t40 35.5t41 35.5t35 22.5l2 2q1 -1 2 -1q1 1 2 1
q14 -7 34.5 -23.5t42 -35.5t41 -36t31.5 -24q-6 -15 -10 -22.5t-8.5 -13t-11 -12.5t-16.5 -22q-10 0 -23 7.5t-27 19.5t-29 26.5t-28 28.5q-27 -25 -56 -50t-47 -32z" />
    <glyph glyph-name="Ecircumflex" unicode="&#xca;" horiz-adv-x="424" 
d="M63 688q36 23 69 50.5t74 43.5q0 1 4.5 3.5t10.5 3.5t14 -1t16 -10q36 -13 73.5 -22t74.5 -22q-5 -32 -16 -61.5t-18 -61.5q-9 0 -19 -1.5t-19 1.5q-37 13 -74 25.5t-74 21.5q-2 -43 -1 -85.5t-1 -84.5q51 -1 102 0.5t102 -0.5q-7 -34 -14 -68.5t-25 -64.5
q-41 -2 -81.5 -0.5t-81.5 0.5q-2 -36 -2 -87t2 -96q26 -8 52.5 -19t54 -21t55.5 -18t58 -11q0 -20 -9.5 -36t-17.5 -32q-10 -17 -18.5 -34.5t-23.5 -28.5q-77 25 -153 49.5t-151 55.5q1 143 0.5 283.5t-0.5 283.5q-1 9 2.5 15.5t9.5 11t12.5 8.5t12.5 9zM107 809
q-11 15 -17 22t-10.5 12.5t-8.5 13t-10 22.5q12 7 31 23.5t40 35.5t41 35.5t35 22.5l2 2q1 -1 2 -1q1 1 2 1q14 -7 34.5 -23.5t42 -35.5t41 -36t31.5 -24q-6 -15 -10 -22.5t-8.5 -13t-11 -12.5t-16.5 -22q-10 0 -23 7.5t-27 19.5t-29 26.5t-28 28.5q-27 -25 -56 -50t-47 -32
z" />
    <glyph glyph-name="Icircumflex" unicode="&#xce;" horiz-adv-x="442" 
d="M108 774q7 12 19.5 13.5t23.5 -0.5q54 -5 105.5 -12.5t103.5 -15.5q12 -2 24 -3.5t22 -8.5q-7 -20 -19 -36.5t-24.5 -32.5t-24 -33t-17.5 -36q23 -122 48.5 -242.5t47.5 -242.5q-35 -29 -72.5 -57t-73.5 -57q-10 -8 -20.5 -16.5t-24.5 -13.5q-52 11 -101 30t-100 35
q11 34 30.5 64t38.5 59q43 -15 84 -32t86 -28q-20 122 -48.5 242t-47.5 244q10 16 28.5 22.5t34.5 14.5q0 5 -1 10.5t-1 9.5h-4l1 -14q-20 7 -41.5 10t-43 3.5t-42.5 1.5t-42 5q-4 2 -8.5 6t-8.5 6q15 28 32.5 54t35.5 51zM116 809q-11 15 -17 22t-10.5 12.5t-8.5 13
t-10 22.5q12 7 31 23.5t40 35.5t41 35.5t35 22.5l2 2q1 -1 2 -1q1 1 2 1q14 -7 34.5 -23.5t42 -35.5t41 -36t31.5 -24q-6 -15 -10 -22.5t-8.5 -13t-11 -12.5t-16.5 -22q-10 0 -23 7.5t-27 19.5t-29 26.5t-28 28.5q-27 -25 -56 -50t-47 -32z" />
    <glyph glyph-name="Ocircumflex" unicode="&#xd4;" horiz-adv-x="516" 
d="M82 710q36 19 73 35.5t73 34.5q12 6 23.5 5t23.5 -4.5t23.5 -9t22.5 -9.5q41 -19 85.5 -33t82.5 -37q2 -153 1.5 -304t-1.5 -305q-28 -15 -62.5 -32.5t-68.5 -33.5t-63 -29t-45 -19q-45 10 -84 26.5t-69 31.5t-47.5 24.5t-18.5 7.5q-5 18 -3 36.5t0 38.5q2 128 2.5 215.5
t0 144t-1 88t-1.5 48t-2 23t-1 12.5q6 20 23.5 28t33.5 17zM186 662q-3 -46 -4.5 -97t-2 -100.5t0 -94t1.5 -76.5q-1 -37 -3.5 -74t5.5 -73q38 -14 76.5 -28.5t77.5 -25.5q-2 131 0.5 260.5t-3.5 260.5q-32 10 -51.5 16t-30.5 9.5t-16.5 5t-9.5 2.5q-8 3 -20 8t-20 7z
M153 809q-11 15 -17 22t-10.5 12.5t-8.5 13t-10 22.5q12 7 31 23.5t40 35.5t41 35.5t35 22.5l2 2q1 -1 2 -1q1 1 2 1q14 -7 34.5 -23.5t42 -35.5t41 -36t31.5 -24q-6 -15 -10 -22.5t-8.5 -13t-11 -12.5t-16.5 -22q-10 0 -23 7.5t-27 19.5t-29 26.5t-28 28.5q-27 -25 -56 -50
t-47 -32z" />
    <glyph glyph-name="Ucircumflex" unicode="&#xdb;" horiz-adv-x="590" 
d="M64 769q4 6 9.5 11.5t13.5 3.5q27 -10 52 -23.5t51 -25.5q9 -5 20.5 -11t9.5 -21q0 -137 -1 -272t3 -272q20 -11 41 -20.5t41 -20.5q16 9 31 20t28 25q-2 124 -1.5 246.5t-1.5 247.5q0 26 -0.5 51.5t1.5 50.5q34 14 71 18.5t73 9.5q9 -27 6 -55q-3 -97 0 -191t2 -190
q1 -50 -0.5 -99t1.5 -99q11 -11 22 -18t22 -15q7 -2 10 -8t-3 -15q-14 -26 -32 -48.5t-35 -47.5q-5 0 -11.5 -0.5t-11.5 -0.5q-29 18 -56 41t-59 32q-33 -18 -61 -41.5t-62 -39.5q-41 24 -84 41t-83 40q-5 20 -3 39.5t2 38.5q0 121 -1.5 240t-0.5 239q-16 8 -30.5 16.5
t-29.5 17.5q13 27 28 53t29 52zM190 809q-11 15 -17 22t-10.5 12.5t-8.5 13t-10 22.5q12 7 31 23.5t40 35.5t41 35.5t35 22.5l2 2q1 -1 2 -1q1 1 2 1q14 -7 34.5 -23.5t42 -35.5t41 -36t31.5 -24q-6 -15 -10 -22.5t-8.5 -13t-11 -12.5t-16.5 -22q-10 0 -23 7.5t-27 19.5
t-29 26.5t-28 28.5q-27 -25 -56 -50t-47 -32z" />
    <glyph glyph-name="Yacute" unicode="&#xdd;" horiz-adv-x="536" 
d="M5 664q11 34 30.5 64t38.5 59q38 -16 73 -36.5t73 -36.5q17 3 31.5 13.5t29 22.5t29 22.5t31.5 13.5q45 -17 86.5 -38.5t83.5 -41.5v-786q-33 -23 -65.5 -45.5t-65.5 -45.5q-9 -7 -17 -5t-14.5 8.5t-12 15.5t-8.5 17q9 18 18 37t10 39q4 171 2 340t0 340
q-20 10 -40.5 20.5t-42.5 19.5q-14 -10 -29 -19.5t-28 -23.5q-3 -124 -2 -245t-1 -243q14 -5 27 -9.5t26 -9.5q-9 -34 -30 -62t-41 -57q-34 8 -66.5 20.5t-66.5 21.5q-1 74 -1 151.5v154t-0.5 149t-1.5 136.5q-15 8 -30 17.5t-26 21.5zM178 809q-8 20 -13 30t-8.5 18
t-5.5 17.5t-5 28.5q16 4 44.5 19t59.5 30.5t60 28.5t46 13q6 -14 11.5 -24t10 -19.5t7.5 -20t4 -25.5q-16 -6 -44.5 -20.5t-60 -30.5t-60.5 -29.5t-46 -15.5z" />
    <glyph glyph-name="Edieresis" unicode="&#xcb;" horiz-adv-x="424" 
d="M63 688q36 23 69 50.5t74 43.5q0 1 4.5 3.5t10.5 3.5t14 -1t16 -10q36 -13 73.5 -22t74.5 -22q-5 -32 -16 -61.5t-18 -61.5q-9 0 -19 -1.5t-19 1.5q-37 13 -74 25.5t-74 21.5q-2 -43 -1 -85.5t-1 -84.5q51 -1 102 0.5t102 -0.5q-7 -34 -14 -68.5t-25 -64.5
q-41 -2 -81.5 -0.5t-81.5 0.5q-2 -36 -2 -87t2 -96q26 -8 52.5 -19t54 -21t55.5 -18t58 -11q0 -20 -9.5 -36t-17.5 -32q-10 -17 -18.5 -34.5t-23.5 -28.5q-77 25 -153 49.5t-151 55.5q1 143 0.5 283.5t-0.5 283.5q-1 9 2.5 15.5t9.5 11t12.5 8.5t12.5 9zM196 936
q-2 -30 -12.5 -57.5t-20.5 -56.5q-18 2 -36 7.5t-36 10.5q-15 6 -32.5 8t-27.5 15q2 28 11 54t17 52zM248 966q16 6 26.5 5t26.5 -8q45 -15 93 -27q-7 -29 -15 -57t-17 -57q-35 4 -68 14t-65 19q1 25 8.5 48t9.5 47q-2 2 0.5 8t0.5 8z" />
    <glyph glyph-name="endash" unicode="&#x2013;" horiz-adv-x="488" 
d="M442 333q-38 -3 -88.5 -3.5t-104 0t-105 1.5t-90.5 2q-15 29 -12 59t10 60q37 4 85 6t100 2t103.5 -1t95.5 -2q7 -20 11 -33.5t4 -26.5t-2.5 -27.5t-6.5 -36.5z" />
    <glyph glyph-name="emdash" unicode="&#x2014;" horiz-adv-x="587" 
d="M539 333q-25 -2 -63.5 -3t-84 -1t-94 0.5t-94 1t-84.5 1t-65 1.5q-15 29 -12 59t10 60q37 4 100.5 6t133.5 2t136.5 -1t110.5 -2q7 -20 11 -33.5t4 -26.5t-2.5 -27.5t-6.5 -36.5z" />
    <glyph glyph-name="plus" unicode="+" horiz-adv-x="405" 
d="M146 234q-2 23 -3 47.5t-1 48.5l-88 3q-15 29 -12 59t10 60q23 2 45.5 4t45.5 3l3 88q29 15 59 12t60 -10q2 -23 4 -45t3 -45q21 0 43 -0.5t46 -1.5q7 -20 11 -33.5t4 -26.5t-2.5 -27.5t-6.5 -36.5q-23 -2 -47 -3t-48 -1q0 -22 -0.5 -44t-1.5 -45q-20 -8 -33.5 -11.5
t-26.5 -3.5t-27.5 2t-36.5 7z" />
    <glyph glyph-name="asterisk" unicode="*" horiz-adv-x="348" 
d="M293 528q-20 11 -41 22.5t-41 23.5l-1 -89q-11 -8 -18.5 -11.5t-15 -3.5t-15.5 2t-20 7q-1 24 -1.5 47.5t-0.5 48.5q-20 -11 -39.5 -21.5t-38.5 -21.5q-21 6 -26.5 21.5t-8.5 32.5q20 14 39 26l38 24l-75 45q-5 21 6 34t25 24q21 -11 41.5 -21t40.5 -22l1 88
q16 15 32 12.5t33 -9.5l3 -90l77 43q12 -5 18.5 -10t10.5 -11t6.5 -14t4.5 -21q-20 -13 -40.5 -24.5t-40.5 -24.5q18 -11 37 -22t39 -23q1 -13 0.5 -21t-3.5 -14.5t-9.5 -12.5t-16.5 -14z" />
    <glyph glyph-name="trademark" unicode="&#x2122;" horiz-adv-x="825" 
d="M25 718q11 17 21 35.5t24 33.5q53 0 106 -5t105 -13q2 -19 -4 -38.5t-16 -36.5q-40 11 -80 5q-2 -73 -2.5 -145.5t0.5 -146.5q16 -4 31 -8t30 -9q-6 -20 -15 -38.5t-17 -37.5q-31 7 -60.5 16.5t-58.5 19.5q-2 85 -1 168.5t1 168.5q11 5 21.5 10.5t21.5 10.5q-27 6 -54 4
t-53 6zM355 785q23 -11 44.5 -24.5t44.5 -24.5q19 11 35.5 25t38.5 22q24 -8 45.5 -22.5t44.5 -22.5q20 11 36 24.5t36 21.5q20 -13 42 -22.5t43 -22.5q-3 -21 -3.5 -67.5t0.5 -99t2.5 -102.5t0.5 -79q14 -4 27 -10q-2 -21 -16 -38t-25 -34q-19 8 -39 13t-36 17q3 70 1 139
t-1 139q-1 19 1 37t-1 37q-12 4 -24 11t-25 -1q-8 -5 -16.5 -10.5t-6.5 -16.5q2 -75 1.5 -150t-1.5 -150v-28t-2 -28q-22 -1 -44 -0.5t-44 0.5q-4 14 -3 28t1 28q0 80 -0.5 159t-0.5 159q-8 4 -16.5 7.5t-17.5 7.5q-18 -9 -36 -21q-5 -40 -2 -80t-1 -80v-53.5t-0.5 -58
t0 -53.5t2.5 -40q-8 -1 -21 -2t-27 -1h-26.5t-18.5 1q0 89 -1 177.5t0 177.5q1 8 -3 13t-10 8.5t-12.5 7.5t-9.5 10q11 18 19.5 37t24.5 35z" />
    <glyph glyph-name="less" unicode="&#x3c;" horiz-adv-x="405" 
d="M369 456q-51 -33 -106 -64l-110 -62q51 -26 101.5 -56t110.5 -65q0 -16 -2 -26t-6.5 -18.5t-11.5 -16.5t-19 -19q-69 35 -137 75.5t-136 81.5q-8 11 -10.5 20.5t-1.5 19.5t4.5 20.5t6.5 24.5q31 22 62 41.5t64 38.5t68 38.5t74 41.5q13 -9 21 -15.5t13 -14.5t8 -18.5
t7 -26.5z" />
    <glyph glyph-name="greater" unicode="&#x3e;" horiz-adv-x="405" 
d="M40 456q4 16 7 26.5t8 18.5t12.5 14.5t21.5 15.5q77 -44 141.5 -80.5t126.5 -79.5q3 -14 6.5 -24.5t4.5 -20.5t-1.5 -19.5t-10.5 -20.5q-68 -41 -136 -81.5t-137 -75.5q-12 11 -19 19t-11.5 16.5t-6.5 18.5t-2 26q60 35 110.5 65t101.5 56l-110 62t-106 64z" />
    <glyph glyph-name="asciicircum" unicode="^" horiz-adv-x="405" 
d="M91 331q-16 5 -26.5 9.5t-18.5 11t-14.5 18t-15.5 30.5q22 55 41.5 105t38.5 96.5t38.5 90.5t41.5 88q14 4 21.5 7t15 3t18 -2.5t30.5 -9.5q41 -96 81.5 -192.5t75.5 -193.5q-11 -17 -19 -27.5t-16.5 -16.5t-18.5 -8.5t-26 -2.5q-17 42 -33.5 77.5t-31.5 69t-29 67
t-27 69.5q-31 -78 -62 -147.5t-64 -141.5z" />
    <glyph glyph-name="periodcentered" unicode="&#xb7;" 
d="M177 340q-35 5 -68 17.5t-65 23.5q2 29 12 57t22 55q34 -1 67 -14t65 -22q-3 -19 -5.5 -32.5t-6 -25.5t-8.5 -25.5t-13 -33.5z" />
    <glyph glyph-name="multiply" unicode="&#xd7;" horiz-adv-x="405" 
d="M276 237q-18 15 -35.5 31.5t-34.5 33.5l-65 -60q-31 11 -49.5 34t-35.5 49q14 17 29 34.5t30 34.5l-60 65q10 31 33.5 49.5t49.5 35.5q17 -14 34 -28.5t34 -29.5q15 14 31 29t34 32q19 -8 31 -15t21.5 -16t18.5 -21.5t21 -30.5q-15 -18 -31.5 -35.5t-33.5 -34.5
q30 -31 62 -65q-9 -19 -16 -31t-16 -21.5t-21 -18.5t-31 -21z" />
    <glyph glyph-name="Oslash" unicode="&#xd8;" horiz-adv-x="516" 
d="M82 710q36 19 73 35.5t73 34.5q12 6 23.5 5t23.5 -4.5t23.5 -9t22.5 -9.5q41 -19 85.5 -33t82.5 -37q2 -153 1.5 -304t-1.5 -305q-28 -15 -62.5 -32.5t-68.5 -33.5t-63 -29t-45 -19q-45 10 -84 26.5t-69 31.5t-47.5 24.5t-18.5 7.5q-5 18 -3 36.5t0 38.5q2 128 2.5 215.5
t0 144t-1 88t-1.5 48t-2 23t-1 12.5q6 20 23.5 28t33.5 17zM186 662q-3 -46 -4.5 -97t-2 -100.5t0 -94t1.5 -76.5q-1 -37 -3.5 -74t5.5 -73q38 -14 76.5 -28.5t77.5 -25.5q-2 131 0.5 260.5t-3.5 260.5q-32 10 -51.5 16t-30.5 9.5t-16.5 5t-9.5 2.5q-8 3 -20 8t-20 7z
M401 791q20 -9 36.5 -22t31.5 -27q-7 -17 -23 -53.5t-38 -85.5t-48 -106.5t-52.5 -116t-52 -115t-46.5 -102.5t-35.5 -79t-19.5 -44q-8 -19 -17 -38t-17 -38q-5 -3 -18.5 -4t-30 0t-32 2.5t-22.5 2.5q12 27 23.5 53.5t22.5 51.5q11 23 34 73t51.5 112.5t60 132t59.5 132
t49.5 111t29.5 70.5q17 44 28.5 68t25.5 22z" />
    <glyph glyph-name="oslash" unicode="&#xf8;" horiz-adv-x="424" 
d="M169 602q11 5 22 9.5t23 4.5q4 0 8 -1t9 -2l44 -16t44 -17q14 31 25 48.5t22 15.5q15 -8 28.5 -20t25.5 -24l-27 -51l6 -2v-137v-165.5t-2 -164.5l-82 -42t-86 -39q-8 -4 -16 -4q-15 0 -44.5 10.5t-62.5 24.5q-5 -10 -10.5 -20t-10.5 -20q-4 -2 -16 -1.5t-25.5 2t-26 3.5
t-18.5 4l33 62q-1 0 -5 2q-2 45 -2 87.5v86.5v297q35 20 71.5 35.5t72.5 33.5zM177 485q-2 -43 -2 -84.5v-84.5v-1l78 141v2q-14 8 -31 19t-35 11q-6 0 -10 -3zM175 153v-5q20 -8 38.5 -15t38.5 -12v171q-21 -38 -40.5 -73t-36.5 -66z" />
    <glyph glyph-name="ecircumflex" unicode="&#xea;" horiz-adv-x="412" 
d="M25 538q47 20 92.5 45t93.5 39q43 -16 84.5 -34.5t82.5 -38.5q5 -22 7 -54t2 -66q0 -32 -1 -61.5t-2 -49.5q-4 -10 -27.5 -23.5t-54.5 -27.5t-64.5 -28t-57.5 -25q-4 -10 -4.5 -22t-0.5 -23q30 -13 56.5 -20.5t51 -13.5t49 -11.5t50.5 -14.5q-16 -32 -34.5 -60.5
t-43.5 -51.5q-17 1 -56 11t-82.5 23t-83 25.5t-57.5 19.5v462zM184 495q-2 -2 -6.5 -6t-6.5 -6v-45v-80v-37t1 -36q17 7 34 13t29 18q2 11 2 22.5v22.5q0 23 -1 45t-1 45q0 10 -5 16.5t-13 11.5t-17 8.5t-16 7.5zM101 609q-11 15 -17 22t-10.5 12.5t-8.5 13t-10 22.5
q12 7 31 23.5t40 35.5t41 35.5t35 22.5l2 2q1 -1 2 -1q1 1 2 1q14 -7 34.5 -23.5t42 -35.5t41 -36t31.5 -24q-6 -15 -10 -22.5t-8.5 -13t-11 -12.5t-16.5 -22q-10 0 -23 7.5t-27 19.5t-29 26.5t-28 28.5q-27 -25 -56 -50t-47 -32z" />
    <glyph glyph-name="acircumflex" unicode="&#xe2;" horiz-adv-x="441" 
d="M32 524q45 23 88.5 45.5t90.5 40.5q44 -13 86 -30t85 -32q16 -3 19 -17.5t3 -28.5q-2 -70 -4 -139.5t-2 -141.5v-41t2 -43q0 -9 7 -13.5t15.5 -8t15.5 -7.5t7 -11q0 -4 -8.5 -20t-19.5 -33.5t-22.5 -31.5t-18.5 -14q-19 0 -38.5 4.5t-37 13t-31 20t-19.5 26.5
q-36 -32 -72 -66q-33 12 -62 22q-25 8 -48.5 16t-33.5 12q-5 27 -6.5 54t-1.5 55q0 41 1 82t1 83q0 24 -1 48.5t-1 49.5q0 52 6 106zM176 466v-47q0 -46 -1.5 -91t-1.5 -92q0 -20 1 -39.5t2 -39.5q0 -2 -0.5 -3.5t-0.5 -2.5q0 -6 5 -11t12 -8.5t13.5 -5.5t8.5 -2
q16 0 26.5 16.5t10.5 31.5v4q0 40 1 79t1 79q0 29 -1 59t-2 59q-13 7 -26 12t-25 11q-5 -2 -11.5 -5t-11.5 -4zM115 609q-11 15 -17 22t-10.5 12.5t-8.5 13t-10 22.5q12 7 31 23.5t40 35.5t41 35.5t35 22.5l2 2q1 -1 2 -1q1 1 2 1q14 -7 34.5 -23.5t42 -35.5t41 -36
t31.5 -24q-6 -15 -10 -22.5t-8.5 -13t-11 -12.5t-16.5 -22q-10 0 -23 7.5t-27 19.5t-29 26.5t-28 28.5q-27 -25 -56 -50t-47 -32z" />
    <glyph glyph-name="ucircumflex" unicode="&#xfb;" horiz-adv-x="465" 
d="M65 611q33 -5 63 -16.5t59 -24.5q2 -7 2 -38v-75t-0.5 -94.5t-0.5 -96.5t1.5 -82t4.5 -49q2 -11 10.5 -13t15.5 1q14 6 28.5 12t17.5 23q4 78 2 156t-2 156q-11 8 -25 13.5t-20 19.5q9 27 26 50.5t31 49.5q73 5 135 -34q7 -38 4 -76.5t-1 -78.5q5 -69 1.5 -138t0.5 -139
q8 -13 22.5 -16t25.5 -10q-9 -28 -26 -52.5t-34 -49.5q-5 -10 -14.5 -8t-18.5 4q-24 7 -47.5 14.5t-47.5 15.5q-1 5 -4 14t-5 14q-21 -14 -39.5 -32t-41.5 -32q-35 7 -67.5 22.5t-67.5 23.5q-9 33 -7.5 66.5t0.5 65.5q0 72 -1 144t-1 144q-9 7 -18.5 13.5t-20.5 12.5
q1 17 7 32.5t15 30.5t19 29t19 28zM127 609q-11 15 -17 22t-10.5 12.5t-8.5 13t-10 22.5q12 7 31 23.5t40 35.5t41 35.5t35 22.5l2 2q1 -1 2 -1q1 1 2 1q14 -7 34.5 -23.5t42 -35.5t41 -36t31.5 -24q-6 -15 -10 -22.5t-8.5 -13t-11 -12.5t-16.5 -22q-10 0 -23 7.5t-27 19.5
t-29 26.5t-28 28.5q-27 -25 -56 -50t-47 -32z" />
    <glyph glyph-name="icircumflex" unicode="&#xee;" 
d="M60 606q33 0 63.5 -13.5t62.5 -24.5q5 -17 5 -31v-21v-11v-72q0 -72 0.5 -144.5t0.5 -144.5v-5q0 -9 6.5 -14t14.5 -8.5t14.5 -6.5t6.5 -8q0 -10 -7.5 -24.5t-18 -30t-22.5 -29.5t-21 -23q-15 1 -29.5 5.5t-28.5 9.5l-28 10t-29 7q-8 21 -8 40v72v134q0 36 2.5 72t2.5 72
q0 14 -3 29t-6 29q-13 5 -22.5 14.5t-9.5 21.5q0 9 6 21.5t15 25.5t18 25.5t15 22.5zM13 609q-11 15 -17 22t-10.5 12.5t-8.5 13t-10 22.5q12 7 31 23.5t40 35.5t41 35.5t35 22.5l2 2q1 -1 2 -1q1 1 2 1q14 -7 34.5 -23.5t42 -35.5t41 -36t31.5 -24q-6 -15 -10 -22.5
t-8.5 -13t-11 -12.5t-16.5 -22q-10 0 -23 7.5t-27 19.5t-29 26.5t-28 28.5q-27 -25 -56 -50t-47 -32z" />
    <glyph glyph-name="guilsinglleft" unicode="&#x2039;" horiz-adv-x="315" 
d="M267 453q-31 -34 -63.5 -66t-65.5 -64q31 -27 61 -58.5t65 -66.5q0 -17 -6.5 -27.5t-15.5 -19t-19 -16.5t-17 -20q-41 36 -81.5 78t-80.5 84q-5 12 -6.5 22t-1 20t2.5 21t4 25q37 45 75 83t85 83q8 -9 18 -16t19.5 -15t17 -19t9.5 -28z" />
    <glyph glyph-name="guilsinglright" unicode="&#x203a;" horiz-adv-x="287" 
d="M36 453q2 17 9.5 28t17 19t19.5 15t18 16q47 -45 85 -83t75 -83q2 -14 4 -25t2.5 -21t-1 -20t-6.5 -22q-40 -42 -80.5 -84t-81.5 -78q-7 12 -17 20t-19 16.5t-15.5 19t-6.5 27.5q35 35 65 66.5t61 58.5q-33 32 -65.5 64t-63.5 66z" />
    <glyph glyph-name="guillemotleft" unicode="&#xab;" horiz-adv-x="546" 
d="M506 449q-31 -34 -63.5 -66t-65.5 -64q31 -27 61 -58.5t65 -66.5q0 -17 -6.5 -27.5t-15.5 -19t-19 -16.5t-17 -20q-41 36 -81.5 78t-80.5 84q-5 12 -6.5 22t-1 20t2.5 21t4 25q37 45 75 83t85 83q8 -9 18 -16t19.5 -15t17 -19t9.5 -28zM267 453q-31 -34 -63.5 -66
t-65.5 -64q31 -27 61 -58.5t65 -66.5q0 -17 -6.5 -27.5t-15.5 -19t-19 -16.5t-17 -20q-41 36 -81.5 78t-80.5 84q-5 12 -6.5 22t-1 20t2.5 21t4 25q37 45 75 83t85 83q8 -9 18 -16t19.5 -15t17 -19t9.5 -28z" />
    <glyph glyph-name="guillemotright" unicode="&#xbb;" horiz-adv-x="525" 
d="M275 453q2 17 9.5 28t17 19t19.5 15t18 16q47 -45 85 -83t75 -83q2 -14 4 -25t2.5 -21t-1 -20t-6.5 -22q-40 -42 -80.5 -84t-81.5 -78q-7 12 -17 20t-19 16.5t-15.5 19t-6.5 27.5q35 35 65 66.5t61 58.5q-33 32 -65.5 64t-63.5 66zM36 449q2 17 9.5 28t17 19t19.5 15
t18 16q47 -45 85 -83t75 -83q2 -14 4 -25t2.5 -21t-1 -20t-6.5 -22q-40 -42 -80.5 -84t-81.5 -78q-7 12 -17 20t-19 16.5t-15.5 19t-6.5 27.5q35 35 65 66.5t61 58.5q-33 32 -65.5 64t-63.5 66z" />
    <glyph glyph-name="exclamdown" unicode="&#xa1;" 
d="M59 539q35 -5 68 -17.5t65 -23.5q-2 -29 -12 -57t-22 -55q-34 1 -67 14t-65 22q3 19 5.5 32.5t6 25.5t8.5 25.5t13 33.5zM82 354q16 0 27 -2.5t20 -6t19 -8.5t26 -10q5 -17 5 -31v-21v-11v-72q0 -72 0.5 -144.5t0.5 -144.5v-5q0 -9 6.5 -14t14.5 -8.5t14.5 -6.5t6.5 -8
q0 -10 -7.5 -24.5t-18 -30t-22.5 -29.5t-21 -23q-15 1 -29.5 5.5t-28.5 9.5l-28 10t-29 7q-8 21 -8 40v72v134q0 10 -0.5 30.5t-0.5 44.5t-0.5 50t-0.5 47.5v36.5v18q0 9 6 21.5t15 25.5t18 25.5t15 22.5z" />
    <glyph glyph-name="questiondown" unicode="&#xbf;" horiz-adv-x="379" 
d="M276 175q-5 -9 -15 -15.5t-23 -12.5t-27 -13t-26 -17q-3 -23 -4 -38t-1 -33.5t1 -46t1 -73.5q5 -10 26.5 -19t48.5 -17t54 -15t42 -12q-1 -16 -11 -36t-23 -37.5t-26 -29.5t-20 -12q-5 0 -24.5 5t-46.5 13.5t-56.5 19t-54.5 21t-41 19.5t-15 15v329q0 4 9 10t22.5 12.5
t29.5 13t31 11.5q0 18 -2 27.5t-2 11.5q0 9 6 21.5t15 25.5t18 25.5t15 22.5q16 0 27 -2.5t20 -6t19 -8.5t26 -10q5 -17 5 -31q4 -32 4.5 -52t-0.5 -33t-2 -20t0 -13zM154 536q35 -5 68 -17.5t65 -23.5q-2 -29 -12 -57t-22 -55q-34 1 -67 14t-65 22q3 19 5.5 32.5t6 25.5
t8.5 25.5t13 33.5z" />
    <glyph glyph-name="numbersign" unicode="#" horiz-adv-x="570" 
d="M297 563q-4 -20 -10 -46t-13 -56h74q8 27 14 51.5t12 44.5q16 7 26.5 11t19.5 4t19 -2.5t25 -6.5q-8 -41 -23 -103q17 -1 33.5 -1h30.5q7 -14 11 -23.5t4 -19t-2.5 -20t-6.5 -26.5l-93 -3q-5 -18 -9.5 -36.5t-9.5 -37.5q30 0 57 -0.5t49 -0.5q7 -14 11 -23.5t4 -19
t-2.5 -20t-6.5 -26.5q-25 -2 -60 -2.5t-76 -0.5l-25 -94q-25 -15 -45 -12t-40 10q3 19 8 43.5t11 52.5q-19 0 -38 0.5t-38 0.5q-7 -28 -13.5 -52t-11.5 -43q-25 -15 -45 -12t-40 10q3 19 8 44t11 54q-18 0 -34 0.5t-29 0.5q-15 21 -12 42.5t10 42.5q17 2 38.5 2.5t47.5 1.5
l19 76l-103 2q-15 21 -12 42.5t10 42.5q24 2 57 3t72 2q7 27 13.5 52t12.5 45q16 7 26.5 11t19.5 4t19 -2.5t25 -6.5zM251 368q-5 -19 -9.5 -37.5t-9.5 -36.5h74l18 73q-18 0 -36 0.5t-37 0.5z" />
    <glyph glyph-name="quotedbl" unicode="&#x22;" horiz-adv-x="405" 
d="M345 784q4 -51 2.5 -103.5t-2.5 -105.5q-22 -10 -44 -8t-44 7q-7 50 -6.5 98.5t2.5 107.5q14 5 24 7.5t19.5 2.5t20.5 -1.5t28 -4.5zM172 784q4 -51 2.5 -103.5t-2.5 -105.5q-22 -10 -44 -8t-44 7q-7 50 -6.5 98.5t2.5 107.5q14 5 24 7.5t20 2.5t21 -1.5t27 -4.5z" />
    <glyph glyph-name="quotesingle" unicode="'" horiz-adv-x="247" 
d="M172 784q4 -51 2.5 -103.5t-2.5 -105.5q-22 -10 -44 -8t-44 7q-7 50 -6.5 98.5t2.5 107.5q14 5 24 7.5t20 2.5t21 -1.5t27 -4.5z" />
    <glyph glyph-name="tilde" unicode="&#x2dc;" 
d="M-9 654q-7 16 -11 24l-7 14t-5 14t-4 23q13 4 36.5 15.5t49 24.5t48.5 23t37 10q20 -11 35.5 -18.5t12.5 -20.5q30 16 46.5 27t33.5 12q5 -11 9.5 -19t8 -15.5t6 -16t3.5 -20.5q-13 -5 -36.5 -16.5t-49 -24.5t-49 -23.5t-37.5 -12.5q-14 14 -25.5 20t-13.5 17
q-29 -16 -50 -25.5t-38 -11.5z" />
    <glyph glyph-name="Otilde" unicode="&#xd5;" horiz-adv-x="516" 
d="M82 710q36 19 73 35.5t73 34.5q12 6 23.5 5t23.5 -4.5t23.5 -9t22.5 -9.5q41 -19 85.5 -33t82.5 -37q2 -153 1.5 -304t-1.5 -305q-28 -15 -62.5 -32.5t-68.5 -33.5t-63 -29t-45 -19q-45 10 -84 26.5t-69 31.5t-47.5 24.5t-18.5 7.5q-5 18 -3 36.5t0 38.5q2 128 2.5 215.5
t0 144t-1 88t-1.5 48t-2 23t-1 12.5q6 20 23.5 28t33.5 17zM186 662q-3 -46 -4.5 -97t-2 -100.5t0 -94t1.5 -76.5q-1 -37 -3.5 -74t5.5 -73q38 -14 76.5 -28.5t77.5 -25.5q-2 131 0.5 260.5t-3.5 260.5q-32 10 -51.5 16t-30.5 9.5t-16.5 5t-9.5 2.5q-8 3 -20 8t-20 7z
M125 854q-7 16 -11 24l-7 14t-5 14t-4 23q13 4 36.5 15.5t49 24.5t48.5 23t37 10q20 -11 35.5 -18.5t12.5 -20.5q30 16 46.5 27t33.5 12q5 -11 9.5 -19t8 -15.5t6 -16t3.5 -20.5q-13 -5 -36.5 -16.5t-49 -24.5t-49 -23.5t-37.5 -12.5q-14 14 -25.5 20t-13.5 17
q-29 -16 -50 -25.5t-38 -11.5z" />
    <glyph glyph-name="atilde" unicode="&#xe3;" horiz-adv-x="441" 
d="M32 524q45 23 88.5 45.5t90.5 40.5q44 -13 86 -30t85 -32q16 -3 19 -17.5t3 -28.5q-2 -70 -4 -139.5t-2 -141.5v-41t2 -43q0 -9 7 -13.5t15.5 -8t15.5 -7.5t7 -11q0 -4 -8.5 -20t-19.5 -33.5t-22.5 -31.5t-18.5 -14q-19 0 -38.5 4.5t-37 13t-31 20t-19.5 26.5
q-36 -32 -72 -66q-33 12 -62 22q-25 8 -48.5 16t-33.5 12q-5 27 -6.5 54t-1.5 55q0 41 1 82t1 83q0 24 -1 48.5t-1 49.5q0 52 6 106zM176 466v-47q0 -46 -1.5 -91t-1.5 -92q0 -20 1 -39.5t2 -39.5q0 -2 -0.5 -3.5t-0.5 -2.5q0 -6 5 -11t12 -8.5t13.5 -5.5t8.5 -2
q16 0 26.5 16.5t10.5 31.5v4q0 40 1 79t1 79q0 29 -1 59t-2 59q-13 7 -26 12t-25 11q-5 -2 -11.5 -5t-11.5 -4zM88 654q-7 16 -11 24l-7 14t-5 14t-4 23q13 4 36.5 15.5t49 24.5t48.5 23t37 10q20 -11 35.5 -18.5t12.5 -20.5q30 16 46.5 27t33.5 12q5 -11 9.5 -19t8 -15.5
t6 -16t3.5 -20.5q-13 -5 -36.5 -16.5t-49 -24.5t-49 -23.5t-37.5 -12.5q-14 14 -25.5 20t-13.5 17q-29 -16 -50 -25.5t-38 -11.5z" />
    <glyph glyph-name="Atilde" unicode="&#xc3;" horiz-adv-x="548" 
d="M103 786q7 8 17 9t19 0q84 -9 166.5 -20t166.5 -24q12 0 16.5 -6.5t5.5 -15t0.5 -18.5t0.5 -18q0 -140 -1 -280t2 -281q13 -4 25 -7.5t25 -9.5q-11 -32 -30.5 -59.5t-37.5 -54.5q-17 0 -33.5 5t-30.5 12q-16 5 -31 9t-29 12q-9 27 -6 55.5t1 56.5q-3 38 -1.5 77.5
t-4.5 78.5q-35 -2 -72.5 0t-69.5 -7q-4 -41 -3 -83t3 -84q4 -6 11 -8t14.5 -4t14 -5.5t9.5 -12.5q-14 -26 -30 -51.5t-34 -50.5q-36 -1 -71 13t-67 28q3 138 1.5 273.5t-1.5 273.5q2 11 13 15t20 9q25 11 52 20t50 25q-15 2 -38 4.5t-46.5 5t-43.5 5.5t-30 8q16 29 35.5 55
t42.5 50zM244 609q-11 -6 -21.5 -11t-21.5 -10q-5 -40 -3 -79t0 -79q37 2 74.5 2t75.5 1q-5 52 -1.5 104t-4.5 103q-27 2 -50.5 -10t-47.5 -21zM162 854q-7 16 -11 24l-7 14t-5 14t-4 23q13 4 36.5 15.5t49 24.5t48.5 23t37 10q20 -11 35.5 -18.5t12.5 -20.5q30 16 46.5 27
t33.5 12q5 -11 9.5 -19t8 -15.5t6 -16t3.5 -20.5q-13 -5 -36.5 -16.5t-49 -24.5t-49 -23.5t-37.5 -12.5q-14 14 -25.5 20t-13.5 17q-29 -16 -50 -25.5t-38 -11.5z" />
    <glyph glyph-name="Ntilde" unicode="&#xd1;" horiz-adv-x="604" 
d="M25 676q11 13 18.5 28.5t15.5 31t18 29.5t26 24q38 -17 74.5 -40t75.5 -40q15 9 28 21.5t26.5 24.5t28 21.5t31.5 13.5q41 -18 80.5 -37.5t80.5 -38.5q5 -73 5 -145.5t-1 -145l-2 -145t2 -145.5q11 -5 23.5 -10.5t23.5 -10.5q-7 -34 -27.5 -62.5t-40.5 -57.5
q-34 5 -65.5 19t-63.5 25q-5 145 -3 288t0 286q4 11 -3.5 17.5t-15.5 11.5q-15 5 -29.5 10t-29.5 11q-16 -13 -32.5 -23.5t-27.5 -27.5q-1 -152 0 -301.5t-1 -301.5q-38 -2 -77.5 -2.5t-77.5 0.5q-4 22 -4.5 69.5t0 107.5t1.5 127t2 129.5t1.5 113.5t-1.5 79q-13 7 -26 13.5
t-25 13.5q-2 3 -4 8.5t-4 10.5zM169 854q-7 16 -11 24l-7 14t-5 14t-4 23q13 4 36.5 15.5t49 24.5t48.5 23t37 10q20 -11 35.5 -18.5t12.5 -20.5q30 16 46.5 27t33.5 12q5 -11 9.5 -19t8 -15.5t6 -16t3.5 -20.5q-13 -5 -36.5 -16.5t-49 -24.5t-49 -23.5t-37.5 -12.5
q-14 14 -25.5 20t-13.5 17q-29 -16 -50 -25.5t-38 -11.5z" />
    <glyph glyph-name="ocircumflex" unicode="&#xf4;" horiz-adv-x="424" 
d="M169 602q11 5 22 9.5t23 4.5q4 0 8 -1t9 -2q43 -15 84.5 -31.5t83.5 -34.5v-137v-165.5t-2 -164.5l-82 -42t-86 -39q-8 -4 -16 -4q-12 0 -35 8t-49 18.5t-53.5 22t-48.5 18.5q-2 45 -2 87.5v86.5v191v106q35 20 71.5 35.5t72.5 33.5zM177 485q-2 -43 -2 -84.5v-84.5v-168
q20 -8 38.5 -15t38.5 -12v173.5t1 163.5q-14 8 -31 19t-35 11q-6 0 -10 -3zM107 609q-11 15 -17 22t-10.5 12.5t-8.5 13t-10 22.5q12 7 31 23.5t40 35.5t41 35.5t35 22.5l2 2q1 -1 2 -1q1 1 2 1q14 -7 34.5 -23.5t42 -35.5t41 -36t31.5 -24q-6 -15 -10 -22.5t-8.5 -13
t-11 -12.5t-16.5 -22q-10 0 -23 7.5t-27 19.5t-29 26.5t-28 28.5q-27 -25 -56 -50t-47 -32z" />
    <glyph glyph-name="otilde" unicode="&#xf5;" horiz-adv-x="424" 
d="M169 602q11 5 22 9.5t23 4.5q4 0 8 -1t9 -2q43 -15 84.5 -31.5t83.5 -34.5v-137v-165.5t-2 -164.5l-82 -42t-86 -39q-8 -4 -16 -4q-12 0 -35 8t-49 18.5t-53.5 22t-48.5 18.5q-2 45 -2 87.5v86.5v191v106q35 20 71.5 35.5t72.5 33.5zM177 485q-2 -43 -2 -84.5v-84.5v-168
q20 -8 38.5 -15t38.5 -12v173.5t1 163.5q-14 8 -31 19t-35 11q-6 0 -10 -3zM79 654q-7 16 -11 24l-7 14t-5 14t-4 23q13 4 36.5 15.5t49 24.5t48.5 23t37 10q20 -11 35.5 -18.5t12.5 -20.5q30 16 46.5 27t33.5 12q5 -11 9.5 -19t8 -15.5t6 -16t3.5 -20.5q-13 -5 -36.5 -16.5
t-49 -24.5t-49 -23.5t-37.5 -12.5q-14 14 -25.5 20t-13.5 17q-29 -16 -50 -25.5t-38 -11.5z" />
    <glyph glyph-name="ntilde" unicode="&#xf1;" horiz-adv-x="512" 
d="M61 567q4 5 8 12t8.5 14t10.5 11.5t13 4.5q10 0 25 -3.5t30.5 -8.5t30.5 -10.5t25 -10.5q5 -9 7.5 -17.5t4.5 -18.5q20 18 38 38.5t42 31.5q19 -3 43.5 -10.5t46.5 -17t37 -21t15 -21.5q0 -29 1 -56.5t1 -56.5q0 -45 -1 -90t-1 -91v-56.5t2 -56.5l20 -10t20 -11
q-11 -30 -27 -59t-36 -55l-38 9.5t-42.5 13t-34.5 18.5t-14 27q0 19 1 38t1 38q0 50 -1 98.5t-1 98.5q0 21 1 43t1 44q0 19 -5 29.5t-14 15.5t-21 5.5t-25 0.5q-5 -14 -9 -27.5t-4 -28.5q0 -23 0.5 -45t0.5 -45q0 -35 -0.5 -69.5t-0.5 -69.5v-31.5t1 -31.5q3 -1 10 -3
t14 -4.5t12 -5t5 -4.5q0 -14 -7.5 -32t-18 -34.5t-22 -30t-18.5 -18.5q-34 7 -65 18t-61 25v92v249v91q-5 3 -12.5 6t-14.5 7t-12 8t-5 9q0 19 14 34t21 31zM123 654q-7 16 -11 24l-7 14t-5 14t-4 23q13 4 36.5 15.5t49 24.5t48.5 23t37 10q20 -11 35.5 -18.5t12.5 -20.5
q30 16 46.5 27t33.5 12q5 -11 9.5 -19t8 -15.5t6 -16t3.5 -20.5q-13 -5 -36.5 -16.5t-49 -24.5t-49 -23.5t-37.5 -12.5q-14 14 -25.5 20t-13.5 17q-29 -16 -50 -25.5t-38 -11.5z" />
    <glyph glyph-name="parenleft" unicode="(" horiz-adv-x="227" 
d="M46 350q0 92 -0.5 183t-4.5 182q3 29 -4.5 58t-18.5 56q2 11 11 18.5t16 15.5q17 16 32.5 34t35.5 32q30 -2 59.5 -7t58.5 -11q0 -29 -2 -58.5t-1 -58.5l-69 5q13 -18 21 -39.5t8 -44.5v-723q0 -23 -8 -44.5t-21 -39.5l69 5q-1 -29 1 -58.5t2 -58.5q-29 -6 -58.5 -11
t-59.5 -7q-20 14 -35.5 32t-32.5 34q-7 8 -16 15.5t-11 18.5q11 27 18.5 56t4.5 58q4 89 4.5 178t0.5 180z" />
    <glyph glyph-name="parenright" unicode=")" horiz-adv-x="227" 
d="M203 350q0 -91 0.5 -180t4.5 -178q-3 -29 4.5 -58t18.5 -56q-2 -11 -11 -18.5t-16 -15.5q-17 -16 -32.5 -34t-35.5 -32q-30 2 -59.5 7t-58.5 11q0 29 2 58.5t1 58.5l69 -5q-13 18 -21 39.5t-8 44.5v723q0 23 8 44.5t21 39.5l-69 -5q1 29 -1 58.5t-2 58.5q29 6 58.5 11
t59.5 7q20 -14 35.5 -32t32.5 -34q7 -8 16 -15.5t11 -18.5q-11 -27 -18.5 -56t-4.5 -58q-4 -91 -4.5 -182t-0.5 -183z" />
    <glyph glyph-name="percent" unicode="%" horiz-adv-x="928" 
d="M651 806q30 -6 55 -17t48 -24q-15 -28 -48 -85t-74 -127.5t-86.5 -147.5t-85 -145t-70 -119t-41.5 -70q-14 -23 -27.5 -47.5t-27.5 -48.5q-7 -5 -28.5 -9t-46.5 -6.5t-48 -4t-34 -1.5q20 34 38.5 66.5t36.5 64.5q17 29 46 78t64 107t72 121t70 120.5t59.5 104.5t40.5 74
q29 54 47 84t40 32zM168 779q10 5 20.5 9t21.5 4q3 0 7 -1l8 -2q40 -14 78.5 -28t77.5 -31q0 -53 -0.5 -86t-0.5 -60.5t-0.5 -56t-0.5 -72.5q-38 -19 -76 -37.5t-79 -34.5q-8 -4 -15 -4q-12 0 -33 7t-45.5 16.5t-49.5 20t-44 16.5q-2 32 -2 73.5v81.5v73.5v50.5q32 17 66 31
t67 30zM176 675q-1 -19 -1.5 -15.5t-0.5 11.5v11.5t0 -15.5v-151q37 -16 71 -24v43.5v25v15v14t0.5 22t0.5 38.5q-14 8 -29 17.5t-32 9.5q-5 0 -9 -2zM690 395q10 5 20.5 9t21.5 4q3 0 7 -1l8 -2q40 -14 78.5 -28t77.5 -31q0 -53 -0.5 -86t-0.5 -60.5t-0.5 -56t-0.5 -72.5
q-38 -19 -76 -37.5t-79 -34.5q-8 -4 -15 -4q-12 0 -33 7t-45.5 16.5t-49.5 20t-44 16.5q-2 32 -2 73.5v81.5v73.5v50.5q32 17 66 31t67 30zM698 291q-1 -19 -1.5 -15.5t-0.5 11.5v11.5t0 -15.5v-151q37 -16 71 -24v43.5v25v15v14t0.5 22t0.5 38.5q-14 8 -29 17.5t-32 9.5
q-5 0 -9 -2z" />
    <glyph glyph-name="bullet" unicode="&#x2022;" horiz-adv-x="332" 
d="M253 249q-55 7 -107.5 27t-104.5 38q4 47 19.5 91t34.5 88q27 -1 53.5 -7t53 -15t52.5 -19t52 -17q-4 -30 -8 -51t-10 -40.5t-14 -41.5t-21 -53z" />
    <glyph glyph-name="Ydieresis" unicode="&#x178;" horiz-adv-x="536" 
d="M5 664q11 34 30.5 64t38.5 59q38 -16 73 -36.5t73 -36.5q17 3 31.5 13.5t29 22.5t29 22.5t31.5 13.5q45 -17 86.5 -38.5t83.5 -41.5v-786q-33 -23 -65.5 -45.5t-65.5 -45.5q-9 -7 -17 -5t-14.5 8.5t-12 15.5t-8.5 17q9 18 18 37t10 39q4 171 2 340t0 340
q-20 10 -40.5 20.5t-42.5 19.5q-14 -10 -29 -19.5t-28 -23.5q-3 -124 -2 -245t-1 -243q14 -5 27 -9.5t26 -9.5q-9 -34 -30 -62t-41 -57q-34 8 -66.5 20.5t-66.5 21.5q-1 74 -1 151.5v154t-0.5 149t-1.5 136.5q-15 8 -30 17.5t-26 21.5zM251 936q-2 -30 -12.5 -57.5
t-20.5 -56.5q-18 2 -36 7.5t-36 10.5q-15 6 -32.5 8t-27.5 15q2 28 11 54t17 52zM303 966q16 6 26.5 5t26.5 -8q45 -15 93 -27q-7 -29 -15 -57t-17 -57q-35 4 -68 14t-65 19q1 25 8.5 48t9.5 47q-2 2 0.5 8t0.5 8z" />
    <glyph glyph-name="Euro" unicode="&#x20ac;" horiz-adv-x="434" 
d="M350 416q-56 -3 -112 -3l1 -73q25 -1 51 -1.5t54 -0.5q7 -14 11 -23.5t4 -19t-2.5 -20t-6.5 -26.5q-54 -3 -110 -3l1 -77q18 2 41.5 -7.5t48.5 -17.5q23 -9 48 -17t45 -22l-32 -52t-33 -52q-5 -12 -17.5 -10.5t-21.5 4.5q-59 20 -116 41.5t-116 41.5q-7 32 -3.5 64.5
t1.5 64.5l-2 41q-12 1 -24.5 1h-24.5q-15 21 -12 42.5t10 42.5l50 4v77q-12 1 -24 1h-24q-15 21 -12 42.5t10 42.5l50 4q0 32 -1 65t-3 66q0 20 2 41t22 35q32 16 65 33.5t62 40.5q11 8 23.5 10t25 0.5t25 -5.5t24.5 -7q25 -7 49.5 -13.5t47.5 -17.5q-9 -73 -52 -131
q-35 9 -68.5 20.5t-68.5 20.5l1 -156q26 -1 52 -1.5t55 -0.5q7 -14 11 -23.5t4 -19t-2.5 -20t-6.5 -26.5z" />
    <glyph glyph-name="cedilla" unicode="&#xb8;" horiz-adv-x="216" 
d="M84 30q7 -17 15 -38.5t20.5 -37.5t30 -21.5t43.5 9.5q6 -38 -0.5 -67.5t-18 -53t-24.5 -41t-20 -31.5q-4 -5 -13.5 -7.5t-21.5 -3.5t-25 -1.5t-22 -0.5q0 18 7.5 26t16.5 18.5t15.5 29.5t4.5 59q-7 0 -17 5.5t-20 13.5t-18 17.5t-11 17.5q12 29 28 55t30 52z" />
    <glyph glyph-name="ccedilla" unicode="&#xe7;" horiz-adv-x="385" 
d="M232 609q19 8 39 8q16 -26 26.5 -55t21.5 -56q11 -29 23 -57t20 -57q-7 -12 -23 -24.5t-34.5 -22t-36 -15.5t-26.5 -6q-17 38 -30 77t-33 76q0 -48 -1 -84.5t-1.5 -70t-1 -69t-0.5 -82.5q5 -10 26.5 -19t48.5 -17t54 -15t42 -12q-1 -16 -11 -36t-23 -37.5t-26 -29.5
t-20 -12q-5 0 -24.5 5t-46.5 13.5t-56.5 19t-54.5 21t-41 19.5t-15 15v441q0 8 23.5 18.5t56 21.5t67 22t57.5 20zM158 30q7 -17 15 -38.5t20.5 -37.5t30 -21.5t43.5 9.5q6 -38 -0.5 -67.5t-18 -53t-24.5 -41t-20 -31.5q-4 -5 -13.5 -7.5t-21.5 -3.5t-25 -1.5t-22 -0.5
q0 18 7.5 26t16.5 18.5t15.5 29.5t4.5 59q-7 0 -17 5.5t-20 13.5t-18 17.5t-11 17.5q12 29 28 55t30 52z" />
    <glyph glyph-name="Ccedilla" unicode="&#xc7;" horiz-adv-x="381" 
d="M177 786q11 8 23.5 10t25 0.5t25 -5.5t24.5 -7q25 -7 49.5 -13.5t47.5 -17.5q-9 -73 -52 -131q-35 9 -68.5 20.5t-68.5 20.5l5 -494q18 2 41.5 -7.5t48.5 -17.5q23 -9 48 -17t45 -22l-32 -52t-33 -52q-5 -12 -17.5 -10.5t-21.5 4.5q-59 20 -116 41.5t-116 41.5
q-7 32 -3.5 64.5t1.5 64.5q-5 108 -2.5 215t-4.5 214q0 20 2 41t22 35q32 16 65 33.5t62 40.5zM156 30q7 -17 15 -38.5t20.5 -37.5t30 -21.5t43.5 9.5q6 -38 -0.5 -67.5t-18 -53t-24.5 -41t-20 -31.5q-4 -5 -13.5 -7.5t-21.5 -3.5t-25 -1.5t-22 -0.5q0 18 7.5 26t16.5 18.5
t15.5 29.5t4.5 59q-7 0 -17 5.5t-20 13.5t-18 17.5t-11 17.5q12 29 28 55t30 52z" />
    <glyph glyph-name="Idieresis" unicode="&#xcf;" horiz-adv-x="442" 
d="M108 774q7 12 19.5 13.5t23.5 -0.5q54 -5 105.5 -12.5t103.5 -15.5q12 -2 24 -3.5t22 -8.5q-7 -20 -19 -36.5t-24.5 -32.5t-24 -33t-17.5 -36q23 -122 48.5 -242.5t47.5 -242.5q-35 -29 -72.5 -57t-73.5 -57q-10 -8 -20.5 -16.5t-24.5 -13.5q-52 11 -101 30t-100 35
q11 34 30.5 64t38.5 59q43 -15 84 -32t86 -28q-20 122 -48.5 242t-47.5 244q10 16 28.5 22.5t34.5 14.5q0 5 -1 10.5t-1 9.5h-4l1 -14q-20 7 -41.5 10t-43 3.5t-42.5 1.5t-42 5q-4 2 -8.5 6t-8.5 6q15 28 32.5 54t35.5 51zM204 936q-2 -30 -12.5 -57.5t-20.5 -56.5
q-18 2 -36 7.5t-36 10.5q-15 6 -32.5 8t-27.5 15q2 28 11 54t17 52zM256 966q16 6 26.5 5t26.5 -8q45 -15 93 -27q-7 -29 -15 -57t-17 -57q-35 4 -68 14t-65 19q1 25 8.5 48t9.5 47q-2 2 0.5 8t0.5 8z" />
    <glyph glyph-name="degree" unicode="&#xb0;" horiz-adv-x="430" 
d="M168 779q10 5 20.5 9t21.5 4q3 0 7 -1l8 -2q40 -14 78.5 -28t77.5 -31q0 -53 -0.5 -86t-0.5 -60.5t-0.5 -56t-0.5 -72.5q-38 -19 -76 -37.5t-79 -34.5q-8 -4 -15 -4q-12 0 -33 7t-45.5 16.5t-49.5 20t-44 16.5q-2 32 -2 73.5v81.5v73.5v50.5q32 17 66 31t67 30zM176 675
q-1 -19 -1.5 -15.5t-0.5 11.5v11.5t0 -15.5v-151q37 -16 71 -24v43.5v25v15v14t0.5 22t0.5 38.5q-14 8 -29 17.5t-32 9.5q-5 0 -9 -2z" />
    <glyph glyph-name="ring" unicode="&#x2da;" horiz-adv-x="251" 
d="M105 824q5 2 10.5 4.5t11.5 2.5q4 0 8 -2q21 -7 41 -14.5t40 -15.5v-44.5t-0.5 -32t-0.5 -29.5v-38q-20 -10 -39.5 -19.5t-40.5 -17.5q-4 -2 -8 -2q-6 0 -17 3.5t-24 8.5t-26 10.5t-23 8.5q-1 16 -1 37.5v42.5v38.5v26.5q17 9 34.5 16.5t34.5 15.5zM110 770
q0 -10 -0.5 -8.5t-0.5 6v6.5t0 -8v-79q19 -8 37 -12v82q-7 4 -15 9t-17 5q-3 0 -4 -1z" />
    <glyph glyph-name="caron" unicode="&#x2c7;" horiz-adv-x="235" 
d="M8 798q18 -7 47 -32t56 -50q13 14 28 28.5t29 26.5t27 19.5t23 7.5q10 -15 16.5 -22t11 -12.5t8.5 -13t10 -22.5q-12 -7 -31.5 -24t-41 -36t-42 -35.5t-34.5 -23.5l-2 1l-2 -1l-2 2q-15 6 -35 22.5t-41 35.5t-40 35.5t-31 23.5q6 15 10 22.5t8.5 13t10.5 12.5t17 22z" />
    <glyph glyph-name="aring" unicode="&#xe5;" horiz-adv-x="441" 
d="M32 524q45 23 88.5 45.5t90.5 40.5q44 -13 86 -30t85 -32q16 -3 19 -17.5t3 -28.5q-2 -70 -4 -139.5t-2 -141.5v-41t2 -43q0 -9 7 -13.5t15.5 -8t15.5 -7.5t7 -11q0 -4 -8.5 -20t-19.5 -33.5t-22.5 -31.5t-18.5 -14q-19 0 -38.5 4.5t-37 13t-31 20t-19.5 26.5
q-36 -32 -72 -66q-33 12 -62 22q-25 8 -48.5 16t-33.5 12q-5 27 -6.5 54t-1.5 55q0 41 1 82t1 83q0 24 -1 48.5t-1 49.5q0 52 6 106zM176 466v-47q0 -46 -1.5 -91t-1.5 -92q0 -20 1 -39.5t2 -39.5q0 -2 -0.5 -3.5t-0.5 -2.5q0 -6 5 -11t12 -8.5t13.5 -5.5t8.5 -2
q16 0 26.5 16.5t10.5 31.5v4q0 40 1 79t1 79q0 29 -1 59t-2 59q-13 7 -26 12t-25 11q-5 -2 -11.5 -5t-11.5 -4zM200 824q5 2 10.5 4.5t11.5 2.5q4 0 8 -2q21 -7 41 -14.5t40 -15.5v-44.5t-0.5 -32t-0.5 -29.5v-38q-20 -10 -39.5 -19.5t-40.5 -17.5q-4 -2 -8 -2q-6 0 -17 3.5
t-24 8.5t-26 10.5t-23 8.5q-1 16 -1 37.5v42.5v38.5v26.5q17 9 34.5 16.5t34.5 15.5zM205 770q0 -10 -0.5 -8.5t-0.5 6v6.5t0 -8v-79q19 -8 37 -12v82q-7 4 -15 9t-17 5q-3 0 -4 -1z" />
    <glyph glyph-name="Aring" unicode="&#xc5;" horiz-adv-x="548" 
d="M103 786q7 8 17 9t19 0q84 -9 166.5 -20t166.5 -24q12 0 16.5 -6.5t5.5 -15t0.5 -18.5t0.5 -18q0 -140 -1 -280t2 -281q13 -4 25 -7.5t25 -9.5q-11 -32 -30.5 -59.5t-37.5 -54.5q-17 0 -33.5 5t-30.5 12q-16 5 -31 9t-29 12q-9 27 -6 55.5t1 56.5q-3 38 -1.5 77.5
t-4.5 78.5q-35 -2 -72.5 0t-69.5 -7q-4 -41 -3 -83t3 -84q4 -6 11 -8t14.5 -4t14 -5.5t9.5 -12.5q-14 -26 -30 -51.5t-34 -50.5q-36 -1 -71 13t-67 28q3 138 1.5 273.5t-1.5 273.5q2 11 13 15t20 9q25 11 52 20t50 25q-15 2 -38 4.5t-46.5 5t-43.5 5.5t-30 8q16 29 35.5 55
t42.5 50zM244 609q-11 -6 -21.5 -11t-21.5 -10q-5 -40 -3 -79t0 -79q37 2 74.5 2t75.5 1q-5 52 -1.5 104t-4.5 103q-27 2 -50.5 -10t-47.5 -21zM253 1024q5 2 10.5 4.5t11.5 2.5q4 0 8 -2q21 -7 41 -14.5t40 -15.5v-44.5t-0.5 -32t-0.5 -29.5v-38q-20 -10 -39.5 -19.5
t-40.5 -17.5q-4 -2 -8 -2q-6 0 -17 3.5t-24 8.5t-26 10.5t-23 8.5q-1 16 -1 37.5v42.5v38.5v26.5q17 9 34.5 16.5t34.5 15.5zM258 970q0 -10 -0.5 -8.5t-0.5 6v6.5t0 -8v-79q19 -8 37 -12v82q-7 4 -15 9t-17 5q-3 0 -4 -1z" />
    <glyph glyph-name="Zcaron" unicode="&#x17d;" horiz-adv-x="484" 
d="M135 782q15 3 53 -0.5t85.5 -9.5t98.5 -12.5t93 -8.5q-20 -50 -54 -95q-31 -46 -61 -91t-62 -92q42 -16 83 -30.5t82 -30.5q3 -94 2 -187.5t1 -187.5q-2 -11 -1 -22.5t-2 -22.5q-11 -14 -25 -25.5t-28 -24.5q-34 -26 -64.5 -55.5t-62.5 -55.5h-21q-56 27 -110 53t-111 52
v26q20 23 32.5 50.5t32.5 51.5q53 -22 103 -47.5t104 -48.5q-2 85 -1 168.5t1 167.5q-36 20 -75 34.5t-78 26.5q-5 2 -12 6t-12 8q5 27 23.5 47.5t34.5 43.5q29 43 57.5 85t56.5 85q-30 6 -59.5 9.5t-59.5 6.5t-60 6.5t-59 10.5q18 28 36.5 55t38.5 54zM137 998
q18 -7 47 -32t56 -50q13 14 28 28.5t29 26.5t27 19.5t23 7.5q10 -15 16.5 -22t11 -12.5t8.5 -13t10 -22.5q-12 -7 -31.5 -24t-41 -36t-42 -35.5t-34.5 -23.5l-2 1l-2 -1l-2 2q-15 6 -35 22.5t-41 35.5t-40 35.5t-31 23.5q6 15 10 22.5t8.5 13t10.5 12.5t17 22z" />
    <glyph glyph-name="zcaron" unicode="&#x17e;" horiz-adv-x="389" 
d="M104 628q63 -1 126 0.5t126 -1.5q11 -17 7 -40.5t-16 -39.5q-29 -39 -56.5 -80.5t-56.5 -82.5q31 -17 63.5 -28.5t62.5 -27.5v-276q0 -20 -1 -40.5t-8 -40.5q-38 -27 -75 -54t-75 -54q-9 2 -18.5 2.5t-18.5 5.5q-34 18 -67.5 35t-67.5 34q-5 18 -2 36.5t10 36t16.5 34
t17.5 32.5q34 -19 67 -41t69 -41q2 61 2 122t-3 122q-31 16 -64.5 26t-60.5 31q33 47 64 94t64 92q-17 2 -32.5 2.5t-34.5 1t-43.5 2t-59.5 5.5q7 32 19 63t26 60l10 5zM89 798q18 -7 47 -32t56 -50q13 14 28 28.5t29 26.5t27 19.5t23 7.5q10 -15 16.5 -22t11 -12.5t8.5 -13
t10 -22.5q-12 -7 -31.5 -24t-41 -36t-42 -35.5t-34.5 -23.5l-2 1l-2 -1l-2 2q-15 6 -35 22.5t-41 35.5t-40 35.5t-31 23.5q6 15 10 22.5t8.5 13t10.5 12.5t17 22z" />
    <glyph glyph-name="Scaron" unicode="&#x160;" horiz-adv-x="536" 
d="M37 108q40 49 86 95q57 -23 115.5 -44t119.5 -37q0 60 1 119t-1 118q-8 8 -17 13t-17 11q-14 -5 -25 -13.5t-20 -20t-17.5 -23.5t-17.5 -23q-25 -1 -46.5 10t-44.5 20q-20 9 -40 16.5t-38 18.5q-6 9 -6 18.5v20.5q0 64 0.5 128t-0.5 128q0 11 -0.5 21.5t4.5 19.5
q32 23 68 37.5t70 34.5q10 4 20 10t20.5 10.5t21 6t22.5 -1.5q52 -12 102 -27.5t102 -27.5q2 -15 -5 -27t-14 -23q-14 -20 -26.5 -40t-32.5 -36q-48 17 -96.5 32.5t-96.5 30.5q-6 -11 -8.5 -23.5t-2.5 -24.5q2 -41 1 -81t1 -81q5 -13 20 -17t26 -9q23 16 39 39.5t32 44.5
q23 -5 44.5 -13.5t43 -18t42.5 -19t44 -16.5q2 -179 0 -359q-48 -27 -97.5 -49.5t-99.5 -47.5q-14 -8 -28 -7t-28.5 5.5t-29 11t-28.5 9.5q-44 16 -88.5 29t-85.5 36zM163 998q18 -7 47 -32t56 -50q13 14 28 28.5t29 26.5t27 19.5t23 7.5q10 -15 16.5 -22t11 -12.5t8.5 -13
t10 -22.5q-12 -7 -31.5 -24t-41 -36t-42 -35.5t-34.5 -23.5l-2 1l-2 -1l-2 2q-15 6 -35 22.5t-41 35.5t-40 35.5t-31 23.5q6 15 10 22.5t8.5 13t10.5 12.5t17 22z" />
    <glyph glyph-name="scaron" unicode="&#x161;" horiz-adv-x="424" 
d="M32 538q41 24 83.5 43.5t83.5 42.5q51 -15 100 -29t99 -28q-1 -17 -7 -31.5t-14 -28.5t-17 -28t-16 -28q-22 1 -42.5 7.5t-40.5 14.5t-40.5 14.5t-42.5 8.5q-2 -32 -2 -63.5v-63.5l18 -8t18 -7q14 17 27 33t27 33l70 -30t67 -35q1 -28 2 -55t1 -54q0 -42 -1 -83t-1 -82
q-43 -23 -87.5 -44t-89.5 -40q-30 0 -60 10.5t-58 19.5q-27 8 -55 15t-52 24q7 13 18.5 31t23.5 34.5t22.5 28.5t16.5 15q45 -12 88 -30.5t88 -29.5q0 24 0.5 47.5t0.5 47.5q0 9 0.5 20.5t-1.5 21t-8 16t-18 6.5q-9 0 -17 -6.5t-15.5 -15.5t-14.5 -18t-16 -14
q-38 8 -71 27.5t-68 35.5q0 38 -1 76.5t-1 76.5q0 26 0.5 51t2.5 51zM107 798q18 -7 47 -32t56 -50q13 14 28 28.5t29 26.5t27 19.5t23 7.5q10 -15 16.5 -22t11 -12.5t8.5 -13t10 -22.5q-12 -7 -31.5 -24t-41 -36t-42 -35.5t-34.5 -23.5l-2 1l-2 -1l-2 2q-15 6 -35 22.5
t-41 35.5t-40 35.5t-31 23.5q6 15 10 22.5t8.5 13t10.5 12.5t17 22z" />
    <glyph glyph-name="uni00AD" unicode="&#xad;" horiz-adv-x="488" 
d="M442 333q-38 -3 -88.5 -3.5t-104 0t-105 1.5t-90.5 2q-15 29 -12 59t10 60q37 4 85 6t100 2t103.5 -1t95.5 -2q7 -20 11 -33.5t4 -26.5t-2.5 -27.5t-6.5 -36.5z" />
    <glyph glyph-name="germandbls" unicode="&#xdf;" horiz-adv-x="544" 
d="M113 788q30 -2 59.5 -7t58.5 -11q0 -29 -2 -58.5t-1 -58.5l-69 5q5 -8 10 -17t9 -19q25 0 69 1t90.5 2t89 1t65.5 -1q9 -17 6 -40.5t-12 -39.5q-23 -39 -55 -78t-54 -80q12 -9 27.5 -16.5t32 -14.5t32 -14t26.5 -15v-275q0 -20 -0.5 -40.5t-5.5 -40.5
q-15 -14 -32.5 -27.5t-35.5 -27t-35.5 -27t-31.5 -26.5q-7 2 -14 2.5t-14 5.5q-26 18 -51 35l-50 34q-4 18 -2 36.5t7.5 35.5t12.5 34t13 32q26 -18 50.5 -40t51.5 -41q5 121 0 243q-23 16 -48.5 26t-45.5 31q25 47 58 94.5t58 92.5q-9 1 -30 1.5t-47.5 0t-56.5 -1t-58 -0.5
q0 -131 0.5 -260.5t-0.5 -260.5q-2 -32 0.5 -63.5t-8.5 -63.5l-64 -8t-65 -6q-8 20 -6 42t2 42q-2 168 -0.5 334t-5.5 334q3 29 -4.5 58t-18.5 56q2 11 11 18.5t16 15.5q17 16 32.5 34t35.5 32z" />
    <glyph glyph-name="divide" unicode="&#xf7;" horiz-adv-x="530" 
d="M483 337q-22 -2 -56.5 -2.5t-74.5 -0.5h-83.5t-84 0.5t-75 1t-57.5 1.5q-14 20 -11 41.5t9 42.5q33 3 89 4t118 1t121.5 -1t99.5 -1q7 -14 10 -23.5t3.5 -18.5t-2 -19.5t-6.5 -25.5zM312 468q-35 5 -68 17.5t-65 23.5q2 29 12 57t22 55q34 -1 67 -14t65 -22
q-3 -19 -5.5 -32.5t-6 -25.5t-8.5 -25.5t-13 -33.5zM304 123q-35 5 -68 17.5t-65 23.5q2 29 12 57t22 55q34 -1 67 -14t65 -22q-3 -19 -5 -32t-5.5 -25t-9 -25.5t-13.5 -34.5z" />
    <glyph glyph-name="thorn" unicode="&#xfe;" horiz-adv-x="455" 
d="M58 182v123v60l3 380q0 2 -1 3.5t-1 3.5q0 11 8 16t19 7.5t23 3t21 2.5q10 0 24 3.5t27 3.5q10 0 17 -5t7 -19q0 -31 -0.5 -58t-0.5 -52.5t-0.5 -50.5t-0.5 -52l2 -16q20 16 37.5 33t39.5 31q5 3 22 -2t39 -14.5t45.5 -20t40.5 -17.5l2 -126t1 -127q0 -52 -1 -103.5
t-2 -103.5q-17 -18 -39 -29t-42 -24q-20 -11 -37.5 -23t-37.5 -17q-18 5 -35 13t-34 15q-2 -12 -2 -25v-26v-54q0 -11 1 -24t-0.5 -25t-7 -21.5t-17.5 -11.5q-25 -5 -50 -7.5t-50 -7.5q-4 1 -10 4t-11 5v238q-13 7 -25 13.5t-25 12.5q0 15 8 25.5t17.5 20t17.5 20t8 25.5z
M226 467q-14 -5 -16 -19.5t-6 -25.5q-1 -69 -1.5 -115.5t0 -77.5t2.5 -49.5t5 -31.5l72 -32q5 72 3 143t-2 144v10l-13 47q-8 2 -16 6t-16 4q-3 0 -5.5 -0.5t-6.5 -2.5z" />
    <glyph glyph-name="Thorn" unicode="&#xde;" horiz-adv-x="539" 
d="M334 573q47 -11 89.5 -34.5t86.5 -42.5v-182.5t-0.5 -110t-1 -59.5t-1.5 -32q-48 -27 -92 -59t-94 -55q-27 11 -51 26.5t-50 26.5q-5 -51 -2 -101t-5 -100q-35 -9 -71 -16t-72 -4q0 74 0.5 146.5t-4.5 146.5q-16 8 -32.5 15t-32.5 16q11 24 31 42.5t37 38.5q0 100 -1 198
t1 198q-14 14 -32 21t-28 23q9 28 28 51t33 49q5 11 15.5 11t19.5 -5q32 -14 61.5 -31t61.5 -32q-6 -64 -8 -118.5t-3 -102.5q28 18 61 40t56 36zM286 447q-11 -3 -31 -13t-37 -21q1 -48 1 -91t-2 -85q2 -9 1 -21t10 -15q35 -17 67.5 -36.5t68.5 -34.5q-3 6 -4 33t-1 67
t0.5 88t1.5 96q-19 8 -37 17t-38 16z" />
    <glyph glyph-name="Eth" unicode="&#xd0;" horiz-adv-x="516" 
d="M52 735q11 14 22.5 28t27.5 23q20 5 40.5 1t40.5 -6q75 -11 147.5 -26.5t147.5 -30.5q12 -23 11 -49q0 -144 1 -285.5t-1 -284.5q-51 -32 -102.5 -63.5t-104.5 -59.5q-34 8 -66 21.5t-66 24.5q-25 11 -50.5 18t-48.5 21q-9 17 -7.5 36.5t-0.5 37.5v154q-6 0 -12.5 0.5
t-12.5 0.5q-15 29 -12 59t10 60l27 3q0 33 -0.5 66t-0.5 66q-1 11 3.5 18t11.5 11.5t15.5 8t15.5 7.5q20 13 43.5 22.5t37.5 28.5q-41 6 -81.5 9.5t-80.5 16.5q7 19 20.5 33.5t24.5 29.5zM281 295q-25 -2 -46.5 -3t-41.5 -1v-135q35 -16 72.5 -27t73.5 -27q1 120 -0.5 238.5
t0.5 238.5v13t-1.5 13t-5 10.5t-11.5 5.5q-18 6 -34 2.5t-31.5 -11t-30.5 -16.5t-30 -13q-1 -41 -1.5 -81t-0.5 -81q18 0 38 -0.5t44 -1.5q7 -20 11 -33.5t4 -26.5t-2.5 -27.5t-6.5 -36.5z" />
    <glyph glyph-name="eth" unicode="&#xf0;" horiz-adv-x="430" 
d="M56 586q-8 20 -12.5 25t-7.5 7.5t-4.5 7.5t-4.5 24q6 1 18 8q-17 14 -35 37q9 11 21 27.5t25 31.5t25 26t21 11q11 0 16 -6q30 -24 59 -44q23 14 43 23.5t32 10.5q6 -14 11 -19l9 -9t6.5 -10t3.5 -21q-13 -5 -42 -23q40 -29 80 -57.5t82 -55.5l3 -8v-472
q0 -9 -18.5 -21.5t-45.5 -26t-56.5 -27t-50.5 -23.5q-7 -4 -14 -4q-8 0 -31 8t-51.5 19.5t-57 24.5t-47.5 24v453q32 11 63 22t61 23q-8 11 -20 20t-26 18q-17 -10 -31 -16.5t-24 -7.5zM177 506q0 -66 2 -132.5t2 -132.5v-40t-1 -40q18 -12 37 -19.5t39 -14.5q2 30 2 59.5
v60.5q0 61 -1 121t-1 120q0 20 -15 29.5t-31 14.5q-8 -7 -16.5 -13t-16.5 -13z" />
    <glyph glyph-name="dollar" unicode="$" horiz-adv-x="536" 
d="M266 886h47v-89q47 -12 92.5 -26t93.5 -25q2 -15 -5 -27t-14 -23q-14 -20 -26.5 -40t-32.5 -36l-108 36v-158q6 8 11.5 16.5t11.5 16.5q23 -5 44.5 -13.5t43 -18t42.5 -19t44 -16.5q2 -179 0 -359q-48 -27 -97.5 -49.5t-99.5 -47.5v-90h-47v85q-17 5 -33.5 12t-33.5 12
q-44 16 -88.5 29t-85.5 36l12 16q40 49 86 95q35 -14 70.5 -27.5t72.5 -26.5v184q-6 -8 -11.5 -15.5t-10.5 -14.5q-25 -1 -46.5 10t-44.5 20q-20 9 -40 16.5t-38 18.5q-6 9 -6 18.5v20.5q0 64 0.5 128t-0.5 128q0 11 -0.5 21.5t4.5 19.5q32 23 68 37.5t70 34.5q14 6 27.5 14
t27.5 11v85zM358 122q0 60 1 119t-1 118q-8 8 -17 13t-17 11q-6 -1 -11 -5v-244zM228 683q-6 -11 -8.5 -23.5t-2.5 -24.5q2 -41 1 -81t1 -81q5 -13 20 -17t26 -9h1v224z" />
    <glyph glyph-name="asciitilde" unicode="~" horiz-adv-x="533" 
d="M65 378q-10 20 -16 30t-10 17.5t-7 17t-6 28.5q19 4 52 18.5t69.5 30.5t70 28.5t52.5 12.5q19 -14 34.5 -22.5t33.5 -25.5q43 20 67 33.5t47 14.5q7 -14 13.5 -24t12 -19.5t9 -20t4.5 -24.5q-19 -6 -52 -20.5t-69.5 -30.5t-70.5 -29t-53 -15q-9 20 -21 27.5t-35 18.5
q-42 -20 -72 -31.5t-53 -14.5z" />
    <glyph glyph-name="A" unicode="A" horiz-adv-x="548" 
d="M103 786q7 8 17 9t19 0q84 -9 166.5 -20t166.5 -24q12 0 16.5 -6.5t5.5 -15t0.5 -18.5t0.5 -18q0 -140 -1 -280t2 -281q13 -4 25 -7.5t25 -9.5q-11 -32 -30.5 -59.5t-37.5 -54.5q-17 0 -33.5 5t-30.5 12q-16 5 -31 9t-29 12q-9 27 -6 55.5t1 56.5q-3 38 -1.5 77.5
t-4.5 78.5q-35 -2 -72.5 0t-69.5 -7q-4 -41 -3 -83t3 -84q4 -6 11 -8t14.5 -4t14 -5.5t9.5 -12.5q-14 -26 -30 -51.5t-34 -50.5q-36 -1 -71 13t-67 28q3 138 1.5 273.5t-1.5 273.5q2 11 13 15t20 9q25 11 52 20t50 25q-15 2 -38 4.5t-46.5 5t-43.5 5.5t-30 8q16 29 35.5 55
t42.5 50zM244 609q-11 -6 -21.5 -11t-21.5 -10q-5 -40 -3 -79t0 -79q37 2 74.5 2t75.5 1q-5 52 -1.5 104t-4.5 103q-27 2 -50.5 -10t-47.5 -21z" />
  </font>
</defs>
</svg>
